%TF.GenerationSoftware,KiCad,Pcbnew,9.0.5*%
%TF.CreationDate,2026-04-17T23:00:24+01:00*%
%TF.ProjectId,Smart_Fan_Controller,536d6172-745f-4466-916e-5f436f6e7472,rev?*%
%TF.SameCoordinates,Original*%
%TF.FileFunction,Paste,Top*%
%TF.FilePolarity,Positive*%
%FSLAX46Y46*%
G04 Gerber Fmt 4.6, Leading zero omitted, Abs format (unit mm)*
G04 Created by KiCad (PCBNEW 9.0.5) date 2026-04-17 23:00:24*
%MOMM*%
%LPD*%
G01*
G04 APERTURE LIST*
G04 Aperture macros list*
%AMRoundRect*
0 Rectangle with rounded corners*
0 $1 Rounding radius*
0 $2 $3 $4 $5 $6 $7 $8 $9 X,Y pos of 4 corners*
0 Add a 4 corners polygon primitive as box body*
4,1,4,$2,$3,$4,$5,$6,$7,$8,$9,$2,$3,0*
0 Add four circle primitives for the rounded corners*
1,1,$1+$1,$2,$3*
1,1,$1+$1,$4,$5*
1,1,$1+$1,$6,$7*
1,1,$1+$1,$8,$9*
0 Add four rect primitives between the rounded corners*
20,1,$1+$1,$2,$3,$4,$5,0*
20,1,$1+$1,$4,$5,$6,$7,0*
20,1,$1+$1,$6,$7,$8,$9,0*
20,1,$1+$1,$8,$9,$2,$3,0*%
G04 Aperture macros list end*
%ADD10R,2.700000X3.600000*%
%ADD11RoundRect,0.250000X0.475000X-0.250000X0.475000X0.250000X-0.475000X0.250000X-0.475000X-0.250000X0*%
%ADD12RoundRect,0.250000X0.250000X0.475000X-0.250000X0.475000X-0.250000X-0.475000X0.250000X-0.475000X0*%
%ADD13RoundRect,0.250000X0.650000X-1.000000X0.650000X1.000000X-0.650000X1.000000X-0.650000X-1.000000X0*%
%ADD14RoundRect,0.237500X-0.250000X-0.237500X0.250000X-0.237500X0.250000X0.237500X-0.250000X0.237500X0*%
%ADD15RoundRect,0.250000X0.350000X-0.450000X0.350000X0.450000X-0.350000X0.450000X-0.350000X-0.450000X0*%
%ADD16RoundRect,0.250000X-2.025000X-2.375000X2.025000X-2.375000X2.025000X2.375000X-2.025000X2.375000X0*%
%ADD17RoundRect,0.250000X-2.050000X-0.300000X2.050000X-0.300000X2.050000X0.300000X-2.050000X0.300000X0*%
%ADD18RoundRect,0.237500X0.237500X-0.250000X0.237500X0.250000X-0.237500X0.250000X-0.237500X-0.250000X0*%
%ADD19RoundRect,0.250000X-0.475000X0.250000X-0.475000X-0.250000X0.475000X-0.250000X0.475000X0.250000X0*%
%ADD20RoundRect,0.137500X-0.600000X-0.137500X0.600000X-0.137500X0.600000X0.137500X-0.600000X0.137500X0*%
%ADD21RoundRect,0.137500X-0.137500X-0.600000X0.137500X-0.600000X0.137500X0.600000X-0.137500X0.600000X0*%
%ADD22RoundRect,0.250000X-0.250000X-0.475000X0.250000X-0.475000X0.250000X0.475000X-0.250000X0.475000X0*%
G04 APERTURE END LIST*
D10*
%TO.C,L1*%
X112600000Y-86250000D03*
X120900000Y-86250000D03*
%TD*%
D11*
%TO.C,C6*%
X109750000Y-70950000D03*
X109750000Y-69050000D03*
%TD*%
D12*
%TO.C,C2*%
X90561200Y-74549000D03*
X88661200Y-74549000D03*
%TD*%
D13*
%TO.C,D4*%
X108250000Y-78250000D03*
X108250000Y-74250000D03*
%TD*%
D14*
%TO.C,R1*%
X81891500Y-57150000D03*
X83716500Y-57150000D03*
%TD*%
D12*
%TO.C,C7*%
X107950000Y-60000000D03*
X106050000Y-60000000D03*
%TD*%
D14*
%TO.C,R4*%
X80367500Y-63500000D03*
X82192500Y-63500000D03*
%TD*%
D15*
%TO.C,Y1*%
X90240000Y-71250000D03*
X90240000Y-69050000D03*
X88540000Y-69050000D03*
X88540000Y-71250000D03*
%TD*%
D16*
%TO.C,U1*%
X120575000Y-70225000D03*
X120575000Y-75775000D03*
X125425000Y-70225000D03*
X125425000Y-75775000D03*
D17*
X113850000Y-69600000D03*
X113850000Y-71300000D03*
X113850000Y-73000000D03*
X113850000Y-74700000D03*
X113850000Y-76400000D03*
%TD*%
D14*
%TO.C,R3*%
X85280000Y-63500000D03*
X87105000Y-63500000D03*
%TD*%
D18*
%TO.C,R6*%
X100330000Y-55880000D03*
X100330000Y-54055000D03*
%TD*%
D14*
%TO.C,R2*%
X82399500Y-59690000D03*
X84224500Y-59690000D03*
%TD*%
D12*
%TO.C,C1*%
X86643000Y-66929800D03*
X84743000Y-66929800D03*
%TD*%
D19*
%TO.C,C5*%
X91540000Y-64100000D03*
X91540000Y-66000000D03*
%TD*%
D18*
%TO.C,R5*%
X81762600Y-69035300D03*
X81762600Y-67210300D03*
%TD*%
D20*
%TO.C,U4*%
X94377500Y-64250000D03*
X94377500Y-65050000D03*
X94377500Y-65850000D03*
X94377500Y-66650000D03*
X94377500Y-67450000D03*
X94377500Y-68250000D03*
X94377500Y-69050000D03*
X94377500Y-69850000D03*
D21*
X95740000Y-71212500D03*
X96540000Y-71212500D03*
X97340000Y-71212500D03*
X98140000Y-71212500D03*
X98940000Y-71212500D03*
X99740000Y-71212500D03*
X100540000Y-71212500D03*
X101340000Y-71212500D03*
D20*
X102702500Y-69850000D03*
X102702500Y-69050000D03*
X102702500Y-68250000D03*
X102702500Y-67450000D03*
X102702500Y-66650000D03*
X102702500Y-65850000D03*
X102702500Y-65050000D03*
X102702500Y-64250000D03*
D21*
X101340000Y-62887500D03*
X100540000Y-62887500D03*
X99740000Y-62887500D03*
X98940000Y-62887500D03*
X98140000Y-62887500D03*
X97340000Y-62887500D03*
X96540000Y-62887500D03*
X95740000Y-62887500D03*
%TD*%
D22*
%TO.C,C8*%
X106050000Y-64000000D03*
X107950000Y-64000000D03*
%TD*%
M02*
