%TF.GenerationSoftware,KiCad,Pcbnew,9.0.5*%
%TF.CreationDate,2026-04-17T23:00:24+01:00*%
%TF.ProjectId,Smart_Fan_Controller,536d6172-745f-4466-916e-5f436f6e7472,rev?*%
%TF.SameCoordinates,Original*%
%TF.FileFunction,Legend,Bot*%
%TF.FilePolarity,Positive*%
%FSLAX46Y46*%
G04 Gerber Fmt 4.6, Leading zero omitted, Abs format (unit mm)*
G04 Created by KiCad (PCBNEW 9.0.5) date 2026-04-17 23:00:24*
%MOMM*%
%LPD*%
G01*
G04 APERTURE LIST*
%ADD10C,0.200000*%
G04 APERTURE END LIST*
D10*
X96773183Y-90867219D02*
X96439850Y-91867219D01*
X96439850Y-91867219D02*
X96106517Y-90867219D01*
X95201755Y-91771980D02*
X95249374Y-91819600D01*
X95249374Y-91819600D02*
X95392231Y-91867219D01*
X95392231Y-91867219D02*
X95487469Y-91867219D01*
X95487469Y-91867219D02*
X95630326Y-91819600D01*
X95630326Y-91819600D02*
X95725564Y-91724361D01*
X95725564Y-91724361D02*
X95773183Y-91629123D01*
X95773183Y-91629123D02*
X95820802Y-91438647D01*
X95820802Y-91438647D02*
X95820802Y-91295790D01*
X95820802Y-91295790D02*
X95773183Y-91105314D01*
X95773183Y-91105314D02*
X95725564Y-91010076D01*
X95725564Y-91010076D02*
X95630326Y-90914838D01*
X95630326Y-90914838D02*
X95487469Y-90867219D01*
X95487469Y-90867219D02*
X95392231Y-90867219D01*
X95392231Y-90867219D02*
X95249374Y-90914838D01*
X95249374Y-90914838D02*
X95201755Y-90962457D01*
X94201755Y-91771980D02*
X94249374Y-91819600D01*
X94249374Y-91819600D02*
X94392231Y-91867219D01*
X94392231Y-91867219D02*
X94487469Y-91867219D01*
X94487469Y-91867219D02*
X94630326Y-91819600D01*
X94630326Y-91819600D02*
X94725564Y-91724361D01*
X94725564Y-91724361D02*
X94773183Y-91629123D01*
X94773183Y-91629123D02*
X94820802Y-91438647D01*
X94820802Y-91438647D02*
X94820802Y-91295790D01*
X94820802Y-91295790D02*
X94773183Y-91105314D01*
X94773183Y-91105314D02*
X94725564Y-91010076D01*
X94725564Y-91010076D02*
X94630326Y-90914838D01*
X94630326Y-90914838D02*
X94487469Y-90867219D01*
X94487469Y-90867219D02*
X94392231Y-90867219D01*
X94392231Y-90867219D02*
X94249374Y-90914838D01*
X94249374Y-90914838D02*
X94201755Y-90962457D01*
X91677945Y-91819600D02*
X91535088Y-91867219D01*
X91535088Y-91867219D02*
X91296993Y-91867219D01*
X91296993Y-91867219D02*
X91201755Y-91819600D01*
X91201755Y-91819600D02*
X91154136Y-91771980D01*
X91154136Y-91771980D02*
X91106517Y-91676742D01*
X91106517Y-91676742D02*
X91106517Y-91581504D01*
X91106517Y-91581504D02*
X91154136Y-91486266D01*
X91154136Y-91486266D02*
X91201755Y-91438647D01*
X91201755Y-91438647D02*
X91296993Y-91391028D01*
X91296993Y-91391028D02*
X91487469Y-91343409D01*
X91487469Y-91343409D02*
X91582707Y-91295790D01*
X91582707Y-91295790D02*
X91630326Y-91248171D01*
X91630326Y-91248171D02*
X91677945Y-91152933D01*
X91677945Y-91152933D02*
X91677945Y-91057695D01*
X91677945Y-91057695D02*
X91630326Y-90962457D01*
X91630326Y-90962457D02*
X91582707Y-90914838D01*
X91582707Y-90914838D02*
X91487469Y-90867219D01*
X91487469Y-90867219D02*
X91249374Y-90867219D01*
X91249374Y-90867219D02*
X91106517Y-90914838D01*
X90106517Y-91771980D02*
X90154136Y-91819600D01*
X90154136Y-91819600D02*
X90296993Y-91867219D01*
X90296993Y-91867219D02*
X90392231Y-91867219D01*
X90392231Y-91867219D02*
X90535088Y-91819600D01*
X90535088Y-91819600D02*
X90630326Y-91724361D01*
X90630326Y-91724361D02*
X90677945Y-91629123D01*
X90677945Y-91629123D02*
X90725564Y-91438647D01*
X90725564Y-91438647D02*
X90725564Y-91295790D01*
X90725564Y-91295790D02*
X90677945Y-91105314D01*
X90677945Y-91105314D02*
X90630326Y-91010076D01*
X90630326Y-91010076D02*
X90535088Y-90914838D01*
X90535088Y-90914838D02*
X90392231Y-90867219D01*
X90392231Y-90867219D02*
X90296993Y-90867219D01*
X90296993Y-90867219D02*
X90154136Y-90914838D01*
X90154136Y-90914838D02*
X90106517Y-90962457D01*
X89677945Y-91867219D02*
X89677945Y-90867219D01*
X89106517Y-91867219D02*
X89535088Y-91295790D01*
X89106517Y-90867219D02*
X89677945Y-91438647D01*
X82058898Y-91867219D02*
X82392231Y-91391028D01*
X82630326Y-91867219D02*
X82630326Y-90867219D01*
X82630326Y-90867219D02*
X82249374Y-90867219D01*
X82249374Y-90867219D02*
X82154136Y-90914838D01*
X82154136Y-90914838D02*
X82106517Y-90962457D01*
X82106517Y-90962457D02*
X82058898Y-91057695D01*
X82058898Y-91057695D02*
X82058898Y-91200552D01*
X82058898Y-91200552D02*
X82106517Y-91295790D01*
X82106517Y-91295790D02*
X82154136Y-91343409D01*
X82154136Y-91343409D02*
X82249374Y-91391028D01*
X82249374Y-91391028D02*
X82630326Y-91391028D01*
X81630326Y-91343409D02*
X81296993Y-91343409D01*
X81154136Y-91867219D02*
X81630326Y-91867219D01*
X81630326Y-91867219D02*
X81630326Y-90867219D01*
X81630326Y-90867219D02*
X81154136Y-90867219D01*
X80773183Y-91819600D02*
X80630326Y-91867219D01*
X80630326Y-91867219D02*
X80392231Y-91867219D01*
X80392231Y-91867219D02*
X80296993Y-91819600D01*
X80296993Y-91819600D02*
X80249374Y-91771980D01*
X80249374Y-91771980D02*
X80201755Y-91676742D01*
X80201755Y-91676742D02*
X80201755Y-91581504D01*
X80201755Y-91581504D02*
X80249374Y-91486266D01*
X80249374Y-91486266D02*
X80296993Y-91438647D01*
X80296993Y-91438647D02*
X80392231Y-91391028D01*
X80392231Y-91391028D02*
X80582707Y-91343409D01*
X80582707Y-91343409D02*
X80677945Y-91295790D01*
X80677945Y-91295790D02*
X80725564Y-91248171D01*
X80725564Y-91248171D02*
X80773183Y-91152933D01*
X80773183Y-91152933D02*
X80773183Y-91057695D01*
X80773183Y-91057695D02*
X80725564Y-90962457D01*
X80725564Y-90962457D02*
X80677945Y-90914838D01*
X80677945Y-90914838D02*
X80582707Y-90867219D01*
X80582707Y-90867219D02*
X80344612Y-90867219D01*
X80344612Y-90867219D02*
X80201755Y-90914838D01*
X79773183Y-91343409D02*
X79439850Y-91343409D01*
X79296993Y-91867219D02*
X79773183Y-91867219D01*
X79773183Y-91867219D02*
X79773183Y-90867219D01*
X79773183Y-90867219D02*
X79296993Y-90867219D01*
X79011278Y-90867219D02*
X78439850Y-90867219D01*
X78725564Y-91867219D02*
X78725564Y-90867219D01*
X76106517Y-90914838D02*
X76201755Y-90867219D01*
X76201755Y-90867219D02*
X76344612Y-90867219D01*
X76344612Y-90867219D02*
X76487469Y-90914838D01*
X76487469Y-90914838D02*
X76582707Y-91010076D01*
X76582707Y-91010076D02*
X76630326Y-91105314D01*
X76630326Y-91105314D02*
X76677945Y-91295790D01*
X76677945Y-91295790D02*
X76677945Y-91438647D01*
X76677945Y-91438647D02*
X76630326Y-91629123D01*
X76630326Y-91629123D02*
X76582707Y-91724361D01*
X76582707Y-91724361D02*
X76487469Y-91819600D01*
X76487469Y-91819600D02*
X76344612Y-91867219D01*
X76344612Y-91867219D02*
X76249374Y-91867219D01*
X76249374Y-91867219D02*
X76106517Y-91819600D01*
X76106517Y-91819600D02*
X76058898Y-91771980D01*
X76058898Y-91771980D02*
X76058898Y-91438647D01*
X76058898Y-91438647D02*
X76249374Y-91438647D01*
X75630326Y-91867219D02*
X75630326Y-90867219D01*
X75630326Y-90867219D02*
X75058898Y-91867219D01*
X75058898Y-91867219D02*
X75058898Y-90867219D01*
X74582707Y-91867219D02*
X74582707Y-90867219D01*
X74582707Y-90867219D02*
X74344612Y-90867219D01*
X74344612Y-90867219D02*
X74201755Y-90914838D01*
X74201755Y-90914838D02*
X74106517Y-91010076D01*
X74106517Y-91010076D02*
X74058898Y-91105314D01*
X74058898Y-91105314D02*
X74011279Y-91295790D01*
X74011279Y-91295790D02*
X74011279Y-91438647D01*
X74011279Y-91438647D02*
X74058898Y-91629123D01*
X74058898Y-91629123D02*
X74106517Y-91724361D01*
X74106517Y-91724361D02*
X74201755Y-91819600D01*
X74201755Y-91819600D02*
X74344612Y-91867219D01*
X74344612Y-91867219D02*
X74582707Y-91867219D01*
X87630326Y-91867219D02*
X87630326Y-90867219D01*
X87630326Y-90867219D02*
X87296993Y-91581504D01*
X87296993Y-91581504D02*
X86963660Y-90867219D01*
X86963660Y-90867219D02*
X86963660Y-91867219D01*
X86296993Y-90867219D02*
X86106517Y-90867219D01*
X86106517Y-90867219D02*
X86011279Y-90914838D01*
X86011279Y-90914838D02*
X85916041Y-91010076D01*
X85916041Y-91010076D02*
X85868422Y-91200552D01*
X85868422Y-91200552D02*
X85868422Y-91533885D01*
X85868422Y-91533885D02*
X85916041Y-91724361D01*
X85916041Y-91724361D02*
X86011279Y-91819600D01*
X86011279Y-91819600D02*
X86106517Y-91867219D01*
X86106517Y-91867219D02*
X86296993Y-91867219D01*
X86296993Y-91867219D02*
X86392231Y-91819600D01*
X86392231Y-91819600D02*
X86487469Y-91724361D01*
X86487469Y-91724361D02*
X86535088Y-91533885D01*
X86535088Y-91533885D02*
X86535088Y-91200552D01*
X86535088Y-91200552D02*
X86487469Y-91010076D01*
X86487469Y-91010076D02*
X86392231Y-90914838D01*
X86392231Y-90914838D02*
X86296993Y-90867219D01*
X85487469Y-91819600D02*
X85344612Y-91867219D01*
X85344612Y-91867219D02*
X85106517Y-91867219D01*
X85106517Y-91867219D02*
X85011279Y-91819600D01*
X85011279Y-91819600D02*
X84963660Y-91771980D01*
X84963660Y-91771980D02*
X84916041Y-91676742D01*
X84916041Y-91676742D02*
X84916041Y-91581504D01*
X84916041Y-91581504D02*
X84963660Y-91486266D01*
X84963660Y-91486266D02*
X85011279Y-91438647D01*
X85011279Y-91438647D02*
X85106517Y-91391028D01*
X85106517Y-91391028D02*
X85296993Y-91343409D01*
X85296993Y-91343409D02*
X85392231Y-91295790D01*
X85392231Y-91295790D02*
X85439850Y-91248171D01*
X85439850Y-91248171D02*
X85487469Y-91152933D01*
X85487469Y-91152933D02*
X85487469Y-91057695D01*
X85487469Y-91057695D02*
X85439850Y-90962457D01*
X85439850Y-90962457D02*
X85392231Y-90914838D01*
X85392231Y-90914838D02*
X85296993Y-90867219D01*
X85296993Y-90867219D02*
X85058898Y-90867219D01*
X85058898Y-90867219D02*
X84916041Y-90914838D01*
X84487469Y-91867219D02*
X84487469Y-90867219D01*
X102630326Y-91867219D02*
X102630326Y-90867219D01*
X102630326Y-90867219D02*
X102296993Y-91581504D01*
X102296993Y-91581504D02*
X101963660Y-90867219D01*
X101963660Y-90867219D02*
X101963660Y-91867219D01*
X101487469Y-91867219D02*
X101487469Y-90867219D01*
X101058898Y-91819600D02*
X100916041Y-91867219D01*
X100916041Y-91867219D02*
X100677946Y-91867219D01*
X100677946Y-91867219D02*
X100582708Y-91819600D01*
X100582708Y-91819600D02*
X100535089Y-91771980D01*
X100535089Y-91771980D02*
X100487470Y-91676742D01*
X100487470Y-91676742D02*
X100487470Y-91581504D01*
X100487470Y-91581504D02*
X100535089Y-91486266D01*
X100535089Y-91486266D02*
X100582708Y-91438647D01*
X100582708Y-91438647D02*
X100677946Y-91391028D01*
X100677946Y-91391028D02*
X100868422Y-91343409D01*
X100868422Y-91343409D02*
X100963660Y-91295790D01*
X100963660Y-91295790D02*
X101011279Y-91248171D01*
X101011279Y-91248171D02*
X101058898Y-91152933D01*
X101058898Y-91152933D02*
X101058898Y-91057695D01*
X101058898Y-91057695D02*
X101011279Y-90962457D01*
X101011279Y-90962457D02*
X100963660Y-90914838D01*
X100963660Y-90914838D02*
X100868422Y-90867219D01*
X100868422Y-90867219D02*
X100630327Y-90867219D01*
X100630327Y-90867219D02*
X100487470Y-90914838D01*
X99868422Y-90867219D02*
X99677946Y-90867219D01*
X99677946Y-90867219D02*
X99582708Y-90914838D01*
X99582708Y-90914838D02*
X99487470Y-91010076D01*
X99487470Y-91010076D02*
X99439851Y-91200552D01*
X99439851Y-91200552D02*
X99439851Y-91533885D01*
X99439851Y-91533885D02*
X99487470Y-91724361D01*
X99487470Y-91724361D02*
X99582708Y-91819600D01*
X99582708Y-91819600D02*
X99677946Y-91867219D01*
X99677946Y-91867219D02*
X99868422Y-91867219D01*
X99868422Y-91867219D02*
X99963660Y-91819600D01*
X99963660Y-91819600D02*
X100058898Y-91724361D01*
X100058898Y-91724361D02*
X100106517Y-91533885D01*
X100106517Y-91533885D02*
X100106517Y-91200552D01*
X100106517Y-91200552D02*
X100058898Y-91010076D01*
X100058898Y-91010076D02*
X99963660Y-90914838D01*
X99963660Y-90914838D02*
X99868422Y-90867219D01*
M02*
