%TF.GenerationSoftware,KiCad,Pcbnew,9.0.5*%
%TF.CreationDate,2026-04-17T23:00:10+01:00*%
%TF.ProjectId,Smart_Fan_Controller,536d6172-745f-4466-916e-5f436f6e7472,rev?*%
%TF.SameCoordinates,Original*%
%TF.FileFunction,Drillmap*%
%TF.FilePolarity,Positive*%
%FSLAX45Y45*%
G04 Gerber Fmt 4.5, Leading zero omitted, Abs format (unit mm)*
G04 Created by KiCad (PCBNEW 9.0.5) date 2026-04-17 23:00:10*
%MOMM*%
%LPD*%
G01*
G04 APERTURE LIST*
%ADD10C,0.050000*%
%ADD11C,0.200000*%
%ADD12C,0.115200*%
G04 APERTURE END LIST*
D10*
X6600000Y-4200000D02*
X13000000Y-4200000D01*
X13000000Y-9400000D01*
X6600000Y-9400000D01*
X6600000Y-4200000D01*
D11*
D12*
X6742400Y-4342400D02*
X6857600Y-4457600D01*
X6857600Y-4342400D02*
X6742400Y-4457600D01*
X6742400Y-9142400D02*
X6857600Y-9257600D01*
X6857600Y-9142400D02*
X6742400Y-9257600D01*
X12742400Y-4342400D02*
X12857600Y-4457600D01*
X12857600Y-4342400D02*
X12742400Y-4457600D01*
X12742400Y-9142400D02*
X12857600Y-9257600D01*
X12857600Y-9142400D02*
X12742400Y-9257600D01*
D11*
X6858277Y-9713984D02*
X6858277Y-9513984D01*
X6858277Y-9513984D02*
X6905896Y-9513984D01*
X6905896Y-9513984D02*
X6934467Y-9523508D01*
X6934467Y-9523508D02*
X6953515Y-9542555D01*
X6953515Y-9542555D02*
X6963039Y-9561603D01*
X6963039Y-9561603D02*
X6972562Y-9599698D01*
X6972562Y-9599698D02*
X6972562Y-9628270D01*
X6972562Y-9628270D02*
X6963039Y-9666365D01*
X6963039Y-9666365D02*
X6953515Y-9685412D01*
X6953515Y-9685412D02*
X6934467Y-9704460D01*
X6934467Y-9704460D02*
X6905896Y-9713984D01*
X6905896Y-9713984D02*
X6858277Y-9713984D01*
X7058277Y-9713984D02*
X7058277Y-9580650D01*
X7058277Y-9618746D02*
X7067801Y-9599698D01*
X7067801Y-9599698D02*
X7077324Y-9590174D01*
X7077324Y-9590174D02*
X7096372Y-9580650D01*
X7096372Y-9580650D02*
X7115420Y-9580650D01*
X7182086Y-9713984D02*
X7182086Y-9580650D01*
X7182086Y-9513984D02*
X7172562Y-9523508D01*
X7172562Y-9523508D02*
X7182086Y-9533031D01*
X7182086Y-9533031D02*
X7191610Y-9523508D01*
X7191610Y-9523508D02*
X7182086Y-9513984D01*
X7182086Y-9513984D02*
X7182086Y-9533031D01*
X7305896Y-9713984D02*
X7286848Y-9704460D01*
X7286848Y-9704460D02*
X7277324Y-9685412D01*
X7277324Y-9685412D02*
X7277324Y-9513984D01*
X7410658Y-9713984D02*
X7391610Y-9704460D01*
X7391610Y-9704460D02*
X7382086Y-9685412D01*
X7382086Y-9685412D02*
X7382086Y-9513984D01*
X7639229Y-9713984D02*
X7639229Y-9513984D01*
X7639229Y-9513984D02*
X7705896Y-9656841D01*
X7705896Y-9656841D02*
X7772562Y-9513984D01*
X7772562Y-9513984D02*
X7772562Y-9713984D01*
X7953515Y-9713984D02*
X7953515Y-9609222D01*
X7953515Y-9609222D02*
X7943991Y-9590174D01*
X7943991Y-9590174D02*
X7924943Y-9580650D01*
X7924943Y-9580650D02*
X7886848Y-9580650D01*
X7886848Y-9580650D02*
X7867801Y-9590174D01*
X7953515Y-9704460D02*
X7934467Y-9713984D01*
X7934467Y-9713984D02*
X7886848Y-9713984D01*
X7886848Y-9713984D02*
X7867801Y-9704460D01*
X7867801Y-9704460D02*
X7858277Y-9685412D01*
X7858277Y-9685412D02*
X7858277Y-9666365D01*
X7858277Y-9666365D02*
X7867801Y-9647317D01*
X7867801Y-9647317D02*
X7886848Y-9637793D01*
X7886848Y-9637793D02*
X7934467Y-9637793D01*
X7934467Y-9637793D02*
X7953515Y-9628270D01*
X8048753Y-9580650D02*
X8048753Y-9780650D01*
X8048753Y-9590174D02*
X8067801Y-9580650D01*
X8067801Y-9580650D02*
X8105896Y-9580650D01*
X8105896Y-9580650D02*
X8124943Y-9590174D01*
X8124943Y-9590174D02*
X8134467Y-9599698D01*
X8134467Y-9599698D02*
X8143991Y-9618746D01*
X8143991Y-9618746D02*
X8143991Y-9675889D01*
X8143991Y-9675889D02*
X8134467Y-9694936D01*
X8134467Y-9694936D02*
X8124943Y-9704460D01*
X8124943Y-9704460D02*
X8105896Y-9713984D01*
X8105896Y-9713984D02*
X8067801Y-9713984D01*
X8067801Y-9713984D02*
X8048753Y-9704460D01*
X8229705Y-9694936D02*
X8239229Y-9704460D01*
X8239229Y-9704460D02*
X8229705Y-9713984D01*
X8229705Y-9713984D02*
X8220182Y-9704460D01*
X8220182Y-9704460D02*
X8229705Y-9694936D01*
X8229705Y-9694936D02*
X8229705Y-9713984D01*
X8229705Y-9590174D02*
X8239229Y-9599698D01*
X8239229Y-9599698D02*
X8229705Y-9609222D01*
X8229705Y-9609222D02*
X8220182Y-9599698D01*
X8220182Y-9599698D02*
X8229705Y-9590174D01*
X8229705Y-9590174D02*
X8229705Y-9609222D01*
D12*
X6482300Y-9984900D02*
X6597500Y-10100100D01*
X6597500Y-9984900D02*
X6482300Y-10100100D01*
D11*
X6963039Y-10133984D02*
X6848753Y-10133984D01*
X6905896Y-10133984D02*
X6905896Y-9933984D01*
X6905896Y-9933984D02*
X6886848Y-9962555D01*
X6886848Y-9962555D02*
X6867801Y-9981603D01*
X6867801Y-9981603D02*
X6848753Y-9991127D01*
X7048753Y-10114936D02*
X7058277Y-10124460D01*
X7058277Y-10124460D02*
X7048753Y-10133984D01*
X7048753Y-10133984D02*
X7039229Y-10124460D01*
X7039229Y-10124460D02*
X7048753Y-10114936D01*
X7048753Y-10114936D02*
X7048753Y-10133984D01*
X7248753Y-10133984D02*
X7134467Y-10133984D01*
X7191610Y-10133984D02*
X7191610Y-9933984D01*
X7191610Y-9933984D02*
X7172562Y-9962555D01*
X7172562Y-9962555D02*
X7153515Y-9981603D01*
X7153515Y-9981603D02*
X7134467Y-9991127D01*
X7429705Y-9933984D02*
X7334467Y-9933984D01*
X7334467Y-9933984D02*
X7324943Y-10029222D01*
X7324943Y-10029222D02*
X7334467Y-10019698D01*
X7334467Y-10019698D02*
X7353515Y-10010174D01*
X7353515Y-10010174D02*
X7401134Y-10010174D01*
X7401134Y-10010174D02*
X7420182Y-10019698D01*
X7420182Y-10019698D02*
X7429705Y-10029222D01*
X7429705Y-10029222D02*
X7439229Y-10048270D01*
X7439229Y-10048270D02*
X7439229Y-10095889D01*
X7439229Y-10095889D02*
X7429705Y-10114936D01*
X7429705Y-10114936D02*
X7420182Y-10124460D01*
X7420182Y-10124460D02*
X7401134Y-10133984D01*
X7401134Y-10133984D02*
X7353515Y-10133984D01*
X7353515Y-10133984D02*
X7334467Y-10124460D01*
X7334467Y-10124460D02*
X7324943Y-10114936D01*
X7515420Y-9953031D02*
X7524943Y-9943508D01*
X7524943Y-9943508D02*
X7543991Y-9933984D01*
X7543991Y-9933984D02*
X7591610Y-9933984D01*
X7591610Y-9933984D02*
X7610658Y-9943508D01*
X7610658Y-9943508D02*
X7620182Y-9953031D01*
X7620182Y-9953031D02*
X7629705Y-9972079D01*
X7629705Y-9972079D02*
X7629705Y-9991127D01*
X7629705Y-9991127D02*
X7620182Y-10019698D01*
X7620182Y-10019698D02*
X7505896Y-10133984D01*
X7505896Y-10133984D02*
X7629705Y-10133984D01*
X7715420Y-10133984D02*
X7715420Y-10000650D01*
X7715420Y-10019698D02*
X7724943Y-10010174D01*
X7724943Y-10010174D02*
X7743991Y-10000650D01*
X7743991Y-10000650D02*
X7772563Y-10000650D01*
X7772563Y-10000650D02*
X7791610Y-10010174D01*
X7791610Y-10010174D02*
X7801134Y-10029222D01*
X7801134Y-10029222D02*
X7801134Y-10133984D01*
X7801134Y-10029222D02*
X7810658Y-10010174D01*
X7810658Y-10010174D02*
X7829705Y-10000650D01*
X7829705Y-10000650D02*
X7858277Y-10000650D01*
X7858277Y-10000650D02*
X7877324Y-10010174D01*
X7877324Y-10010174D02*
X7886848Y-10029222D01*
X7886848Y-10029222D02*
X7886848Y-10133984D01*
X7982086Y-10133984D02*
X7982086Y-10000650D01*
X7982086Y-10019698D02*
X7991610Y-10010174D01*
X7991610Y-10010174D02*
X8010658Y-10000650D01*
X8010658Y-10000650D02*
X8039229Y-10000650D01*
X8039229Y-10000650D02*
X8058277Y-10010174D01*
X8058277Y-10010174D02*
X8067801Y-10029222D01*
X8067801Y-10029222D02*
X8067801Y-10133984D01*
X8067801Y-10029222D02*
X8077324Y-10010174D01*
X8077324Y-10010174D02*
X8096372Y-10000650D01*
X8096372Y-10000650D02*
X8124943Y-10000650D01*
X8124943Y-10000650D02*
X8143991Y-10010174D01*
X8143991Y-10010174D02*
X8153515Y-10029222D01*
X8153515Y-10029222D02*
X8153515Y-10133984D01*
X8543991Y-9924460D02*
X8372563Y-10181603D01*
X8801134Y-9933984D02*
X8820182Y-9933984D01*
X8820182Y-9933984D02*
X8839229Y-9943508D01*
X8839229Y-9943508D02*
X8848753Y-9953031D01*
X8848753Y-9953031D02*
X8858277Y-9972079D01*
X8858277Y-9972079D02*
X8867801Y-10010174D01*
X8867801Y-10010174D02*
X8867801Y-10057793D01*
X8867801Y-10057793D02*
X8858277Y-10095889D01*
X8858277Y-10095889D02*
X8848753Y-10114936D01*
X8848753Y-10114936D02*
X8839229Y-10124460D01*
X8839229Y-10124460D02*
X8820182Y-10133984D01*
X8820182Y-10133984D02*
X8801134Y-10133984D01*
X8801134Y-10133984D02*
X8782087Y-10124460D01*
X8782087Y-10124460D02*
X8772563Y-10114936D01*
X8772563Y-10114936D02*
X8763039Y-10095889D01*
X8763039Y-10095889D02*
X8753515Y-10057793D01*
X8753515Y-10057793D02*
X8753515Y-10010174D01*
X8753515Y-10010174D02*
X8763039Y-9972079D01*
X8763039Y-9972079D02*
X8772563Y-9953031D01*
X8772563Y-9953031D02*
X8782087Y-9943508D01*
X8782087Y-9943508D02*
X8801134Y-9933984D01*
X8953515Y-10114936D02*
X8963039Y-10124460D01*
X8963039Y-10124460D02*
X8953515Y-10133984D01*
X8953515Y-10133984D02*
X8943991Y-10124460D01*
X8943991Y-10124460D02*
X8953515Y-10114936D01*
X8953515Y-10114936D02*
X8953515Y-10133984D01*
X9086848Y-9933984D02*
X9105896Y-9933984D01*
X9105896Y-9933984D02*
X9124944Y-9943508D01*
X9124944Y-9943508D02*
X9134468Y-9953031D01*
X9134468Y-9953031D02*
X9143991Y-9972079D01*
X9143991Y-9972079D02*
X9153515Y-10010174D01*
X9153515Y-10010174D02*
X9153515Y-10057793D01*
X9153515Y-10057793D02*
X9143991Y-10095889D01*
X9143991Y-10095889D02*
X9134468Y-10114936D01*
X9134468Y-10114936D02*
X9124944Y-10124460D01*
X9124944Y-10124460D02*
X9105896Y-10133984D01*
X9105896Y-10133984D02*
X9086848Y-10133984D01*
X9086848Y-10133984D02*
X9067801Y-10124460D01*
X9067801Y-10124460D02*
X9058277Y-10114936D01*
X9058277Y-10114936D02*
X9048753Y-10095889D01*
X9048753Y-10095889D02*
X9039229Y-10057793D01*
X9039229Y-10057793D02*
X9039229Y-10010174D01*
X9039229Y-10010174D02*
X9048753Y-9972079D01*
X9048753Y-9972079D02*
X9058277Y-9953031D01*
X9058277Y-9953031D02*
X9067801Y-9943508D01*
X9067801Y-9943508D02*
X9086848Y-9933984D01*
X9324944Y-10000650D02*
X9324944Y-10133984D01*
X9277325Y-9924460D02*
X9229706Y-10067317D01*
X9229706Y-10067317D02*
X9353515Y-10067317D01*
X9524944Y-9933984D02*
X9429706Y-9933984D01*
X9429706Y-9933984D02*
X9420182Y-10029222D01*
X9420182Y-10029222D02*
X9429706Y-10019698D01*
X9429706Y-10019698D02*
X9448753Y-10010174D01*
X9448753Y-10010174D02*
X9496372Y-10010174D01*
X9496372Y-10010174D02*
X9515420Y-10019698D01*
X9515420Y-10019698D02*
X9524944Y-10029222D01*
X9524944Y-10029222D02*
X9534468Y-10048270D01*
X9534468Y-10048270D02*
X9534468Y-10095889D01*
X9534468Y-10095889D02*
X9524944Y-10114936D01*
X9524944Y-10114936D02*
X9515420Y-10124460D01*
X9515420Y-10124460D02*
X9496372Y-10133984D01*
X9496372Y-10133984D02*
X9448753Y-10133984D01*
X9448753Y-10133984D02*
X9429706Y-10124460D01*
X9429706Y-10124460D02*
X9420182Y-10114936D01*
X9705896Y-10000650D02*
X9705896Y-10133984D01*
X9658277Y-9924460D02*
X9610658Y-10067317D01*
X9610658Y-10067317D02*
X9734468Y-10067317D01*
X9801134Y-9933984D02*
X9801134Y-9972079D01*
X9877325Y-9933984D02*
X9877325Y-9972079D01*
X10172563Y-10210174D02*
X10163039Y-10200650D01*
X10163039Y-10200650D02*
X10143991Y-10172079D01*
X10143991Y-10172079D02*
X10134468Y-10153031D01*
X10134468Y-10153031D02*
X10124944Y-10124460D01*
X10124944Y-10124460D02*
X10115420Y-10076841D01*
X10115420Y-10076841D02*
X10115420Y-10038746D01*
X10115420Y-10038746D02*
X10124944Y-9991127D01*
X10124944Y-9991127D02*
X10134468Y-9962555D01*
X10134468Y-9962555D02*
X10143991Y-9943508D01*
X10143991Y-9943508D02*
X10163039Y-9914936D01*
X10163039Y-9914936D02*
X10172563Y-9905412D01*
X10334468Y-10000650D02*
X10334468Y-10133984D01*
X10286849Y-9924460D02*
X10239230Y-10067317D01*
X10239230Y-10067317D02*
X10363039Y-10067317D01*
X10591611Y-10133984D02*
X10591611Y-9933984D01*
X10677325Y-10133984D02*
X10677325Y-10029222D01*
X10677325Y-10029222D02*
X10667801Y-10010174D01*
X10667801Y-10010174D02*
X10648753Y-10000650D01*
X10648753Y-10000650D02*
X10620182Y-10000650D01*
X10620182Y-10000650D02*
X10601134Y-10010174D01*
X10601134Y-10010174D02*
X10591611Y-10019698D01*
X10801134Y-10133984D02*
X10782087Y-10124460D01*
X10782087Y-10124460D02*
X10772563Y-10114936D01*
X10772563Y-10114936D02*
X10763039Y-10095889D01*
X10763039Y-10095889D02*
X10763039Y-10038746D01*
X10763039Y-10038746D02*
X10772563Y-10019698D01*
X10772563Y-10019698D02*
X10782087Y-10010174D01*
X10782087Y-10010174D02*
X10801134Y-10000650D01*
X10801134Y-10000650D02*
X10829706Y-10000650D01*
X10829706Y-10000650D02*
X10848753Y-10010174D01*
X10848753Y-10010174D02*
X10858277Y-10019698D01*
X10858277Y-10019698D02*
X10867801Y-10038746D01*
X10867801Y-10038746D02*
X10867801Y-10095889D01*
X10867801Y-10095889D02*
X10858277Y-10114936D01*
X10858277Y-10114936D02*
X10848753Y-10124460D01*
X10848753Y-10124460D02*
X10829706Y-10133984D01*
X10829706Y-10133984D02*
X10801134Y-10133984D01*
X10982087Y-10133984D02*
X10963039Y-10124460D01*
X10963039Y-10124460D02*
X10953515Y-10105412D01*
X10953515Y-10105412D02*
X10953515Y-9933984D01*
X11134468Y-10124460D02*
X11115420Y-10133984D01*
X11115420Y-10133984D02*
X11077325Y-10133984D01*
X11077325Y-10133984D02*
X11058277Y-10124460D01*
X11058277Y-10124460D02*
X11048753Y-10105412D01*
X11048753Y-10105412D02*
X11048753Y-10029222D01*
X11048753Y-10029222D02*
X11058277Y-10010174D01*
X11058277Y-10010174D02*
X11077325Y-10000650D01*
X11077325Y-10000650D02*
X11115420Y-10000650D01*
X11115420Y-10000650D02*
X11134468Y-10010174D01*
X11134468Y-10010174D02*
X11143992Y-10029222D01*
X11143992Y-10029222D02*
X11143992Y-10048270D01*
X11143992Y-10048270D02*
X11048753Y-10067317D01*
X11220182Y-10124460D02*
X11239230Y-10133984D01*
X11239230Y-10133984D02*
X11277325Y-10133984D01*
X11277325Y-10133984D02*
X11296372Y-10124460D01*
X11296372Y-10124460D02*
X11305896Y-10105412D01*
X11305896Y-10105412D02*
X11305896Y-10095889D01*
X11305896Y-10095889D02*
X11296372Y-10076841D01*
X11296372Y-10076841D02*
X11277325Y-10067317D01*
X11277325Y-10067317D02*
X11248753Y-10067317D01*
X11248753Y-10067317D02*
X11229706Y-10057793D01*
X11229706Y-10057793D02*
X11220182Y-10038746D01*
X11220182Y-10038746D02*
X11220182Y-10029222D01*
X11220182Y-10029222D02*
X11229706Y-10010174D01*
X11229706Y-10010174D02*
X11248753Y-10000650D01*
X11248753Y-10000650D02*
X11277325Y-10000650D01*
X11277325Y-10000650D02*
X11296372Y-10010174D01*
X11372563Y-10210174D02*
X11382087Y-10200650D01*
X11382087Y-10200650D02*
X11401134Y-10172079D01*
X11401134Y-10172079D02*
X11410658Y-10153031D01*
X11410658Y-10153031D02*
X11420182Y-10124460D01*
X11420182Y-10124460D02*
X11429706Y-10076841D01*
X11429706Y-10076841D02*
X11429706Y-10038746D01*
X11429706Y-10038746D02*
X11420182Y-9991127D01*
X11420182Y-9991127D02*
X11410658Y-9962555D01*
X11410658Y-9962555D02*
X11401134Y-9943508D01*
X11401134Y-9943508D02*
X11382087Y-9914936D01*
X11382087Y-9914936D02*
X11372563Y-9905412D01*
X11734468Y-10210174D02*
X11724944Y-10200650D01*
X11724944Y-10200650D02*
X11705896Y-10172079D01*
X11705896Y-10172079D02*
X11696372Y-10153031D01*
X11696372Y-10153031D02*
X11686849Y-10124460D01*
X11686849Y-10124460D02*
X11677325Y-10076841D01*
X11677325Y-10076841D02*
X11677325Y-10038746D01*
X11677325Y-10038746D02*
X11686849Y-9991127D01*
X11686849Y-9991127D02*
X11696372Y-9962555D01*
X11696372Y-9962555D02*
X11705896Y-9943508D01*
X11705896Y-9943508D02*
X11724944Y-9914936D01*
X11724944Y-9914936D02*
X11734468Y-9905412D01*
X11810658Y-10000650D02*
X11810658Y-10133984D01*
X11810658Y-10019698D02*
X11820182Y-10010174D01*
X11820182Y-10010174D02*
X11839230Y-10000650D01*
X11839230Y-10000650D02*
X11867801Y-10000650D01*
X11867801Y-10000650D02*
X11886849Y-10010174D01*
X11886849Y-10010174D02*
X11896372Y-10029222D01*
X11896372Y-10029222D02*
X11896372Y-10133984D01*
X12020182Y-10133984D02*
X12001134Y-10124460D01*
X12001134Y-10124460D02*
X11991611Y-10114936D01*
X11991611Y-10114936D02*
X11982087Y-10095889D01*
X11982087Y-10095889D02*
X11982087Y-10038746D01*
X11982087Y-10038746D02*
X11991611Y-10019698D01*
X11991611Y-10019698D02*
X12001134Y-10010174D01*
X12001134Y-10010174D02*
X12020182Y-10000650D01*
X12020182Y-10000650D02*
X12048753Y-10000650D01*
X12048753Y-10000650D02*
X12067801Y-10010174D01*
X12067801Y-10010174D02*
X12077325Y-10019698D01*
X12077325Y-10019698D02*
X12086849Y-10038746D01*
X12086849Y-10038746D02*
X12086849Y-10095889D01*
X12086849Y-10095889D02*
X12077325Y-10114936D01*
X12077325Y-10114936D02*
X12067801Y-10124460D01*
X12067801Y-10124460D02*
X12048753Y-10133984D01*
X12048753Y-10133984D02*
X12020182Y-10133984D01*
X12143992Y-10000650D02*
X12220182Y-10000650D01*
X12172563Y-9933984D02*
X12172563Y-10105412D01*
X12172563Y-10105412D02*
X12182087Y-10124460D01*
X12182087Y-10124460D02*
X12201134Y-10133984D01*
X12201134Y-10133984D02*
X12220182Y-10133984D01*
X12439230Y-10000650D02*
X12439230Y-10200650D01*
X12439230Y-10010174D02*
X12458277Y-10000650D01*
X12458277Y-10000650D02*
X12496373Y-10000650D01*
X12496373Y-10000650D02*
X12515420Y-10010174D01*
X12515420Y-10010174D02*
X12524944Y-10019698D01*
X12524944Y-10019698D02*
X12534468Y-10038746D01*
X12534468Y-10038746D02*
X12534468Y-10095889D01*
X12534468Y-10095889D02*
X12524944Y-10114936D01*
X12524944Y-10114936D02*
X12515420Y-10124460D01*
X12515420Y-10124460D02*
X12496373Y-10133984D01*
X12496373Y-10133984D02*
X12458277Y-10133984D01*
X12458277Y-10133984D02*
X12439230Y-10124460D01*
X12648753Y-10133984D02*
X12629706Y-10124460D01*
X12629706Y-10124460D02*
X12620182Y-10105412D01*
X12620182Y-10105412D02*
X12620182Y-9933984D01*
X12810658Y-10133984D02*
X12810658Y-10029222D01*
X12810658Y-10029222D02*
X12801134Y-10010174D01*
X12801134Y-10010174D02*
X12782087Y-10000650D01*
X12782087Y-10000650D02*
X12743992Y-10000650D01*
X12743992Y-10000650D02*
X12724944Y-10010174D01*
X12810658Y-10124460D02*
X12791611Y-10133984D01*
X12791611Y-10133984D02*
X12743992Y-10133984D01*
X12743992Y-10133984D02*
X12724944Y-10124460D01*
X12724944Y-10124460D02*
X12715420Y-10105412D01*
X12715420Y-10105412D02*
X12715420Y-10086365D01*
X12715420Y-10086365D02*
X12724944Y-10067317D01*
X12724944Y-10067317D02*
X12743992Y-10057793D01*
X12743992Y-10057793D02*
X12791611Y-10057793D01*
X12791611Y-10057793D02*
X12810658Y-10048270D01*
X12877325Y-10000650D02*
X12953515Y-10000650D01*
X12905896Y-9933984D02*
X12905896Y-10105412D01*
X12905896Y-10105412D02*
X12915420Y-10124460D01*
X12915420Y-10124460D02*
X12934468Y-10133984D01*
X12934468Y-10133984D02*
X12953515Y-10133984D01*
X13096373Y-10124460D02*
X13077325Y-10133984D01*
X13077325Y-10133984D02*
X13039230Y-10133984D01*
X13039230Y-10133984D02*
X13020182Y-10124460D01*
X13020182Y-10124460D02*
X13010658Y-10105412D01*
X13010658Y-10105412D02*
X13010658Y-10029222D01*
X13010658Y-10029222D02*
X13020182Y-10010174D01*
X13020182Y-10010174D02*
X13039230Y-10000650D01*
X13039230Y-10000650D02*
X13077325Y-10000650D01*
X13077325Y-10000650D02*
X13096373Y-10010174D01*
X13096373Y-10010174D02*
X13105896Y-10029222D01*
X13105896Y-10029222D02*
X13105896Y-10048270D01*
X13105896Y-10048270D02*
X13010658Y-10067317D01*
X13277325Y-10133984D02*
X13277325Y-9933984D01*
X13277325Y-10124460D02*
X13258277Y-10133984D01*
X13258277Y-10133984D02*
X13220182Y-10133984D01*
X13220182Y-10133984D02*
X13201134Y-10124460D01*
X13201134Y-10124460D02*
X13191611Y-10114936D01*
X13191611Y-10114936D02*
X13182087Y-10095889D01*
X13182087Y-10095889D02*
X13182087Y-10038746D01*
X13182087Y-10038746D02*
X13191611Y-10019698D01*
X13191611Y-10019698D02*
X13201134Y-10010174D01*
X13201134Y-10010174D02*
X13220182Y-10000650D01*
X13220182Y-10000650D02*
X13258277Y-10000650D01*
X13258277Y-10000650D02*
X13277325Y-10010174D01*
X13353515Y-10210174D02*
X13363039Y-10200650D01*
X13363039Y-10200650D02*
X13382087Y-10172079D01*
X13382087Y-10172079D02*
X13391611Y-10153031D01*
X13391611Y-10153031D02*
X13401134Y-10124460D01*
X13401134Y-10124460D02*
X13410658Y-10076841D01*
X13410658Y-10076841D02*
X13410658Y-10038746D01*
X13410658Y-10038746D02*
X13401134Y-9991127D01*
X13401134Y-9991127D02*
X13391611Y-9962555D01*
X13391611Y-9962555D02*
X13382087Y-9943508D01*
X13382087Y-9943508D02*
X13363039Y-9914936D01*
X13363039Y-9914936D02*
X13353515Y-9905412D01*
M02*
