%TF.GenerationSoftware,KiCad,Pcbnew,9.0.5*%
%TF.CreationDate,2026-04-17T23:00:23+01:00*%
%TF.ProjectId,Smart_Fan_Controller,536d6172-745f-4466-916e-5f436f6e7472,rev?*%
%TF.SameCoordinates,Original*%
%TF.FileFunction,Copper,L1,Top*%
%TF.FilePolarity,Positive*%
%FSLAX46Y46*%
G04 Gerber Fmt 4.6, Leading zero omitted, Abs format (unit mm)*
G04 Created by KiCad (PCBNEW 9.0.5) date 2026-04-17 23:00:23*
%MOMM*%
%LPD*%
G01*
G04 APERTURE LIST*
G04 Aperture macros list*
%AMRoundRect*
0 Rectangle with rounded corners*
0 $1 Rounding radius*
0 $2 $3 $4 $5 $6 $7 $8 $9 X,Y pos of 4 corners*
0 Add a 4 corners polygon primitive as box body*
4,1,4,$2,$3,$4,$5,$6,$7,$8,$9,$2,$3,0*
0 Add four circle primitives for the rounded corners*
1,1,$1+$1,$2,$3*
1,1,$1+$1,$4,$5*
1,1,$1+$1,$6,$7*
1,1,$1+$1,$8,$9*
0 Add four rect primitives between the rounded corners*
20,1,$1+$1,$2,$3,$4,$5,0*
20,1,$1+$1,$4,$5,$6,$7,0*
20,1,$1+$1,$6,$7,$8,$9,0*
20,1,$1+$1,$8,$9,$2,$3,0*%
G04 Aperture macros list end*
%TA.AperFunction,SMDPad,CuDef*%
%ADD10R,2.700000X3.600000*%
%TD*%
%TA.AperFunction,SMDPad,CuDef*%
%ADD11RoundRect,0.250000X0.475000X-0.250000X0.475000X0.250000X-0.475000X0.250000X-0.475000X-0.250000X0*%
%TD*%
%TA.AperFunction,ComponentPad*%
%ADD12RoundRect,0.250001X-1.149999X-1.149999X1.149999X-1.149999X1.149999X1.149999X-1.149999X1.149999X0*%
%TD*%
%TA.AperFunction,ComponentPad*%
%ADD13C,2.800000*%
%TD*%
%TA.AperFunction,SMDPad,CuDef*%
%ADD14RoundRect,0.250000X0.250000X0.475000X-0.250000X0.475000X-0.250000X-0.475000X0.250000X-0.475000X0*%
%TD*%
%TA.AperFunction,ComponentPad*%
%ADD15RoundRect,0.250001X1.149999X1.149999X-1.149999X1.149999X-1.149999X-1.149999X1.149999X-1.149999X0*%
%TD*%
%TA.AperFunction,SMDPad,CuDef*%
%ADD16RoundRect,0.250000X0.650000X-1.000000X0.650000X1.000000X-0.650000X1.000000X-0.650000X-1.000000X0*%
%TD*%
%TA.AperFunction,SMDPad,CuDef*%
%ADD17RoundRect,0.237500X-0.250000X-0.237500X0.250000X-0.237500X0.250000X0.237500X-0.250000X0.237500X0*%
%TD*%
%TA.AperFunction,SMDPad,CuDef*%
%ADD18RoundRect,0.250000X0.350000X-0.450000X0.350000X0.450000X-0.350000X0.450000X-0.350000X-0.450000X0*%
%TD*%
%TA.AperFunction,SMDPad,CuDef*%
%ADD19RoundRect,0.250000X-2.050000X-0.300000X2.050000X-0.300000X2.050000X0.300000X-2.050000X0.300000X0*%
%TD*%
%TA.AperFunction,SMDPad,CuDef*%
%ADD20RoundRect,0.250002X-4.449998X-5.149998X4.449998X-5.149998X4.449998X5.149998X-4.449998X5.149998X0*%
%TD*%
%TA.AperFunction,ComponentPad*%
%ADD21R,1.800000X1.800000*%
%TD*%
%TA.AperFunction,ComponentPad*%
%ADD22C,1.800000*%
%TD*%
%TA.AperFunction,ComponentPad*%
%ADD23C,2.000000*%
%TD*%
%TA.AperFunction,SMDPad,CuDef*%
%ADD24RoundRect,0.237500X0.237500X-0.250000X0.237500X0.250000X-0.237500X0.250000X-0.237500X-0.250000X0*%
%TD*%
%TA.AperFunction,ComponentPad*%
%ADD25R,1.905000X2.000000*%
%TD*%
%TA.AperFunction,ComponentPad*%
%ADD26O,1.905000X2.000000*%
%TD*%
%TA.AperFunction,ComponentPad*%
%ADD27RoundRect,0.249999X-0.850001X0.850001X-0.850001X-0.850001X0.850001X-0.850001X0.850001X0.850001X0*%
%TD*%
%TA.AperFunction,ComponentPad*%
%ADD28C,2.200000*%
%TD*%
%TA.AperFunction,SMDPad,CuDef*%
%ADD29RoundRect,0.250000X-0.475000X0.250000X-0.475000X-0.250000X0.475000X-0.250000X0.475000X0.250000X0*%
%TD*%
%TA.AperFunction,ComponentPad*%
%ADD30C,1.440000*%
%TD*%
%TA.AperFunction,SMDPad,CuDef*%
%ADD31RoundRect,0.137500X-0.600000X-0.137500X0.600000X-0.137500X0.600000X0.137500X-0.600000X0.137500X0*%
%TD*%
%TA.AperFunction,SMDPad,CuDef*%
%ADD32RoundRect,0.137500X-0.137500X-0.600000X0.137500X-0.600000X0.137500X0.600000X-0.137500X0.600000X0*%
%TD*%
%TA.AperFunction,ComponentPad*%
%ADD33R,3.500000X3.500000*%
%TD*%
%TA.AperFunction,ComponentPad*%
%ADD34RoundRect,0.750000X0.750000X1.000000X-0.750000X1.000000X-0.750000X-1.000000X0.750000X-1.000000X0*%
%TD*%
%TA.AperFunction,ComponentPad*%
%ADD35RoundRect,0.875000X0.875000X0.875000X-0.875000X0.875000X-0.875000X-0.875000X0.875000X-0.875000X0*%
%TD*%
%TA.AperFunction,SMDPad,CuDef*%
%ADD36RoundRect,0.250000X-0.250000X-0.475000X0.250000X-0.475000X0.250000X0.475000X-0.250000X0.475000X0*%
%TD*%
%TA.AperFunction,ViaPad*%
%ADD37C,0.600000*%
%TD*%
%TA.AperFunction,Conductor*%
%ADD38C,0.200000*%
%TD*%
G04 APERTURE END LIST*
D10*
%TO.P,L1,1,1*%
%TO.N,Net-(D4-K)*%
X112600000Y-86250000D03*
%TO.P,L1,2,2*%
%TO.N,+5V*%
X120900000Y-86250000D03*
%TD*%
D11*
%TO.P,C6,1*%
%TO.N,GND*%
X109750000Y-70950000D03*
%TO.P,C6,2*%
%TO.N,+5V*%
X109750000Y-69050000D03*
%TD*%
D12*
%TO.P,J2,1,Pin_1*%
%TO.N,+12V*%
X117750000Y-46967500D03*
D13*
%TO.P,J2,2,Pin_2*%
%TO.N,Net-(D1-K)*%
X122750000Y-46967500D03*
%TD*%
D14*
%TO.P,C2,1*%
%TO.N,Net-(U4-XTAL2{slash}PB7)*%
X90561200Y-74549000D03*
%TO.P,C2,2*%
%TO.N,GND*%
X88661200Y-74549000D03*
%TD*%
D15*
%TO.P,J3,1,Pin_1*%
%TO.N,Net-(J3-MISO)*%
X101000000Y-87000000D03*
D13*
%TO.P,J3,2,Pin_2*%
%TO.N,+5V*%
X96000000Y-87000000D03*
%TO.P,J3,3,Pin_3*%
%TO.N,Net-(J3-SCK)*%
X91000000Y-87000000D03*
%TO.P,J3,4,Pin_4*%
%TO.N,Net-(J3-MOSI)*%
X86000000Y-87000000D03*
%TO.P,J3,5,Pin_5*%
%TO.N,Net-(J3-RESET)*%
X81000000Y-87000000D03*
%TO.P,J3,6,Pin_6*%
%TO.N,GND*%
X76000000Y-87000000D03*
%TD*%
D16*
%TO.P,D4,1,K*%
%TO.N,Net-(D4-K)*%
X108250000Y-78250000D03*
%TO.P,D4,2,A*%
%TO.N,GND*%
X108250000Y-74250000D03*
%TD*%
D17*
%TO.P,R1,1*%
%TO.N,+5V*%
X81891500Y-57150000D03*
%TO.P,R1,2*%
%TO.N,Net-(D2-A)*%
X83716500Y-57150000D03*
%TD*%
D14*
%TO.P,C7,1*%
%TO.N,+12V*%
X107950000Y-60000000D03*
%TO.P,C7,2*%
%TO.N,GND*%
X106050000Y-60000000D03*
%TD*%
D17*
%TO.P,R4,1*%
%TO.N,Net-(Q1-G)*%
X80367500Y-63500000D03*
%TO.P,R4,2*%
%TO.N,GND*%
X82192500Y-63500000D03*
%TD*%
D18*
%TO.P,Y1,1,1*%
%TO.N,Net-(U4-XTAL2{slash}PB7)*%
X90240000Y-71250000D03*
%TO.P,Y1,2,2*%
%TO.N,Net-(U4-XTAL1{slash}PB6)*%
X90240000Y-69050000D03*
%TO.P,Y1,3*%
%TO.N,N/C*%
X88540000Y-69050000D03*
%TO.P,Y1,4*%
X88540000Y-71250000D03*
%TD*%
D19*
%TO.P,U1,1,VIN*%
%TO.N,+12V*%
X113850000Y-69600000D03*
%TO.P,U1,2,OUT*%
%TO.N,Net-(D4-K)*%
X113850000Y-71300000D03*
%TO.P,U1,3,GND*%
%TO.N,GND*%
X113850000Y-73000000D03*
D20*
X123000000Y-73000000D03*
D19*
%TO.P,U1,4,FB*%
%TO.N,+5V*%
X113850000Y-74700000D03*
%TO.P,U1,5,~{ON}/OFF*%
%TO.N,GND*%
X113850000Y-76400000D03*
%TD*%
D21*
%TO.P,D3,1,K*%
%TO.N,GND*%
X73660000Y-68580000D03*
D22*
%TO.P,D3,2,A*%
%TO.N,Net-(D3-A)*%
X73660000Y-66040000D03*
%TD*%
D17*
%TO.P,R3,1*%
%TO.N,Net-(U4-PD6)*%
X85280000Y-63500000D03*
%TO.P,R3,2*%
%TO.N,Net-(Q1-G)*%
X87105000Y-63500000D03*
%TD*%
D23*
%TO.P,SW2,1,1*%
%TO.N,Net-(R5-Pad1)*%
X70410000Y-73950000D03*
X76910000Y-73950000D03*
%TO.P,SW2,2,2*%
%TO.N,GND*%
X70410000Y-78450000D03*
X76910000Y-78450000D03*
%TD*%
D24*
%TO.P,R6,1*%
%TO.N,Net-(J3-RESET)*%
X100330000Y-55880000D03*
%TO.P,R6,2*%
%TO.N,+5V*%
X100330000Y-54055000D03*
%TD*%
D17*
%TO.P,R2,1*%
%TO.N,Net-(D3-A)*%
X82399500Y-59690000D03*
%TO.P,R2,2*%
%TO.N,Net-(Q1-G)*%
X84224500Y-59690000D03*
%TD*%
D21*
%TO.P,D2,1,K*%
%TO.N,GND*%
X73660000Y-60580000D03*
D22*
%TO.P,D2,2,A*%
%TO.N,Net-(D2-A)*%
X73660000Y-58040000D03*
%TD*%
D14*
%TO.P,C1,1*%
%TO.N,Net-(U4-XTAL1{slash}PB6)*%
X86643000Y-66929800D03*
%TO.P,C1,2*%
%TO.N,GND*%
X84743000Y-66929800D03*
%TD*%
D25*
%TO.P,Q1,1,D*%
%TO.N,Net-(D1-K)*%
X96520000Y-46040000D03*
D26*
%TO.P,Q1,2,G*%
%TO.N,Net-(Q1-G)*%
X93980000Y-46040000D03*
%TO.P,Q1,3,S*%
%TO.N,GND*%
X91440000Y-46040000D03*
%TD*%
D27*
%TO.P,D1,1,K*%
%TO.N,Net-(D1-K)*%
X109220000Y-44450000D03*
D28*
%TO.P,D1,2,A*%
%TO.N,+12V*%
X109220000Y-54610000D03*
%TD*%
D29*
%TO.P,C5,1*%
%TO.N,GND*%
X91540000Y-64100000D03*
%TO.P,C5,2*%
%TO.N,+5V*%
X91540000Y-66000000D03*
%TD*%
D24*
%TO.P,R5,1*%
%TO.N,Net-(R5-Pad1)*%
X81762600Y-69035300D03*
%TO.P,R5,2*%
%TO.N,+5V*%
X81762600Y-67210300D03*
%TD*%
D30*
%TO.P,RV1,1,1*%
%TO.N,+5V*%
X75460000Y-51540000D03*
%TO.P,RV1,2,2*%
%TO.N,Net-(U4-PC1)*%
X78000000Y-49000000D03*
%TO.P,RV1,3,3*%
%TO.N,GND*%
X75460000Y-46460000D03*
%TD*%
D31*
%TO.P,U4,1,PD3*%
%TO.N,unconnected-(U4-PD3-Pad1)*%
X94377500Y-64250000D03*
%TO.P,U4,2,PD4*%
%TO.N,unconnected-(U4-PD4-Pad2)*%
X94377500Y-65050000D03*
%TO.P,U4,3,GND*%
%TO.N,GND*%
X94377500Y-65850000D03*
%TO.P,U4,4,VCC*%
%TO.N,+5V*%
X94377500Y-66650000D03*
%TO.P,U4,5,GND*%
%TO.N,GND*%
X94377500Y-67450000D03*
%TO.P,U4,6,VCC*%
%TO.N,+5V*%
X94377500Y-68250000D03*
%TO.P,U4,7,XTAL1/PB6*%
%TO.N,Net-(U4-XTAL1{slash}PB6)*%
X94377500Y-69050000D03*
%TO.P,U4,8,XTAL2/PB7*%
%TO.N,Net-(U4-XTAL2{slash}PB7)*%
X94377500Y-69850000D03*
D32*
%TO.P,U4,9,PD5*%
%TO.N,unconnected-(U4-PD5-Pad9)*%
X95740000Y-71212500D03*
%TO.P,U4,10,PD6*%
%TO.N,Net-(U4-PD6)*%
X96540000Y-71212500D03*
%TO.P,U4,11,PD7*%
%TO.N,unconnected-(U4-PD7-Pad11)*%
X97340000Y-71212500D03*
%TO.P,U4,12,PB0*%
%TO.N,unconnected-(U4-PB0-Pad12)*%
X98140000Y-71212500D03*
%TO.P,U4,13,PB1*%
%TO.N,unconnected-(U4-PB1-Pad13)*%
X98940000Y-71212500D03*
%TO.P,U4,14,PB2*%
%TO.N,unconnected-(U4-PB2-Pad14)*%
X99740000Y-71212500D03*
%TO.P,U4,15,PB3*%
%TO.N,Net-(J3-MOSI)*%
X100540000Y-71212500D03*
%TO.P,U4,16,PB4*%
%TO.N,Net-(J3-MISO)*%
X101340000Y-71212500D03*
D31*
%TO.P,U4,17,PB5*%
%TO.N,Net-(J3-SCK)*%
X102702500Y-69850000D03*
%TO.P,U4,18,AVCC*%
%TO.N,+5V*%
X102702500Y-69050000D03*
%TO.P,U4,19,ADC6*%
%TO.N,unconnected-(U4-ADC6-Pad19)*%
X102702500Y-68250000D03*
%TO.P,U4,20,AREF*%
%TO.N,unconnected-(U4-AREF-Pad20)*%
X102702500Y-67450000D03*
%TO.P,U4,21,GND*%
%TO.N,GND*%
X102702500Y-66650000D03*
%TO.P,U4,22,ADC7*%
%TO.N,unconnected-(U4-ADC7-Pad22)*%
X102702500Y-65850000D03*
%TO.P,U4,23,PC0*%
%TO.N,Net-(U3-V_{OUT})*%
X102702500Y-65050000D03*
%TO.P,U4,24,PC1*%
%TO.N,Net-(U4-PC1)*%
X102702500Y-64250000D03*
D32*
%TO.P,U4,25,PC2*%
%TO.N,unconnected-(U4-PC2-Pad25)*%
X101340000Y-62887500D03*
%TO.P,U4,26,PC3*%
%TO.N,unconnected-(U4-PC3-Pad26)*%
X100540000Y-62887500D03*
%TO.P,U4,27,PC4*%
%TO.N,unconnected-(U4-PC4-Pad27)*%
X99740000Y-62887500D03*
%TO.P,U4,28,PC5*%
%TO.N,unconnected-(U4-PC5-Pad28)*%
X98940000Y-62887500D03*
%TO.P,U4,29,~{RESET}/PC6*%
%TO.N,Net-(J3-RESET)*%
X98140000Y-62887500D03*
%TO.P,U4,30,PD0*%
%TO.N,unconnected-(U4-PD0-Pad30)*%
X97340000Y-62887500D03*
%TO.P,U4,31,PD1*%
%TO.N,unconnected-(U4-PD1-Pad31)*%
X96540000Y-62887500D03*
%TO.P,U4,32,PD2*%
%TO.N,unconnected-(U4-PD2-Pad32)*%
X95740000Y-62887500D03*
%TD*%
D33*
%TO.P,J1,1*%
%TO.N,+12V*%
X112950000Y-60160000D03*
D34*
%TO.P,J1,2*%
%TO.N,GND*%
X118950000Y-60160000D03*
D35*
%TO.P,J1,3*%
%TO.N,N/C*%
X115950000Y-55460000D03*
%TD*%
D36*
%TO.P,C8,1*%
%TO.N,+5V*%
X106050000Y-64000000D03*
%TO.P,C8,2*%
%TO.N,GND*%
X107950000Y-64000000D03*
%TD*%
D25*
%TO.P,U3,1,+V_{S}*%
%TO.N,+5V*%
X90170000Y-57150000D03*
D26*
%TO.P,U3,2,GND*%
%TO.N,GND*%
X92710000Y-57150000D03*
%TO.P,U3,3,V_{OUT}*%
%TO.N,Net-(U3-V_{OUT})*%
X95250000Y-57150000D03*
%TD*%
D37*
%TO.N,GND*%
X100584000Y-60960000D03*
X93980000Y-50292000D03*
%TO.N,+5V*%
X108525000Y-70731837D03*
X110051000Y-74000000D03*
%TO.N,Net-(Q1-G)*%
X85750000Y-58164500D03*
%TO.N,Net-(U4-PD6)*%
X88888473Y-66600000D03*
X95859600Y-72669400D03*
X85547200Y-64516000D03*
X90022765Y-67162765D03*
%TO.N,Net-(U3-V_{OUT})*%
X101817185Y-61182815D03*
X104000000Y-65000000D03*
%TO.N,Net-(J3-RESET)*%
X99000000Y-59000000D03*
X100000000Y-57000000D03*
X97434400Y-61493400D03*
%TO.N,Net-(J3-MOSI)*%
X100540735Y-73616735D03*
X94234000Y-79839735D03*
%TO.N,Net-(J3-SCK)*%
X94234000Y-80772000D03*
X102743000Y-72263000D03*
%TD*%
D38*
%TO.N,Net-(U4-XTAL1{slash}PB6)*%
X92290000Y-69050000D02*
X90240000Y-69050000D01*
X86643000Y-66929800D02*
X88119800Y-66929800D01*
X94377500Y-69050000D02*
X92290000Y-69050000D01*
X88119800Y-66929800D02*
X90240000Y-69050000D01*
X86233000Y-66979800D02*
X86933000Y-66279800D01*
%TO.N,GND*%
X94938944Y-65850000D02*
X94377500Y-65850000D01*
%TO.N,Net-(U4-XTAL2{slash}PB7)*%
X90561200Y-71571200D02*
X90240000Y-71250000D01*
X94377500Y-69850000D02*
X91640000Y-69850000D01*
X90561200Y-74549000D02*
X90561200Y-71571200D01*
X91640000Y-69850000D02*
X90240000Y-71250000D01*
%TO.N,+12V*%
X114275000Y-69525000D02*
X112950000Y-68200000D01*
X108110000Y-60160000D02*
X107950000Y-60000000D01*
X117750000Y-46967500D02*
X116222500Y-46967500D01*
X112950000Y-60160000D02*
X108110000Y-60160000D01*
X109220000Y-54610000D02*
X109220000Y-58730000D01*
X112950000Y-68200000D02*
X112950000Y-60160000D01*
X109220000Y-58730000D02*
X107950000Y-60000000D01*
X116222500Y-46967500D02*
X108570000Y-54620000D01*
%TO.N,+5V*%
X116575000Y-74625000D02*
X114275000Y-74625000D01*
X96000000Y-87000000D02*
X95164000Y-86164000D01*
X106000000Y-69050000D02*
X109000000Y-69050000D01*
X96131528Y-69459528D02*
X96148472Y-69459528D01*
X92540000Y-66650000D02*
X94377500Y-66650000D01*
X102702500Y-69050000D02*
X102478500Y-69274000D01*
X108525000Y-70731837D02*
X108525000Y-69525000D01*
X94377500Y-68250000D02*
X92740000Y-68250000D01*
X116876000Y-77876000D02*
X120900000Y-81900000D01*
X106050000Y-69000000D02*
X106000000Y-69050000D01*
X81891500Y-57150000D02*
X81070000Y-57150000D01*
X91890000Y-66000000D02*
X92540000Y-66650000D01*
X81070000Y-57150000D02*
X75460000Y-51540000D01*
X120900000Y-81900000D02*
X120900000Y-86250000D01*
X89394000Y-56374000D02*
X82667500Y-56374000D01*
X100610000Y-53775000D02*
X100330000Y-54055000D01*
X90170000Y-64630000D02*
X91540000Y-66000000D01*
X90170000Y-57150000D02*
X89394000Y-56374000D01*
X96738944Y-70050000D02*
X96148472Y-69459528D01*
X106050000Y-64000000D02*
X106050000Y-69000000D01*
X110751000Y-74700000D02*
X110051000Y-74000000D01*
X113850000Y-74700000D02*
X110751000Y-74700000D01*
X95164000Y-70427056D02*
X96131528Y-69459528D01*
X82667500Y-56374000D02*
X81891500Y-57150000D01*
X102702500Y-69050000D02*
X106000000Y-69050000D01*
X83211134Y-65761766D02*
X89038234Y-65761766D01*
X109000000Y-69050000D02*
X109750000Y-69050000D01*
X101917056Y-69274000D02*
X101664000Y-69527056D01*
X116876000Y-74926000D02*
X116575000Y-74625000D01*
X103632000Y-54283000D02*
X103632000Y-61582000D01*
X90170000Y-57150000D02*
X90170000Y-64630000D01*
X108525000Y-69525000D02*
X109000000Y-69050000D01*
X89038234Y-65761766D02*
X90170000Y-64630000D01*
X103124000Y-53775000D02*
X100610000Y-53775000D01*
X102478500Y-69274000D02*
X101917056Y-69274000D01*
X95164000Y-86164000D02*
X95164000Y-70427056D01*
X92540000Y-68050000D02*
X92540000Y-66650000D01*
X92740000Y-68250000D02*
X92540000Y-68050000D01*
X103632000Y-61582000D02*
X106050000Y-64000000D01*
X94938944Y-68250000D02*
X94377500Y-68250000D01*
X116876000Y-74926000D02*
X116876000Y-77876000D01*
X96148472Y-69459528D02*
X94938944Y-68250000D01*
X91540000Y-66000000D02*
X91890000Y-66000000D01*
X101664000Y-70050000D02*
X96738944Y-70050000D01*
X103124000Y-53775000D02*
X103632000Y-54283000D01*
X101664000Y-69527056D02*
X101664000Y-70050000D01*
X81762600Y-67210300D02*
X83211134Y-65761766D01*
%TO.N,Net-(D1-K)*%
X98110000Y-44450000D02*
X96520000Y-46040000D01*
X106030000Y-44460000D02*
X120242500Y-44460000D01*
X120242500Y-44460000D02*
X122750000Y-46967500D01*
X109220000Y-44450000D02*
X98110000Y-44450000D01*
%TO.N,Net-(Q1-G)*%
X84224500Y-59690000D02*
X85750000Y-58164500D01*
X80414500Y-63500000D02*
X84224500Y-59690000D01*
X87105000Y-62570500D02*
X84224500Y-59690000D01*
X87105000Y-63500000D02*
X87105000Y-62570500D01*
X80367500Y-63500000D02*
X80414500Y-63500000D01*
%TO.N,Net-(U4-PD6)*%
X96540000Y-71989000D02*
X95859600Y-72669400D01*
X96540000Y-71212500D02*
X96540000Y-71989000D01*
X85547200Y-64516000D02*
X85547200Y-63767200D01*
X89451238Y-67162765D02*
X88888473Y-66600000D01*
X85547200Y-63767200D02*
X85280000Y-63500000D01*
X90022765Y-67162765D02*
X89451238Y-67162765D01*
%TO.N,Net-(R5-Pad1)*%
X76910000Y-73950000D02*
X81762600Y-69097400D01*
X70410000Y-73950000D02*
X76910000Y-73950000D01*
X81762600Y-69097400D02*
X81762600Y-69035300D01*
%TO.N,Net-(D2-A)*%
X82826500Y-58040000D02*
X73660000Y-58040000D01*
X83716500Y-57150000D02*
X82826500Y-58040000D01*
%TO.N,Net-(U4-PC1)*%
X102702500Y-61219600D02*
X90482900Y-49000000D01*
X102702500Y-64250000D02*
X102702500Y-61219600D01*
X90482900Y-49000000D02*
X78000000Y-49000000D01*
%TO.N,Net-(U3-V_{OUT})*%
X102752500Y-65000000D02*
X102702500Y-65050000D01*
X101817185Y-60901385D02*
X101817185Y-61182815D01*
X104000000Y-65000000D02*
X102752500Y-65000000D01*
X95250000Y-57150000D02*
X98065800Y-57150000D01*
X98065800Y-57150000D02*
X101817185Y-60901385D01*
%TO.N,Net-(D3-A)*%
X79200000Y-60500000D02*
X73660000Y-66040000D01*
X82399500Y-59690000D02*
X81589500Y-60500000D01*
X81589500Y-60500000D02*
X79200000Y-60500000D01*
%TO.N,Net-(D4-K)*%
X113850000Y-71300000D02*
X111550000Y-71300000D01*
X112600000Y-85100000D02*
X108250000Y-80750000D01*
X108250000Y-80750000D02*
X108250000Y-78250000D01*
X111550000Y-71300000D02*
X109451000Y-73399000D01*
X109451000Y-73399000D02*
X109451000Y-77049000D01*
X109451000Y-77049000D02*
X108250000Y-78250000D01*
X112600000Y-86250000D02*
X112600000Y-85100000D01*
%TO.N,Net-(J3-MISO)*%
X101340000Y-71212500D02*
X101340000Y-86660000D01*
X101340000Y-86660000D02*
X101000000Y-87000000D01*
%TO.N,Net-(J3-RESET)*%
X98018600Y-61493400D02*
X98140000Y-61614800D01*
X99000000Y-59927800D02*
X99000000Y-59000000D01*
X100330000Y-56670000D02*
X100000000Y-57000000D01*
X98140000Y-61614800D02*
X98140000Y-62887500D01*
X97434400Y-61493400D02*
X99000000Y-59927800D01*
X97434400Y-61493400D02*
X98018600Y-61493400D01*
X100330000Y-55880000D02*
X100330000Y-56670000D01*
%TO.N,Net-(J3-MOSI)*%
X93985057Y-80171000D02*
X93633000Y-80523057D01*
X90599000Y-83839900D02*
X90599000Y-83899000D01*
X90599000Y-83899000D02*
X87498000Y-87000000D01*
X94234000Y-80171000D02*
X93985057Y-80171000D01*
X100540735Y-73616735D02*
X100540735Y-73196735D01*
X100540000Y-73196000D02*
X100540000Y-71212500D01*
X100540735Y-73196735D02*
X100540000Y-73196000D01*
X94234000Y-79839735D02*
X94234000Y-80171000D01*
X93633000Y-80523057D02*
X93633000Y-80805900D01*
X87498000Y-87000000D02*
X86000000Y-87000000D01*
X93633000Y-80805900D02*
X90599000Y-83839900D01*
%TO.N,Net-(J3-SCK)*%
X102743000Y-72263000D02*
X102702500Y-72222500D01*
X91000000Y-87000000D02*
X91000000Y-84006000D01*
X91000000Y-84006000D02*
X94234000Y-80772000D01*
X102702500Y-72222500D02*
X102702500Y-69850000D01*
%TD*%
%TA.AperFunction,Conductor*%
%TO.N,GND*%
G36*
X99649287Y-59159698D02*
G01*
X99660316Y-59169487D01*
X101330973Y-60840144D01*
X101364458Y-60901467D01*
X101359474Y-60971159D01*
X101350944Y-60989264D01*
X101350793Y-60989629D01*
X101316685Y-61116923D01*
X101316685Y-61248706D01*
X101350793Y-61376002D01*
X101368209Y-61406167D01*
X101416685Y-61490129D01*
X101509871Y-61583315D01*
X101623999Y-61649207D01*
X101751293Y-61683315D01*
X101751295Y-61683315D01*
X101883075Y-61683315D01*
X101883077Y-61683315D01*
X102010371Y-61649207D01*
X102124499Y-61583315D01*
X102190319Y-61517495D01*
X102251642Y-61484010D01*
X102321334Y-61488994D01*
X102377267Y-61530866D01*
X102401684Y-61596330D01*
X102402000Y-61605176D01*
X102402000Y-63650500D01*
X102382315Y-63717539D01*
X102329511Y-63763294D01*
X102278001Y-63774500D01*
X102062895Y-63774500D01*
X102013674Y-63780980D01*
X102013665Y-63780982D01*
X101938974Y-63815812D01*
X101869896Y-63826304D01*
X101806112Y-63797784D01*
X101767873Y-63739307D01*
X101767319Y-63669440D01*
X101774181Y-63651039D01*
X101809019Y-63576330D01*
X101815500Y-63527103D01*
X101815499Y-62247898D01*
X101815497Y-62247886D01*
X101812721Y-62226800D01*
X101809019Y-62198670D01*
X101758644Y-62090641D01*
X101674359Y-62006356D01*
X101566330Y-61955981D01*
X101566328Y-61955980D01*
X101517113Y-61949501D01*
X101517108Y-61949500D01*
X101517103Y-61949500D01*
X101517096Y-61949500D01*
X101162895Y-61949500D01*
X101113674Y-61955980D01*
X101113666Y-61955982D01*
X100995809Y-62010941D01*
X100994496Y-62008126D01*
X100944905Y-62024845D01*
X100884751Y-62009739D01*
X100884191Y-62010941D01*
X100877954Y-62008032D01*
X100877139Y-62007828D01*
X100876144Y-62007189D01*
X100874360Y-62006357D01*
X100874359Y-62006356D01*
X100766330Y-61955981D01*
X100766328Y-61955980D01*
X100717113Y-61949501D01*
X100717108Y-61949500D01*
X100717103Y-61949500D01*
X100717096Y-61949500D01*
X100362895Y-61949500D01*
X100313674Y-61955980D01*
X100313666Y-61955982D01*
X100195809Y-62010941D01*
X100194496Y-62008126D01*
X100144905Y-62024845D01*
X100084751Y-62009739D01*
X100084191Y-62010941D01*
X100077954Y-62008032D01*
X100077139Y-62007828D01*
X100076144Y-62007189D01*
X100074360Y-62006357D01*
X100074359Y-62006356D01*
X99966330Y-61955981D01*
X99966328Y-61955980D01*
X99917113Y-61949501D01*
X99917108Y-61949500D01*
X99917103Y-61949500D01*
X99917096Y-61949500D01*
X99562895Y-61949500D01*
X99513674Y-61955980D01*
X99513666Y-61955982D01*
X99395809Y-62010941D01*
X99394496Y-62008126D01*
X99344905Y-62024845D01*
X99284751Y-62009739D01*
X99284191Y-62010941D01*
X99277954Y-62008032D01*
X99277139Y-62007828D01*
X99276144Y-62007189D01*
X99274360Y-62006357D01*
X99274359Y-62006356D01*
X99166330Y-61955981D01*
X99166328Y-61955980D01*
X99117113Y-61949501D01*
X99117108Y-61949500D01*
X99117103Y-61949500D01*
X99117096Y-61949500D01*
X98762895Y-61949500D01*
X98713674Y-61955980D01*
X98713665Y-61955982D01*
X98616905Y-62001103D01*
X98547827Y-62011595D01*
X98484043Y-61983075D01*
X98445804Y-61924599D01*
X98440500Y-61888721D01*
X98440500Y-61575240D01*
X98440499Y-61575235D01*
X98429174Y-61532970D01*
X98429172Y-61532962D01*
X98420022Y-61498812D01*
X98380460Y-61430289D01*
X98239151Y-61288980D01*
X98205666Y-61227657D01*
X98210650Y-61157965D01*
X98239149Y-61113621D01*
X99240460Y-60112311D01*
X99280022Y-60043788D01*
X99300500Y-59967362D01*
X99300500Y-59888238D01*
X99300500Y-59458676D01*
X99320185Y-59391637D01*
X99336819Y-59370995D01*
X99337664Y-59370150D01*
X99400500Y-59307314D01*
X99459066Y-59205875D01*
X99465248Y-59195168D01*
X99515815Y-59146952D01*
X99584422Y-59133730D01*
X99649287Y-59159698D01*
G37*
%TD.AperFunction*%
%TA.AperFunction,Conductor*%
G36*
X129442539Y-42520185D02*
G01*
X129488294Y-42572989D01*
X129499500Y-42624500D01*
X129499500Y-93375500D01*
X129479815Y-93442539D01*
X129427011Y-93488294D01*
X129375500Y-93499500D01*
X66624500Y-93499500D01*
X66557461Y-93479815D01*
X66511706Y-93427011D01*
X66500500Y-93375500D01*
X66500500Y-91918592D01*
X67173500Y-91918592D01*
X67173500Y-92081407D01*
X67205259Y-92241073D01*
X67205262Y-92241082D01*
X67267562Y-92391490D01*
X67267563Y-92391492D01*
X67358015Y-92526862D01*
X67358018Y-92526866D01*
X67473133Y-92641981D01*
X67473137Y-92641984D01*
X67608505Y-92732435D01*
X67608506Y-92732435D01*
X67608507Y-92732436D01*
X67608509Y-92732437D01*
X67708781Y-92773970D01*
X67758919Y-92794738D01*
X67758921Y-92794738D01*
X67758926Y-92794740D01*
X67918592Y-92826499D01*
X67918595Y-92826500D01*
X67918597Y-92826500D01*
X68081405Y-92826500D01*
X68081406Y-92826499D01*
X68134629Y-92815912D01*
X68241073Y-92794740D01*
X68241076Y-92794738D01*
X68241081Y-92794738D01*
X68391495Y-92732435D01*
X68526863Y-92641984D01*
X68641984Y-92526863D01*
X68732435Y-92391495D01*
X68794738Y-92241081D01*
X68826500Y-92081403D01*
X68826500Y-91918597D01*
X68826500Y-91918594D01*
X68826499Y-91918592D01*
X127173500Y-91918592D01*
X127173500Y-92081407D01*
X127205259Y-92241073D01*
X127205262Y-92241082D01*
X127267562Y-92391490D01*
X127267563Y-92391492D01*
X127358015Y-92526862D01*
X127358018Y-92526866D01*
X127473133Y-92641981D01*
X127473137Y-92641984D01*
X127608505Y-92732435D01*
X127608506Y-92732435D01*
X127608507Y-92732436D01*
X127608509Y-92732437D01*
X127708781Y-92773970D01*
X127758919Y-92794738D01*
X127758921Y-92794738D01*
X127758926Y-92794740D01*
X127918592Y-92826499D01*
X127918595Y-92826500D01*
X127918597Y-92826500D01*
X128081405Y-92826500D01*
X128081406Y-92826499D01*
X128134629Y-92815912D01*
X128241073Y-92794740D01*
X128241076Y-92794738D01*
X128241081Y-92794738D01*
X128391495Y-92732435D01*
X128526863Y-92641984D01*
X128641984Y-92526863D01*
X128732435Y-92391495D01*
X128794738Y-92241081D01*
X128826500Y-92081403D01*
X128826500Y-91918597D01*
X128826500Y-91918594D01*
X128826499Y-91918592D01*
X128794740Y-91758926D01*
X128794737Y-91758917D01*
X128732437Y-91608509D01*
X128732436Y-91608507D01*
X128641984Y-91473137D01*
X128641981Y-91473133D01*
X128526866Y-91358018D01*
X128526862Y-91358015D01*
X128391492Y-91267563D01*
X128391490Y-91267562D01*
X128241082Y-91205262D01*
X128241073Y-91205259D01*
X128081406Y-91173500D01*
X128081403Y-91173500D01*
X127918597Y-91173500D01*
X127918594Y-91173500D01*
X127758926Y-91205259D01*
X127758917Y-91205262D01*
X127608509Y-91267562D01*
X127608507Y-91267563D01*
X127473137Y-91358015D01*
X127473133Y-91358018D01*
X127358018Y-91473133D01*
X127358015Y-91473137D01*
X127267563Y-91608507D01*
X127267562Y-91608509D01*
X127205262Y-91758917D01*
X127205259Y-91758926D01*
X127173500Y-91918592D01*
X68826499Y-91918592D01*
X68794740Y-91758926D01*
X68794737Y-91758917D01*
X68732437Y-91608509D01*
X68732436Y-91608507D01*
X68641984Y-91473137D01*
X68641981Y-91473133D01*
X68526866Y-91358018D01*
X68526862Y-91358015D01*
X68391492Y-91267563D01*
X68391490Y-91267562D01*
X68241082Y-91205262D01*
X68241073Y-91205259D01*
X68081406Y-91173500D01*
X68081403Y-91173500D01*
X67918597Y-91173500D01*
X67918594Y-91173500D01*
X67758926Y-91205259D01*
X67758917Y-91205262D01*
X67608509Y-91267562D01*
X67608507Y-91267563D01*
X67473137Y-91358015D01*
X67473133Y-91358018D01*
X67358018Y-91473133D01*
X67358015Y-91473137D01*
X67267563Y-91608507D01*
X67267562Y-91608509D01*
X67205262Y-91758917D01*
X67205259Y-91758926D01*
X67173500Y-91918592D01*
X66500500Y-91918592D01*
X66500500Y-86875466D01*
X74100000Y-86875466D01*
X74100000Y-87124533D01*
X74132508Y-87371463D01*
X74196973Y-87612049D01*
X74292283Y-87842148D01*
X74292288Y-87842159D01*
X74416813Y-88057841D01*
X74416819Y-88057849D01*
X74491400Y-88155045D01*
X75398958Y-87247487D01*
X75423978Y-87307890D01*
X75495112Y-87414351D01*
X75585649Y-87504888D01*
X75692110Y-87576022D01*
X75752511Y-87601041D01*
X74844953Y-88508598D01*
X74942150Y-88583180D01*
X74942158Y-88583186D01*
X75157840Y-88707711D01*
X75157851Y-88707716D01*
X75387950Y-88803026D01*
X75628536Y-88867491D01*
X75875466Y-88900000D01*
X76124534Y-88900000D01*
X76371463Y-88867491D01*
X76612049Y-88803026D01*
X76842148Y-88707716D01*
X76842159Y-88707711D01*
X77057855Y-88583178D01*
X77155045Y-88508600D01*
X77155045Y-88508597D01*
X76247488Y-87601041D01*
X76307890Y-87576022D01*
X76414351Y-87504888D01*
X76504888Y-87414351D01*
X76576022Y-87307890D01*
X76601041Y-87247488D01*
X77508597Y-88155045D01*
X77508600Y-88155045D01*
X77583178Y-88057855D01*
X77707711Y-87842159D01*
X77707716Y-87842148D01*
X77803026Y-87612049D01*
X77867491Y-87371463D01*
X77900000Y-87124533D01*
X77900000Y-86875475D01*
X77899998Y-86875456D01*
X77899811Y-86874038D01*
X79399500Y-86874038D01*
X79399500Y-87125961D01*
X79438910Y-87374785D01*
X79516760Y-87614383D01*
X79631132Y-87838848D01*
X79779201Y-88042649D01*
X79779205Y-88042654D01*
X79957345Y-88220794D01*
X79957350Y-88220798D01*
X79998232Y-88250500D01*
X80161155Y-88368870D01*
X80304184Y-88441747D01*
X80385616Y-88483239D01*
X80385618Y-88483239D01*
X80385621Y-88483241D01*
X80625215Y-88561090D01*
X80874038Y-88600500D01*
X80874039Y-88600500D01*
X81125961Y-88600500D01*
X81125962Y-88600500D01*
X81374785Y-88561090D01*
X81614379Y-88483241D01*
X81838845Y-88368870D01*
X82042656Y-88220793D01*
X82220793Y-88042656D01*
X82368870Y-87838845D01*
X82483241Y-87614379D01*
X82561090Y-87374785D01*
X82600500Y-87125962D01*
X82600500Y-86874038D01*
X82561090Y-86625215D01*
X82483241Y-86385621D01*
X82483239Y-86385618D01*
X82483239Y-86385616D01*
X82441747Y-86304184D01*
X82368870Y-86161155D01*
X82349952Y-86135117D01*
X82220798Y-85957350D01*
X82220794Y-85957345D01*
X82042654Y-85779205D01*
X82042649Y-85779201D01*
X81838848Y-85631132D01*
X81838847Y-85631131D01*
X81838845Y-85631130D01*
X81768747Y-85595413D01*
X81614383Y-85516760D01*
X81374785Y-85438910D01*
X81235334Y-85416823D01*
X81125962Y-85399500D01*
X80874038Y-85399500D01*
X80843859Y-85404280D01*
X80625214Y-85438910D01*
X80385616Y-85516760D01*
X80161151Y-85631132D01*
X79957350Y-85779201D01*
X79957345Y-85779205D01*
X79779205Y-85957345D01*
X79779201Y-85957350D01*
X79631132Y-86161151D01*
X79516760Y-86385616D01*
X79438910Y-86625214D01*
X79399500Y-86874038D01*
X77899811Y-86874038D01*
X77867491Y-86628536D01*
X77803026Y-86387950D01*
X77707716Y-86157851D01*
X77707711Y-86157840D01*
X77583186Y-85942158D01*
X77583180Y-85942150D01*
X77508598Y-85844953D01*
X76601041Y-86752510D01*
X76576022Y-86692110D01*
X76504888Y-86585649D01*
X76414351Y-86495112D01*
X76307890Y-86423978D01*
X76247487Y-86398957D01*
X77155045Y-85491400D01*
X77057849Y-85416819D01*
X77057841Y-85416813D01*
X76842159Y-85292288D01*
X76842148Y-85292283D01*
X76612049Y-85196973D01*
X76371463Y-85132508D01*
X76124534Y-85100000D01*
X75875466Y-85100000D01*
X75628536Y-85132508D01*
X75387950Y-85196973D01*
X75157851Y-85292283D01*
X75157847Y-85292285D01*
X74942143Y-85416823D01*
X74844953Y-85491399D01*
X74844953Y-85491400D01*
X75752511Y-86398958D01*
X75692110Y-86423978D01*
X75585649Y-86495112D01*
X75495112Y-86585649D01*
X75423978Y-86692110D01*
X75398958Y-86752511D01*
X74491400Y-85844953D01*
X74491399Y-85844953D01*
X74416823Y-85942143D01*
X74292285Y-86157847D01*
X74292283Y-86157851D01*
X74196973Y-86387950D01*
X74132508Y-86628536D01*
X74100000Y-86875466D01*
X66500500Y-86875466D01*
X66500500Y-78331947D01*
X68910000Y-78331947D01*
X68910000Y-78568052D01*
X68946934Y-78801247D01*
X69019897Y-79025802D01*
X69127087Y-79236174D01*
X69187338Y-79319104D01*
X69187340Y-79319105D01*
X69886212Y-78620233D01*
X69897482Y-78662292D01*
X69969890Y-78787708D01*
X70072292Y-78890110D01*
X70197708Y-78962518D01*
X70239765Y-78973787D01*
X69540893Y-79672658D01*
X69623828Y-79732914D01*
X69834197Y-79840102D01*
X70058752Y-79913065D01*
X70058751Y-79913065D01*
X70291948Y-79950000D01*
X70528052Y-79950000D01*
X70761247Y-79913065D01*
X70985802Y-79840102D01*
X71196163Y-79732918D01*
X71196169Y-79732914D01*
X71279104Y-79672658D01*
X71279105Y-79672658D01*
X70580233Y-78973787D01*
X70622292Y-78962518D01*
X70747708Y-78890110D01*
X70850110Y-78787708D01*
X70922518Y-78662292D01*
X70933787Y-78620234D01*
X71632658Y-79319105D01*
X71632658Y-79319104D01*
X71692914Y-79236169D01*
X71692918Y-79236163D01*
X71800102Y-79025802D01*
X71873065Y-78801247D01*
X71910000Y-78568052D01*
X71910000Y-78331947D01*
X75410000Y-78331947D01*
X75410000Y-78568052D01*
X75446934Y-78801247D01*
X75519897Y-79025802D01*
X75627087Y-79236174D01*
X75687338Y-79319104D01*
X75687340Y-79319105D01*
X76386212Y-78620233D01*
X76397482Y-78662292D01*
X76469890Y-78787708D01*
X76572292Y-78890110D01*
X76697708Y-78962518D01*
X76739765Y-78973787D01*
X76040893Y-79672658D01*
X76123828Y-79732914D01*
X76334197Y-79840102D01*
X76558752Y-79913065D01*
X76558751Y-79913065D01*
X76791948Y-79950000D01*
X77028052Y-79950000D01*
X77261247Y-79913065D01*
X77485802Y-79840102D01*
X77696163Y-79732918D01*
X77696169Y-79732914D01*
X77779104Y-79672658D01*
X77779105Y-79672658D01*
X77080233Y-78973787D01*
X77122292Y-78962518D01*
X77247708Y-78890110D01*
X77350110Y-78787708D01*
X77422518Y-78662292D01*
X77433787Y-78620234D01*
X78132658Y-79319105D01*
X78132658Y-79319104D01*
X78192914Y-79236169D01*
X78192918Y-79236163D01*
X78300102Y-79025802D01*
X78373065Y-78801247D01*
X78410000Y-78568052D01*
X78410000Y-78331947D01*
X78373065Y-78098752D01*
X78300102Y-77874197D01*
X78192914Y-77663828D01*
X78132658Y-77580894D01*
X78132658Y-77580893D01*
X77433787Y-78279765D01*
X77422518Y-78237708D01*
X77350110Y-78112292D01*
X77247708Y-78009890D01*
X77122292Y-77937482D01*
X77080234Y-77926212D01*
X77779105Y-77227340D01*
X77779104Y-77227338D01*
X77696174Y-77167087D01*
X77485802Y-77059897D01*
X77261247Y-76986934D01*
X77261248Y-76986934D01*
X77028052Y-76950000D01*
X76791948Y-76950000D01*
X76558752Y-76986934D01*
X76334197Y-77059897D01*
X76123830Y-77167084D01*
X76040894Y-77227340D01*
X76739766Y-77926212D01*
X76697708Y-77937482D01*
X76572292Y-78009890D01*
X76469890Y-78112292D01*
X76397482Y-78237708D01*
X76386212Y-78279766D01*
X75687340Y-77580894D01*
X75627084Y-77663830D01*
X75519897Y-77874197D01*
X75446934Y-78098752D01*
X75410000Y-78331947D01*
X71910000Y-78331947D01*
X71873065Y-78098752D01*
X71800102Y-77874197D01*
X71692914Y-77663828D01*
X71632658Y-77580894D01*
X71632658Y-77580893D01*
X70933787Y-78279765D01*
X70922518Y-78237708D01*
X70850110Y-78112292D01*
X70747708Y-78009890D01*
X70622292Y-77937482D01*
X70580234Y-77926212D01*
X71279105Y-77227340D01*
X71279104Y-77227339D01*
X71196174Y-77167087D01*
X70985802Y-77059897D01*
X70761247Y-76986934D01*
X70761248Y-76986934D01*
X70528052Y-76950000D01*
X70291948Y-76950000D01*
X70058752Y-76986934D01*
X69834197Y-77059897D01*
X69623830Y-77167084D01*
X69540894Y-77227340D01*
X70239766Y-77926212D01*
X70197708Y-77937482D01*
X70072292Y-78009890D01*
X69969890Y-78112292D01*
X69897482Y-78237708D01*
X69886212Y-78279766D01*
X69187340Y-77580894D01*
X69127084Y-77663830D01*
X69019897Y-77874197D01*
X68946934Y-78098752D01*
X68910000Y-78331947D01*
X66500500Y-78331947D01*
X66500500Y-73855513D01*
X69209500Y-73855513D01*
X69209500Y-74044486D01*
X69239059Y-74231118D01*
X69297454Y-74410836D01*
X69357825Y-74529320D01*
X69383240Y-74579199D01*
X69494310Y-74732073D01*
X69627927Y-74865690D01*
X69780801Y-74976760D01*
X69827394Y-75000500D01*
X69949163Y-75062545D01*
X69949165Y-75062545D01*
X69949168Y-75062547D01*
X70045497Y-75093846D01*
X70128881Y-75120940D01*
X70315514Y-75150500D01*
X70315519Y-75150500D01*
X70504486Y-75150500D01*
X70691118Y-75120940D01*
X70701788Y-75117473D01*
X70870832Y-75062547D01*
X71039199Y-74976760D01*
X71192073Y-74865690D01*
X71325690Y-74732073D01*
X71436760Y-74579199D01*
X71522547Y-74410832D01*
X71526399Y-74398978D01*
X71546803Y-74336182D01*
X71586241Y-74278506D01*
X71650599Y-74251308D01*
X71664734Y-74250500D01*
X75655266Y-74250500D01*
X75722305Y-74270185D01*
X75768060Y-74322989D01*
X75773197Y-74336182D01*
X75797451Y-74410829D01*
X75857825Y-74529320D01*
X75883240Y-74579199D01*
X75994310Y-74732073D01*
X76127927Y-74865690D01*
X76280801Y-74976760D01*
X76327394Y-75000500D01*
X76449163Y-75062545D01*
X76449165Y-75062545D01*
X76449168Y-75062547D01*
X76545497Y-75093846D01*
X76628881Y-75120940D01*
X76815514Y-75150500D01*
X76815519Y-75150500D01*
X77004486Y-75150500D01*
X77191118Y-75120940D01*
X77201788Y-75117473D01*
X77335627Y-75073986D01*
X87661201Y-75073986D01*
X87671694Y-75176697D01*
X87726841Y-75343119D01*
X87726843Y-75343124D01*
X87818884Y-75492345D01*
X87942854Y-75616315D01*
X88092075Y-75708356D01*
X88092080Y-75708358D01*
X88258502Y-75763505D01*
X88258509Y-75763506D01*
X88361219Y-75773999D01*
X88411199Y-75773998D01*
X88411200Y-75773998D01*
X88411200Y-74799000D01*
X87661201Y-74799000D01*
X87661201Y-75073986D01*
X77335627Y-75073986D01*
X77370832Y-75062547D01*
X77539199Y-74976760D01*
X77692073Y-74865690D01*
X77825690Y-74732073D01*
X77936760Y-74579199D01*
X78022547Y-74410832D01*
X78080940Y-74231118D01*
X78098421Y-74120747D01*
X78110500Y-74044486D01*
X78110500Y-74024013D01*
X87661200Y-74024013D01*
X87661200Y-74299000D01*
X88411200Y-74299000D01*
X88411200Y-73324000D01*
X88411199Y-73323999D01*
X88361229Y-73324000D01*
X88361211Y-73324001D01*
X88258502Y-73334494D01*
X88092080Y-73389641D01*
X88092075Y-73389643D01*
X87942854Y-73481684D01*
X87818884Y-73605654D01*
X87726843Y-73754875D01*
X87726841Y-73754880D01*
X87671694Y-73921302D01*
X87671693Y-73921309D01*
X87661200Y-74024013D01*
X78110500Y-74024013D01*
X78110500Y-73855513D01*
X78080940Y-73668881D01*
X78066194Y-73623500D01*
X78022547Y-73489168D01*
X77986910Y-73419228D01*
X77974015Y-73350561D01*
X78000291Y-73285820D01*
X78009706Y-73275263D01*
X81525352Y-69759619D01*
X81586675Y-69726134D01*
X81613033Y-69723300D01*
X82052860Y-69723300D01*
X82082449Y-69720525D01*
X82094366Y-69716355D01*
X82207075Y-69676916D01*
X82313311Y-69598511D01*
X82391716Y-69492275D01*
X82435325Y-69367649D01*
X82437254Y-69347082D01*
X82438100Y-69338060D01*
X82438100Y-68732539D01*
X82435325Y-68702950D01*
X82391715Y-68578323D01*
X82313311Y-68472089D01*
X82313310Y-68472088D01*
X82207076Y-68393684D01*
X82082448Y-68350074D01*
X82082449Y-68350074D01*
X82052860Y-68347300D01*
X82052856Y-68347300D01*
X81472344Y-68347300D01*
X81472340Y-68347300D01*
X81442750Y-68350074D01*
X81318123Y-68393684D01*
X81211889Y-68472088D01*
X81211888Y-68472089D01*
X81133484Y-68578323D01*
X81089874Y-68702950D01*
X81087100Y-68732539D01*
X81087100Y-69296566D01*
X81067415Y-69363605D01*
X81050781Y-69384247D01*
X77584744Y-72850283D01*
X77523421Y-72883768D01*
X77453729Y-72878784D01*
X77440768Y-72873087D01*
X77370836Y-72837454D01*
X77191118Y-72779059D01*
X77004486Y-72749500D01*
X77004481Y-72749500D01*
X76815519Y-72749500D01*
X76815514Y-72749500D01*
X76628881Y-72779059D01*
X76449163Y-72837454D01*
X76280800Y-72923240D01*
X76270285Y-72930880D01*
X76127927Y-73034310D01*
X76127925Y-73034312D01*
X76127924Y-73034312D01*
X75994312Y-73167924D01*
X75994312Y-73167925D01*
X75994310Y-73167927D01*
X75992877Y-73169900D01*
X75883240Y-73320800D01*
X75797451Y-73489170D01*
X75773197Y-73563818D01*
X75733759Y-73621494D01*
X75669401Y-73648692D01*
X75655266Y-73649500D01*
X71664734Y-73649500D01*
X71597695Y-73629815D01*
X71551940Y-73577011D01*
X71546803Y-73563818D01*
X71522548Y-73489170D01*
X71503964Y-73452697D01*
X71436760Y-73320801D01*
X71325690Y-73167927D01*
X71192073Y-73034310D01*
X71039199Y-72923240D01*
X71021041Y-72913988D01*
X70870836Y-72837454D01*
X70691118Y-72779059D01*
X70504486Y-72749500D01*
X70504481Y-72749500D01*
X70315519Y-72749500D01*
X70315514Y-72749500D01*
X70128881Y-72779059D01*
X69949163Y-72837454D01*
X69780800Y-72923240D01*
X69770285Y-72930880D01*
X69627927Y-73034310D01*
X69627925Y-73034312D01*
X69627924Y-73034312D01*
X69494312Y-73167924D01*
X69494312Y-73167925D01*
X69494310Y-73167927D01*
X69492877Y-73169900D01*
X69383240Y-73320800D01*
X69297454Y-73489163D01*
X69239059Y-73668881D01*
X69209500Y-73855513D01*
X66500500Y-73855513D01*
X66500500Y-67632155D01*
X72260000Y-67632155D01*
X72260000Y-68330000D01*
X73284722Y-68330000D01*
X73240667Y-68406306D01*
X73210000Y-68520756D01*
X73210000Y-68639244D01*
X73240667Y-68753694D01*
X73284722Y-68830000D01*
X72260000Y-68830000D01*
X72260000Y-69527844D01*
X72266401Y-69587372D01*
X72266403Y-69587379D01*
X72316645Y-69722086D01*
X72316649Y-69722093D01*
X72402809Y-69837187D01*
X72402812Y-69837190D01*
X72517906Y-69923350D01*
X72517913Y-69923354D01*
X72652620Y-69973596D01*
X72652627Y-69973598D01*
X72712155Y-69979999D01*
X72712172Y-69980000D01*
X73410000Y-69980000D01*
X73410000Y-68955277D01*
X73486306Y-68999333D01*
X73600756Y-69030000D01*
X73719244Y-69030000D01*
X73833694Y-68999333D01*
X73910000Y-68955277D01*
X73910000Y-69980000D01*
X74607828Y-69980000D01*
X74607844Y-69979999D01*
X74667372Y-69973598D01*
X74667379Y-69973596D01*
X74802086Y-69923354D01*
X74802093Y-69923350D01*
X74917187Y-69837190D01*
X74917190Y-69837187D01*
X75003350Y-69722093D01*
X75003354Y-69722086D01*
X75053596Y-69587379D01*
X75053598Y-69587372D01*
X75059999Y-69527844D01*
X75060000Y-69527827D01*
X75060000Y-68830000D01*
X74035278Y-68830000D01*
X74079333Y-68753694D01*
X74110000Y-68639244D01*
X74110000Y-68520756D01*
X74079333Y-68406306D01*
X74035278Y-68330000D01*
X75060000Y-68330000D01*
X75060000Y-67632172D01*
X75059999Y-67632155D01*
X75053598Y-67572627D01*
X75053596Y-67572620D01*
X75003354Y-67437913D01*
X75003350Y-67437906D01*
X74917190Y-67322812D01*
X74917187Y-67322809D01*
X74802093Y-67236649D01*
X74802086Y-67236645D01*
X74667379Y-67186403D01*
X74667372Y-67186401D01*
X74607844Y-67180000D01*
X74344840Y-67180000D01*
X74277801Y-67160315D01*
X74232046Y-67107511D01*
X74222102Y-67038353D01*
X74251127Y-66974797D01*
X74271954Y-66955682D01*
X74376928Y-66879414D01*
X74499414Y-66756928D01*
X74601232Y-66616788D01*
X74679873Y-66462445D01*
X74733402Y-66297701D01*
X74760500Y-66126611D01*
X74760500Y-65953389D01*
X74733402Y-65782299D01*
X74679873Y-65617555D01*
X74662561Y-65583579D01*
X74649665Y-65514912D01*
X74675941Y-65450171D01*
X74685356Y-65439613D01*
X79288152Y-60836819D01*
X79349475Y-60803334D01*
X79375833Y-60800500D01*
X81629060Y-60800500D01*
X81629062Y-60800500D01*
X81705489Y-60780021D01*
X81774011Y-60740460D01*
X81829960Y-60684511D01*
X82112652Y-60401819D01*
X82173975Y-60368334D01*
X82200333Y-60365500D01*
X82702260Y-60365500D01*
X82725930Y-60363280D01*
X82731849Y-60362725D01*
X82826602Y-60329568D01*
X82896378Y-60326006D01*
X82957006Y-60360734D01*
X82989234Y-60422727D01*
X82982830Y-60492303D01*
X82955237Y-60534291D01*
X80701348Y-62788181D01*
X80640025Y-62821666D01*
X80613667Y-62824500D01*
X80064740Y-62824500D01*
X80035150Y-62827274D01*
X79910523Y-62870884D01*
X79804289Y-62949288D01*
X79804288Y-62949289D01*
X79725884Y-63055523D01*
X79682274Y-63180150D01*
X79679500Y-63209739D01*
X79679500Y-63790260D01*
X79682274Y-63819849D01*
X79725884Y-63944476D01*
X79804288Y-64050710D01*
X79804289Y-64050711D01*
X79910523Y-64129115D01*
X79910524Y-64129115D01*
X79910525Y-64129116D01*
X80035151Y-64172725D01*
X80035150Y-64172725D01*
X80064740Y-64175500D01*
X80064744Y-64175500D01*
X80670260Y-64175500D01*
X80699849Y-64172725D01*
X80744959Y-64156940D01*
X80824475Y-64129116D01*
X80930711Y-64050711D01*
X81009116Y-63944475D01*
X81009117Y-63944470D01*
X81011555Y-63939859D01*
X81060282Y-63889785D01*
X81128346Y-63874004D01*
X81194138Y-63897526D01*
X81236767Y-63952884D01*
X81238893Y-63958793D01*
X81269546Y-64051300D01*
X81269551Y-64051311D01*
X81360052Y-64198034D01*
X81360055Y-64198038D01*
X81481961Y-64319944D01*
X81481965Y-64319947D01*
X81628688Y-64410448D01*
X81628699Y-64410453D01*
X81792347Y-64464680D01*
X81893351Y-64474999D01*
X82442500Y-64474999D01*
X82491640Y-64474999D01*
X82491654Y-64474998D01*
X82592652Y-64464680D01*
X82756300Y-64410453D01*
X82756311Y-64410448D01*
X82903034Y-64319947D01*
X82903038Y-64319944D01*
X83024944Y-64198038D01*
X83024947Y-64198034D01*
X83115448Y-64051311D01*
X83115453Y-64051300D01*
X83169680Y-63887652D01*
X83179999Y-63786654D01*
X83180000Y-63786641D01*
X83180000Y-63750000D01*
X82442500Y-63750000D01*
X82442500Y-64474999D01*
X81893351Y-64474999D01*
X81942499Y-64474998D01*
X81942500Y-64474998D01*
X81942500Y-63250000D01*
X82442500Y-63250000D01*
X83179999Y-63250000D01*
X83179999Y-63213357D01*
X83179998Y-63213348D01*
X83179629Y-63209739D01*
X84592000Y-63209739D01*
X84592000Y-63790260D01*
X84594774Y-63819849D01*
X84638384Y-63944476D01*
X84716788Y-64050710D01*
X84716789Y-64050711D01*
X84823023Y-64129115D01*
X84823024Y-64129115D01*
X84823025Y-64129116D01*
X84876474Y-64147819D01*
X84947647Y-64172724D01*
X84947648Y-64172724D01*
X84947651Y-64172725D01*
X84970569Y-64174874D01*
X85035477Y-64200729D01*
X85076103Y-64257574D01*
X85079548Y-64327358D01*
X85078768Y-64330424D01*
X85046700Y-64450106D01*
X85046700Y-64450108D01*
X85046700Y-64581892D01*
X85050145Y-64594748D01*
X85080808Y-64709187D01*
X85113754Y-64766250D01*
X85146700Y-64823314D01*
X85239886Y-64916500D01*
X85354014Y-64982392D01*
X85481308Y-65016500D01*
X85481310Y-65016500D01*
X85613090Y-65016500D01*
X85613092Y-65016500D01*
X85740386Y-64982392D01*
X85854514Y-64916500D01*
X85947700Y-64823314D01*
X86013592Y-64709186D01*
X86047700Y-64581892D01*
X86047700Y-64450108D01*
X86013592Y-64322814D01*
X85947700Y-64208686D01*
X85895954Y-64156940D01*
X85862469Y-64095617D01*
X85867453Y-64025925D01*
X85883863Y-63995628D01*
X85921616Y-63944475D01*
X85965225Y-63819849D01*
X85968000Y-63790256D01*
X85968000Y-63209744D01*
X85967637Y-63205875D01*
X85965225Y-63180150D01*
X85921615Y-63055523D01*
X85843211Y-62949289D01*
X85843210Y-62949288D01*
X85736976Y-62870884D01*
X85612348Y-62827274D01*
X85612349Y-62827274D01*
X85582760Y-62824500D01*
X85582756Y-62824500D01*
X84977244Y-62824500D01*
X84977240Y-62824500D01*
X84947650Y-62827274D01*
X84823023Y-62870884D01*
X84716789Y-62949288D01*
X84716788Y-62949289D01*
X84638384Y-63055523D01*
X84594774Y-63180150D01*
X84592000Y-63209739D01*
X83179629Y-63209739D01*
X83169680Y-63112347D01*
X83115453Y-62948699D01*
X83115448Y-62948688D01*
X83024947Y-62801965D01*
X83024944Y-62801961D01*
X82903038Y-62680055D01*
X82903034Y-62680052D01*
X82756311Y-62589551D01*
X82756300Y-62589546D01*
X82592652Y-62535319D01*
X82491654Y-62525000D01*
X82442500Y-62525000D01*
X82442500Y-63250000D01*
X81942500Y-63250000D01*
X81942500Y-62505324D01*
X81932681Y-62487342D01*
X81932681Y-62487339D01*
X81932680Y-62487337D01*
X81935566Y-62447001D01*
X81937665Y-62417650D01*
X81937666Y-62417646D01*
X81937667Y-62417646D01*
X81937671Y-62417640D01*
X81966162Y-62373308D01*
X83937652Y-60401819D01*
X83998975Y-60368334D01*
X84025333Y-60365500D01*
X84423667Y-60365500D01*
X84490706Y-60385185D01*
X84511348Y-60401819D01*
X86754709Y-62645180D01*
X86788194Y-62706503D01*
X86783210Y-62776195D01*
X86741338Y-62832128D01*
X86707985Y-62849902D01*
X86648022Y-62870885D01*
X86541789Y-62949288D01*
X86541788Y-62949289D01*
X86463384Y-63055523D01*
X86419774Y-63180150D01*
X86417000Y-63209739D01*
X86417000Y-63790260D01*
X86419774Y-63819849D01*
X86463384Y-63944476D01*
X86541788Y-64050710D01*
X86541789Y-64050711D01*
X86648023Y-64129115D01*
X86648024Y-64129115D01*
X86648025Y-64129116D01*
X86772651Y-64172725D01*
X86772650Y-64172725D01*
X86802240Y-64175500D01*
X86802244Y-64175500D01*
X87407760Y-64175500D01*
X87437349Y-64172725D01*
X87482459Y-64156940D01*
X87561975Y-64129116D01*
X87668211Y-64050711D01*
X87746616Y-63944475D01*
X87790225Y-63819849D01*
X87793000Y-63790256D01*
X87793000Y-63209744D01*
X87792637Y-63205875D01*
X87790225Y-63180150D01*
X87746615Y-63055523D01*
X87668211Y-62949289D01*
X87668210Y-62949288D01*
X87561977Y-62870885D01*
X87561975Y-62870884D01*
X87541009Y-62863547D01*
X87488543Y-62845188D01*
X87431768Y-62804465D01*
X87406022Y-62739512D01*
X87405500Y-62728147D01*
X87405500Y-62530939D01*
X87403909Y-62525000D01*
X87385021Y-62454511D01*
X87380685Y-62447001D01*
X87345464Y-62385995D01*
X87345458Y-62385987D01*
X84948819Y-59989348D01*
X84915334Y-59928025D01*
X84912500Y-59901667D01*
X84912500Y-59478332D01*
X84932185Y-59411293D01*
X84948815Y-59390655D01*
X85638151Y-58701318D01*
X85699474Y-58667834D01*
X85725832Y-58665000D01*
X85815890Y-58665000D01*
X85815892Y-58665000D01*
X85943186Y-58630892D01*
X86057314Y-58565000D01*
X86150500Y-58471814D01*
X86216392Y-58357686D01*
X86250500Y-58230392D01*
X86250500Y-58098608D01*
X86216392Y-57971314D01*
X86150500Y-57857186D01*
X86057314Y-57764000D01*
X85987660Y-57723785D01*
X85943187Y-57698108D01*
X85875105Y-57679866D01*
X85815892Y-57664000D01*
X85684108Y-57664000D01*
X85556812Y-57698108D01*
X85442686Y-57764000D01*
X85442683Y-57764002D01*
X85349502Y-57857183D01*
X85349500Y-57857186D01*
X85283608Y-57971312D01*
X85249500Y-58098608D01*
X85249500Y-58188666D01*
X85229815Y-58255705D01*
X85213181Y-58276347D01*
X84511348Y-58978181D01*
X84450025Y-59011666D01*
X84423667Y-59014500D01*
X83921740Y-59014500D01*
X83892150Y-59017274D01*
X83767523Y-59060884D01*
X83661289Y-59139288D01*
X83661288Y-59139289D01*
X83582884Y-59245523D01*
X83539274Y-59370150D01*
X83536500Y-59399739D01*
X83536500Y-59901667D01*
X83516815Y-59968706D01*
X83500181Y-59989348D01*
X83256291Y-60233237D01*
X83194968Y-60266722D01*
X83125276Y-60261738D01*
X83069343Y-60219866D01*
X83044926Y-60154402D01*
X83051568Y-60104603D01*
X83084725Y-60009849D01*
X83085280Y-60003930D01*
X83087500Y-59980260D01*
X83087500Y-59399739D01*
X83084725Y-59370150D01*
X83041115Y-59245523D01*
X82962711Y-59139289D01*
X82962710Y-59139288D01*
X82856476Y-59060884D01*
X82731848Y-59017274D01*
X82731849Y-59017274D01*
X82702260Y-59014500D01*
X82702256Y-59014500D01*
X82096744Y-59014500D01*
X82096740Y-59014500D01*
X82067150Y-59017274D01*
X81942523Y-59060884D01*
X81836289Y-59139288D01*
X81836288Y-59139289D01*
X81757884Y-59245523D01*
X81714274Y-59370150D01*
X81711500Y-59399739D01*
X81711500Y-59901667D01*
X81702855Y-59931107D01*
X81696332Y-59961094D01*
X81692577Y-59966109D01*
X81691815Y-59968706D01*
X81675181Y-59989348D01*
X81501348Y-60163181D01*
X81440025Y-60196666D01*
X81413667Y-60199500D01*
X79160438Y-60199500D01*
X79122224Y-60209739D01*
X79084009Y-60219979D01*
X79069600Y-60228299D01*
X79069599Y-60228299D01*
X79015495Y-60259535D01*
X79015487Y-60259541D01*
X74260394Y-65014633D01*
X74199071Y-65048118D01*
X74129379Y-65043134D01*
X74116419Y-65037437D01*
X74082452Y-65020130D01*
X74082446Y-65020127D01*
X74082445Y-65020127D01*
X73917701Y-64966598D01*
X73917699Y-64966597D01*
X73917698Y-64966597D01*
X73764384Y-64942315D01*
X73746611Y-64939500D01*
X73573389Y-64939500D01*
X73555616Y-64942315D01*
X73402302Y-64966597D01*
X73237552Y-65020128D01*
X73083211Y-65098768D01*
X73022811Y-65142652D01*
X72943072Y-65200586D01*
X72943070Y-65200588D01*
X72943069Y-65200588D01*
X72820588Y-65323069D01*
X72820588Y-65323070D01*
X72820586Y-65323072D01*
X72803052Y-65347206D01*
X72718768Y-65463211D01*
X72640128Y-65617552D01*
X72586597Y-65782302D01*
X72567794Y-65901022D01*
X72559500Y-65953389D01*
X72559500Y-66126611D01*
X72563288Y-66150529D01*
X72585803Y-66292686D01*
X72586598Y-66297701D01*
X72640127Y-66462445D01*
X72718768Y-66616788D01*
X72820586Y-66756928D01*
X72943072Y-66879414D01*
X73048046Y-66955682D01*
X73090711Y-67011012D01*
X73096690Y-67080626D01*
X73064084Y-67142421D01*
X73003245Y-67176778D01*
X72975160Y-67180000D01*
X72712155Y-67180000D01*
X72652627Y-67186401D01*
X72652620Y-67186403D01*
X72517913Y-67236645D01*
X72517906Y-67236649D01*
X72402812Y-67322809D01*
X72402809Y-67322812D01*
X72316649Y-67437906D01*
X72316645Y-67437913D01*
X72266403Y-67572620D01*
X72266401Y-67572627D01*
X72260000Y-67632155D01*
X66500500Y-67632155D01*
X66500500Y-59632155D01*
X72260000Y-59632155D01*
X72260000Y-60330000D01*
X73284722Y-60330000D01*
X73240667Y-60406306D01*
X73210000Y-60520756D01*
X73210000Y-60639244D01*
X73240667Y-60753694D01*
X73284722Y-60830000D01*
X72260000Y-60830000D01*
X72260000Y-61527844D01*
X72266401Y-61587372D01*
X72266403Y-61587379D01*
X72316645Y-61722086D01*
X72316649Y-61722093D01*
X72402809Y-61837187D01*
X72402812Y-61837190D01*
X72517906Y-61923350D01*
X72517913Y-61923354D01*
X72652620Y-61973596D01*
X72652627Y-61973598D01*
X72712155Y-61979999D01*
X72712172Y-61980000D01*
X73410000Y-61980000D01*
X73410000Y-60955277D01*
X73486306Y-60999333D01*
X73600756Y-61030000D01*
X73719244Y-61030000D01*
X73833694Y-60999333D01*
X73910000Y-60955277D01*
X73910000Y-61980000D01*
X74607828Y-61980000D01*
X74607844Y-61979999D01*
X74667372Y-61973598D01*
X74667379Y-61973596D01*
X74802086Y-61923354D01*
X74802093Y-61923350D01*
X74917187Y-61837190D01*
X74917190Y-61837187D01*
X75003350Y-61722093D01*
X75003354Y-61722086D01*
X75053596Y-61587379D01*
X75053598Y-61587372D01*
X75059999Y-61527844D01*
X75060000Y-61527827D01*
X75060000Y-60830000D01*
X74035278Y-60830000D01*
X74079333Y-60753694D01*
X74110000Y-60639244D01*
X74110000Y-60520756D01*
X74079333Y-60406306D01*
X74035278Y-60330000D01*
X75060000Y-60330000D01*
X75060000Y-59632172D01*
X75059999Y-59632155D01*
X75053598Y-59572627D01*
X75053596Y-59572620D01*
X75003354Y-59437913D01*
X75003350Y-59437906D01*
X74917190Y-59322812D01*
X74917187Y-59322809D01*
X74802093Y-59236649D01*
X74802086Y-59236645D01*
X74667379Y-59186403D01*
X74667372Y-59186401D01*
X74607844Y-59180000D01*
X74344840Y-59180000D01*
X74277801Y-59160315D01*
X74232046Y-59107511D01*
X74222102Y-59038353D01*
X74251127Y-58974797D01*
X74271954Y-58955682D01*
X74376928Y-58879414D01*
X74499414Y-58756928D01*
X74601232Y-58616788D01*
X74679873Y-58462445D01*
X74687235Y-58439788D01*
X74691657Y-58426180D01*
X74731095Y-58368505D01*
X74795454Y-58341308D01*
X74809587Y-58340500D01*
X82866060Y-58340500D01*
X82866062Y-58340500D01*
X82942489Y-58320021D01*
X83011011Y-58280460D01*
X83066960Y-58224511D01*
X83429652Y-57861819D01*
X83490975Y-57828334D01*
X83517333Y-57825500D01*
X84019260Y-57825500D01*
X84048849Y-57822725D01*
X84173475Y-57779116D01*
X84279711Y-57700711D01*
X84358116Y-57594475D01*
X84401725Y-57469849D01*
X84402347Y-57463212D01*
X84404500Y-57440260D01*
X84404500Y-56859739D01*
X84401725Y-56830149D01*
X84400591Y-56824955D01*
X84405520Y-56755259D01*
X84447346Y-56699292D01*
X84512791Y-56674823D01*
X84521736Y-56674500D01*
X88893000Y-56674500D01*
X88960039Y-56694185D01*
X89005794Y-56746989D01*
X89017000Y-56798500D01*
X89017000Y-58169752D01*
X89028631Y-58228229D01*
X89028632Y-58228230D01*
X89072947Y-58294552D01*
X89139269Y-58338867D01*
X89139270Y-58338868D01*
X89197747Y-58350499D01*
X89197750Y-58350500D01*
X89197752Y-58350500D01*
X89745500Y-58350500D01*
X89812539Y-58370185D01*
X89858294Y-58422989D01*
X89869500Y-58474500D01*
X89869500Y-64454167D01*
X89849815Y-64521206D01*
X89833181Y-64541848D01*
X88950082Y-65424947D01*
X88888759Y-65458432D01*
X88862401Y-65461266D01*
X83171572Y-65461266D01*
X83144038Y-65468644D01*
X83095143Y-65481745D01*
X83095142Y-65481746D01*
X83036435Y-65515641D01*
X83026626Y-65521304D01*
X83026620Y-65521308D01*
X82061948Y-66485981D01*
X82000625Y-66519466D01*
X81974267Y-66522300D01*
X81472340Y-66522300D01*
X81442750Y-66525074D01*
X81318123Y-66568684D01*
X81211889Y-66647088D01*
X81211888Y-66647089D01*
X81133484Y-66753323D01*
X81089874Y-66877950D01*
X81087100Y-66907539D01*
X81087100Y-67513060D01*
X81089874Y-67542649D01*
X81133484Y-67667276D01*
X81211888Y-67773510D01*
X81211889Y-67773511D01*
X81318123Y-67851915D01*
X81318124Y-67851915D01*
X81318125Y-67851916D01*
X81442751Y-67895525D01*
X81442750Y-67895525D01*
X81472340Y-67898300D01*
X81472344Y-67898300D01*
X82052860Y-67898300D01*
X82082449Y-67895525D01*
X82135358Y-67877011D01*
X82207075Y-67851916D01*
X82313311Y-67773511D01*
X82391716Y-67667275D01*
X82435325Y-67542649D01*
X82436389Y-67531306D01*
X82438100Y-67513060D01*
X82438100Y-67454786D01*
X83743001Y-67454786D01*
X83753494Y-67557497D01*
X83808641Y-67723919D01*
X83808643Y-67723924D01*
X83900684Y-67873145D01*
X84024654Y-67997115D01*
X84173875Y-68089156D01*
X84173880Y-68089158D01*
X84340302Y-68144305D01*
X84340309Y-68144306D01*
X84443019Y-68154799D01*
X84492999Y-68154798D01*
X84493000Y-68154798D01*
X84493000Y-67179800D01*
X83743001Y-67179800D01*
X83743001Y-67454786D01*
X82438100Y-67454786D01*
X82438100Y-67011133D01*
X82457785Y-66944094D01*
X82474419Y-66923452D01*
X83299286Y-66098585D01*
X83360609Y-66065100D01*
X83386967Y-66062266D01*
X83661249Y-66062266D01*
X83728288Y-66081951D01*
X83774043Y-66134755D01*
X83783987Y-66203913D01*
X83778955Y-66225270D01*
X83753494Y-66302102D01*
X83753493Y-66302109D01*
X83743000Y-66404813D01*
X83743000Y-66679800D01*
X84619000Y-66679800D01*
X84686039Y-66699485D01*
X84731794Y-66752289D01*
X84743000Y-66803800D01*
X84743000Y-66929800D01*
X84869000Y-66929800D01*
X84936039Y-66949485D01*
X84981794Y-67002289D01*
X84993000Y-67053800D01*
X84993000Y-68154799D01*
X85042972Y-68154799D01*
X85042986Y-68154798D01*
X85145697Y-68144305D01*
X85312119Y-68089158D01*
X85312124Y-68089156D01*
X85461345Y-67997115D01*
X85585315Y-67873145D01*
X85677356Y-67723924D01*
X85677359Y-67723917D01*
X85733094Y-67555718D01*
X85772866Y-67498273D01*
X85837382Y-67471449D01*
X85906158Y-67483764D01*
X85957358Y-67531306D01*
X85967841Y-67553765D01*
X85986513Y-67607124D01*
X85990207Y-67617682D01*
X86070850Y-67726950D01*
X86180118Y-67807593D01*
X86222845Y-67822544D01*
X86308299Y-67852446D01*
X86338730Y-67855300D01*
X86338734Y-67855300D01*
X86947270Y-67855300D01*
X86977699Y-67852446D01*
X86977701Y-67852446D01*
X87041790Y-67830019D01*
X87105882Y-67807593D01*
X87215150Y-67726950D01*
X87295793Y-67617682D01*
X87326166Y-67530882D01*
X87340646Y-67489501D01*
X87340646Y-67489499D01*
X87343500Y-67459069D01*
X87343500Y-67354300D01*
X87363185Y-67287261D01*
X87415989Y-67241506D01*
X87467500Y-67230300D01*
X87943967Y-67230300D01*
X88011006Y-67249985D01*
X88031648Y-67266619D01*
X88702848Y-67937819D01*
X88736333Y-67999142D01*
X88731349Y-68068834D01*
X88689477Y-68124767D01*
X88624013Y-68149184D01*
X88615167Y-68149500D01*
X88135730Y-68149500D01*
X88105300Y-68152353D01*
X88105298Y-68152353D01*
X87977119Y-68197206D01*
X87977117Y-68197207D01*
X87867850Y-68277850D01*
X87787207Y-68387117D01*
X87787206Y-68387119D01*
X87742353Y-68515298D01*
X87742353Y-68515300D01*
X87739500Y-68545730D01*
X87739500Y-69554269D01*
X87742353Y-69584699D01*
X87742353Y-69584701D01*
X87787206Y-69712880D01*
X87787207Y-69712882D01*
X87867850Y-69822150D01*
X87977118Y-69902793D01*
X88010898Y-69914613D01*
X88105299Y-69947646D01*
X88135730Y-69950500D01*
X88135734Y-69950500D01*
X88944270Y-69950500D01*
X88974699Y-69947646D01*
X88974701Y-69947646D01*
X89044133Y-69923350D01*
X89102882Y-69902793D01*
X89212150Y-69822150D01*
X89290230Y-69716355D01*
X89345877Y-69674104D01*
X89415533Y-69668645D01*
X89477083Y-69701712D01*
X89489770Y-69716355D01*
X89567848Y-69822148D01*
X89567849Y-69822148D01*
X89567850Y-69822150D01*
X89677118Y-69902793D01*
X89710898Y-69914613D01*
X89805299Y-69947646D01*
X89835730Y-69950500D01*
X89835734Y-69950500D01*
X90644270Y-69950500D01*
X90674699Y-69947646D01*
X90674701Y-69947646D01*
X90744133Y-69923350D01*
X90802882Y-69902793D01*
X90912150Y-69822150D01*
X90992793Y-69712882D01*
X91024010Y-69623669D01*
X91037646Y-69584701D01*
X91037646Y-69584699D01*
X91040500Y-69554269D01*
X91040500Y-69474500D01*
X91044217Y-69461841D01*
X91043217Y-69448687D01*
X91053869Y-69428967D01*
X91060185Y-69407461D01*
X91070155Y-69398821D01*
X91076426Y-69387214D01*
X91096050Y-69376382D01*
X91112989Y-69361706D01*
X91127424Y-69359067D01*
X91137598Y-69353453D01*
X91164500Y-69350500D01*
X91441385Y-69350500D01*
X91508424Y-69370185D01*
X91554179Y-69422989D01*
X91564123Y-69492147D01*
X91535098Y-69555703D01*
X91503386Y-69581886D01*
X91474592Y-69598511D01*
X91474590Y-69598511D01*
X91474590Y-69598512D01*
X91455492Y-69609537D01*
X91455487Y-69609541D01*
X91150415Y-69914613D01*
X91150415Y-69914614D01*
X91004612Y-70060416D01*
X91004609Y-70060417D01*
X90750638Y-70314389D01*
X90689315Y-70347874D01*
X90651389Y-70350167D01*
X90644271Y-70349500D01*
X90644266Y-70349500D01*
X89835734Y-70349500D01*
X89835730Y-70349500D01*
X89805300Y-70352353D01*
X89805298Y-70352353D01*
X89677119Y-70397206D01*
X89677117Y-70397207D01*
X89567850Y-70477850D01*
X89489770Y-70583645D01*
X89434122Y-70625895D01*
X89364466Y-70631354D01*
X89302917Y-70598286D01*
X89290230Y-70583645D01*
X89265030Y-70549500D01*
X89212150Y-70477850D01*
X89102882Y-70397207D01*
X89102880Y-70397206D01*
X88974700Y-70352353D01*
X88944270Y-70349500D01*
X88944266Y-70349500D01*
X88135734Y-70349500D01*
X88135730Y-70349500D01*
X88105300Y-70352353D01*
X88105298Y-70352353D01*
X87977119Y-70397206D01*
X87977117Y-70397207D01*
X87867850Y-70477850D01*
X87787207Y-70587117D01*
X87787206Y-70587119D01*
X87742353Y-70715298D01*
X87742353Y-70715300D01*
X87739500Y-70745730D01*
X87739500Y-71754269D01*
X87742353Y-71784699D01*
X87742353Y-71784701D01*
X87783298Y-71901712D01*
X87787207Y-71912882D01*
X87867850Y-72022150D01*
X87977118Y-72102793D01*
X88002933Y-72111826D01*
X88105299Y-72147646D01*
X88135730Y-72150500D01*
X88135734Y-72150500D01*
X88944270Y-72150500D01*
X88974699Y-72147646D01*
X88974701Y-72147646D01*
X89041884Y-72124137D01*
X89102882Y-72102793D01*
X89212150Y-72022150D01*
X89290230Y-71916355D01*
X89345877Y-71874104D01*
X89415533Y-71868645D01*
X89477083Y-71901712D01*
X89489770Y-71916355D01*
X89567848Y-72022148D01*
X89567849Y-72022148D01*
X89567850Y-72022150D01*
X89677118Y-72102793D01*
X89702933Y-72111826D01*
X89805299Y-72147646D01*
X89835730Y-72150500D01*
X89835734Y-72150500D01*
X90136700Y-72150500D01*
X90203739Y-72170185D01*
X90249494Y-72222989D01*
X90260700Y-72274500D01*
X90260700Y-73526404D01*
X90241015Y-73593443D01*
X90188211Y-73639198D01*
X90177656Y-73643445D01*
X90098317Y-73671207D01*
X89989050Y-73751850D01*
X89908407Y-73861117D01*
X89886042Y-73925033D01*
X89845320Y-73981808D01*
X89780367Y-74007555D01*
X89711805Y-73994098D01*
X89661403Y-73945711D01*
X89651295Y-73923081D01*
X89595558Y-73754880D01*
X89595556Y-73754875D01*
X89503515Y-73605654D01*
X89379545Y-73481684D01*
X89230324Y-73389643D01*
X89230319Y-73389641D01*
X89063897Y-73334494D01*
X89063890Y-73334493D01*
X88961186Y-73324000D01*
X88911200Y-73324000D01*
X88911200Y-75773999D01*
X88961172Y-75773999D01*
X88961186Y-75773998D01*
X89063897Y-75763505D01*
X89230319Y-75708358D01*
X89230324Y-75708356D01*
X89379545Y-75616315D01*
X89503515Y-75492345D01*
X89595556Y-75343124D01*
X89595559Y-75343117D01*
X89651294Y-75174918D01*
X89691066Y-75117473D01*
X89755582Y-75090649D01*
X89824358Y-75102964D01*
X89875558Y-75150506D01*
X89886041Y-75172965D01*
X89887347Y-75176697D01*
X89908407Y-75236882D01*
X89989050Y-75346150D01*
X90098318Y-75426793D01*
X90141045Y-75441744D01*
X90226499Y-75471646D01*
X90256930Y-75474500D01*
X90256934Y-75474500D01*
X90865470Y-75474500D01*
X90895899Y-75471646D01*
X90895901Y-75471646D01*
X90964487Y-75447646D01*
X91024082Y-75426793D01*
X91133350Y-75346150D01*
X91213993Y-75236882D01*
X91255776Y-75117473D01*
X91258846Y-75108701D01*
X91258846Y-75108699D01*
X91261700Y-75078269D01*
X91261700Y-74019730D01*
X91258846Y-73989300D01*
X91258846Y-73989298D01*
X91213993Y-73861119D01*
X91213992Y-73861117D01*
X91133350Y-73751850D01*
X91024082Y-73671207D01*
X91017435Y-73668881D01*
X90944744Y-73643445D01*
X90887969Y-73602723D01*
X90862222Y-73537770D01*
X90861700Y-73526404D01*
X90861700Y-72121982D01*
X90881385Y-72054943D01*
X90905778Y-72028921D01*
X90905579Y-72028722D01*
X90911756Y-72022544D01*
X90912071Y-72022209D01*
X90912116Y-72022174D01*
X90912150Y-72022150D01*
X90992793Y-71912882D01*
X91019981Y-71835183D01*
X91037646Y-71784701D01*
X91037646Y-71784699D01*
X91040500Y-71754269D01*
X91040500Y-70925833D01*
X91060185Y-70858794D01*
X91076819Y-70838152D01*
X91728152Y-70186819D01*
X91789475Y-70153334D01*
X91815833Y-70150500D01*
X93411135Y-70150500D01*
X93478174Y-70170185D01*
X93498816Y-70186819D01*
X93580641Y-70268644D01*
X93688670Y-70319019D01*
X93737897Y-70325500D01*
X94739500Y-70325499D01*
X94806539Y-70345183D01*
X94852294Y-70397987D01*
X94863500Y-70449499D01*
X94863500Y-79466286D01*
X94843815Y-79533325D01*
X94791011Y-79579080D01*
X94721853Y-79589024D01*
X94658297Y-79559999D01*
X94640306Y-79538211D01*
X94639448Y-79538870D01*
X94634502Y-79532424D01*
X94634500Y-79532421D01*
X94541314Y-79439235D01*
X94484250Y-79406289D01*
X94427187Y-79373343D01*
X94363539Y-79356289D01*
X94299892Y-79339235D01*
X94168108Y-79339235D01*
X94040812Y-79373343D01*
X93926686Y-79439235D01*
X93926683Y-79439237D01*
X93833502Y-79532418D01*
X93833500Y-79532421D01*
X93767608Y-79646547D01*
X93733500Y-79773843D01*
X93733500Y-79905628D01*
X93734404Y-79909001D01*
X93734333Y-79911955D01*
X93734561Y-79913683D01*
X93734291Y-79913718D01*
X93732740Y-79978851D01*
X93702310Y-80028774D01*
X93448489Y-80282597D01*
X93392541Y-80338544D01*
X93392535Y-80338552D01*
X93352982Y-80407061D01*
X93352979Y-80407066D01*
X93332500Y-80483496D01*
X93332500Y-80630067D01*
X93312815Y-80697106D01*
X93296181Y-80717748D01*
X90358541Y-83655387D01*
X90358537Y-83655392D01*
X90318980Y-83723907D01*
X90318978Y-83723913D01*
X90316546Y-83732989D01*
X90284453Y-83788574D01*
X87672838Y-86400189D01*
X87611515Y-86433674D01*
X87541823Y-86428690D01*
X87485890Y-86386818D01*
X87474672Y-86368803D01*
X87457331Y-86334769D01*
X87368870Y-86161155D01*
X87349952Y-86135117D01*
X87220798Y-85957350D01*
X87220794Y-85957345D01*
X87042654Y-85779205D01*
X87042649Y-85779201D01*
X86838848Y-85631132D01*
X86838847Y-85631131D01*
X86838845Y-85631130D01*
X86768747Y-85595413D01*
X86614383Y-85516760D01*
X86374785Y-85438910D01*
X86235334Y-85416823D01*
X86125962Y-85399500D01*
X85874038Y-85399500D01*
X85843859Y-85404280D01*
X85625214Y-85438910D01*
X85385616Y-85516760D01*
X85161151Y-85631132D01*
X84957350Y-85779201D01*
X84957345Y-85779205D01*
X84779205Y-85957345D01*
X84779201Y-85957350D01*
X84631132Y-86161151D01*
X84516760Y-86385616D01*
X84438910Y-86625214D01*
X84399500Y-86874038D01*
X84399500Y-87125961D01*
X84438910Y-87374785D01*
X84516760Y-87614383D01*
X84631132Y-87838848D01*
X84779201Y-88042649D01*
X84779205Y-88042654D01*
X84957345Y-88220794D01*
X84957350Y-88220798D01*
X84998232Y-88250500D01*
X85161155Y-88368870D01*
X85304184Y-88441747D01*
X85385616Y-88483239D01*
X85385618Y-88483239D01*
X85385621Y-88483241D01*
X85625215Y-88561090D01*
X85874038Y-88600500D01*
X85874039Y-88600500D01*
X86125961Y-88600500D01*
X86125962Y-88600500D01*
X86374785Y-88561090D01*
X86614379Y-88483241D01*
X86838845Y-88368870D01*
X87042656Y-88220793D01*
X87220793Y-88042656D01*
X87368870Y-87838845D01*
X87483241Y-87614379D01*
X87561090Y-87374785D01*
X87563033Y-87362515D01*
X87592960Y-87299382D01*
X87623503Y-87274527D01*
X87682511Y-87240460D01*
X87738460Y-87184511D01*
X90487819Y-84435152D01*
X90549142Y-84401667D01*
X90618834Y-84406651D01*
X90674767Y-84448523D01*
X90699184Y-84513987D01*
X90699500Y-84522833D01*
X90699500Y-85324682D01*
X90679815Y-85391721D01*
X90627011Y-85437476D01*
X90613818Y-85442613D01*
X90385618Y-85516760D01*
X90161151Y-85631132D01*
X89957350Y-85779201D01*
X89957345Y-85779205D01*
X89779205Y-85957345D01*
X89779201Y-85957350D01*
X89631132Y-86161151D01*
X89516760Y-86385616D01*
X89438910Y-86625214D01*
X89399500Y-86874038D01*
X89399500Y-87125961D01*
X89438910Y-87374785D01*
X89516760Y-87614383D01*
X89631132Y-87838848D01*
X89779201Y-88042649D01*
X89779205Y-88042654D01*
X89957345Y-88220794D01*
X89957350Y-88220798D01*
X89998232Y-88250500D01*
X90161155Y-88368870D01*
X90304184Y-88441747D01*
X90385616Y-88483239D01*
X90385618Y-88483239D01*
X90385621Y-88483241D01*
X90625215Y-88561090D01*
X90874038Y-88600500D01*
X90874039Y-88600500D01*
X91125961Y-88600500D01*
X91125962Y-88600500D01*
X91374785Y-88561090D01*
X91614379Y-88483241D01*
X91838845Y-88368870D01*
X92042656Y-88220793D01*
X92220793Y-88042656D01*
X92368870Y-87838845D01*
X92483241Y-87614379D01*
X92561090Y-87374785D01*
X92600500Y-87125962D01*
X92600500Y-86874038D01*
X92561090Y-86625215D01*
X92483241Y-86385621D01*
X92483239Y-86385618D01*
X92483239Y-86385616D01*
X92441747Y-86304184D01*
X92368870Y-86161155D01*
X92349952Y-86135117D01*
X92220798Y-85957350D01*
X92220794Y-85957345D01*
X92042654Y-85779205D01*
X92042649Y-85779201D01*
X91838848Y-85631132D01*
X91838847Y-85631131D01*
X91838845Y-85631130D01*
X91614379Y-85516759D01*
X91444001Y-85461400D01*
X91386182Y-85442613D01*
X91328506Y-85403175D01*
X91301308Y-85338817D01*
X91300500Y-85324682D01*
X91300500Y-84181832D01*
X91320185Y-84114793D01*
X91336814Y-84094156D01*
X94122151Y-81308818D01*
X94183474Y-81275334D01*
X94209832Y-81272500D01*
X94299890Y-81272500D01*
X94299892Y-81272500D01*
X94427186Y-81238392D01*
X94541314Y-81172500D01*
X94634500Y-81079314D01*
X94634504Y-81079306D01*
X94639448Y-81072865D01*
X94641534Y-81074466D01*
X94682674Y-81035235D01*
X94751280Y-81022009D01*
X94816147Y-81047973D01*
X94856678Y-81104885D01*
X94863500Y-81145448D01*
X94863500Y-85821689D01*
X94843815Y-85888728D01*
X94827181Y-85909370D01*
X94779205Y-85957345D01*
X94779201Y-85957350D01*
X94631132Y-86161151D01*
X94516760Y-86385616D01*
X94438910Y-86625214D01*
X94399500Y-86874038D01*
X94399500Y-87125961D01*
X94438910Y-87374785D01*
X94516760Y-87614383D01*
X94631132Y-87838848D01*
X94779201Y-88042649D01*
X94779205Y-88042654D01*
X94957345Y-88220794D01*
X94957350Y-88220798D01*
X94998232Y-88250500D01*
X95161155Y-88368870D01*
X95304184Y-88441747D01*
X95385616Y-88483239D01*
X95385618Y-88483239D01*
X95385621Y-88483241D01*
X95625215Y-88561090D01*
X95874038Y-88600500D01*
X95874039Y-88600500D01*
X96125961Y-88600500D01*
X96125962Y-88600500D01*
X96374785Y-88561090D01*
X96614379Y-88483241D01*
X96838845Y-88368870D01*
X97042656Y-88220793D01*
X97220793Y-88042656D01*
X97368870Y-87838845D01*
X97483241Y-87614379D01*
X97561090Y-87374785D01*
X97600500Y-87125962D01*
X97600500Y-86874038D01*
X97561090Y-86625215D01*
X97483241Y-86385621D01*
X97483239Y-86385618D01*
X97483239Y-86385616D01*
X97441747Y-86304184D01*
X97368870Y-86161155D01*
X97349952Y-86135117D01*
X97220798Y-85957350D01*
X97220794Y-85957345D01*
X97042654Y-85779205D01*
X97042649Y-85779201D01*
X96838848Y-85631132D01*
X96838847Y-85631131D01*
X96838845Y-85631130D01*
X96768747Y-85595413D01*
X96614383Y-85516760D01*
X96374785Y-85438910D01*
X96235334Y-85416823D01*
X96125962Y-85399500D01*
X95874038Y-85399500D01*
X95843859Y-85404280D01*
X95625211Y-85438910D01*
X95620472Y-85440048D01*
X95620121Y-85438586D01*
X95556947Y-85440375D01*
X95497123Y-85404280D01*
X95466311Y-85341571D01*
X95464500Y-85320457D01*
X95464500Y-73233991D01*
X95484185Y-73166952D01*
X95536989Y-73121197D01*
X95606147Y-73111253D01*
X95650501Y-73126604D01*
X95666414Y-73135792D01*
X95793708Y-73169900D01*
X95793710Y-73169900D01*
X95925490Y-73169900D01*
X95925492Y-73169900D01*
X96052786Y-73135792D01*
X96166914Y-73069900D01*
X96260100Y-72976714D01*
X96325992Y-72862586D01*
X96360100Y-72735292D01*
X96360100Y-72645232D01*
X96379785Y-72578193D01*
X96396419Y-72557551D01*
X96567967Y-72386003D01*
X96780460Y-72173511D01*
X96789416Y-72157998D01*
X96803397Y-72144665D01*
X96813470Y-72128172D01*
X96837316Y-72112321D01*
X96839978Y-72109783D01*
X96842716Y-72108414D01*
X96843528Y-72108020D01*
X96874359Y-72093644D01*
X96875462Y-72092540D01*
X96885913Y-72087475D01*
X96910979Y-72083281D01*
X96935063Y-72075155D01*
X96944861Y-72077612D01*
X96954825Y-72075946D01*
X96978182Y-72085971D01*
X96995252Y-72090253D01*
X96995809Y-72089059D01*
X97002000Y-72091946D01*
X97002833Y-72092155D01*
X97003850Y-72092808D01*
X97005639Y-72093642D01*
X97005641Y-72093644D01*
X97113670Y-72144019D01*
X97162897Y-72150500D01*
X97517102Y-72150499D01*
X97517104Y-72150499D01*
X97531167Y-72148647D01*
X97566330Y-72144019D01*
X97674359Y-72093644D01*
X97674359Y-72093643D01*
X97684191Y-72089059D01*
X97685504Y-72091876D01*
X97735071Y-72075155D01*
X97795251Y-72090254D01*
X97795809Y-72089059D01*
X97802010Y-72091950D01*
X97802840Y-72092159D01*
X97803852Y-72092809D01*
X97805639Y-72093642D01*
X97805641Y-72093644D01*
X97913670Y-72144019D01*
X97962897Y-72150500D01*
X98317102Y-72150499D01*
X98317104Y-72150499D01*
X98331167Y-72148647D01*
X98366330Y-72144019D01*
X98474359Y-72093644D01*
X98474359Y-72093643D01*
X98484191Y-72089059D01*
X98485504Y-72091876D01*
X98535071Y-72075155D01*
X98595251Y-72090254D01*
X98595809Y-72089059D01*
X98602010Y-72091950D01*
X98602840Y-72092159D01*
X98603852Y-72092809D01*
X98605639Y-72093642D01*
X98605641Y-72093644D01*
X98713670Y-72144019D01*
X98762897Y-72150500D01*
X99117102Y-72150499D01*
X99117104Y-72150499D01*
X99131167Y-72148647D01*
X99166330Y-72144019D01*
X99274359Y-72093644D01*
X99274359Y-72093643D01*
X99284191Y-72089059D01*
X99285504Y-72091876D01*
X99335071Y-72075155D01*
X99395251Y-72090254D01*
X99395809Y-72089059D01*
X99402010Y-72091950D01*
X99402840Y-72092159D01*
X99403852Y-72092809D01*
X99405639Y-72093642D01*
X99405641Y-72093644D01*
X99513670Y-72144019D01*
X99562897Y-72150500D01*
X99917102Y-72150499D01*
X99917104Y-72150499D01*
X99931167Y-72148647D01*
X99966330Y-72144019D01*
X100063097Y-72098895D01*
X100132172Y-72088404D01*
X100195956Y-72116923D01*
X100234196Y-72175400D01*
X100239500Y-72211278D01*
X100239500Y-73158794D01*
X100219815Y-73225833D01*
X100203181Y-73246475D01*
X100140237Y-73309418D01*
X100140235Y-73309421D01*
X100074343Y-73423547D01*
X100056760Y-73489169D01*
X100040235Y-73550843D01*
X100040235Y-73682627D01*
X100057289Y-73746274D01*
X100074343Y-73809922D01*
X100100666Y-73855513D01*
X100140235Y-73924049D01*
X100233421Y-74017235D01*
X100347549Y-74083127D01*
X100474843Y-74117235D01*
X100474845Y-74117235D01*
X100606625Y-74117235D01*
X100606627Y-74117235D01*
X100733921Y-74083127D01*
X100848049Y-74017235D01*
X100848052Y-74017231D01*
X100853499Y-74014087D01*
X100921399Y-73997614D01*
X100987426Y-74020466D01*
X101030617Y-74075387D01*
X101039500Y-74121474D01*
X101039500Y-85275500D01*
X101019815Y-85342539D01*
X100967011Y-85388294D01*
X100915500Y-85399500D01*
X99795741Y-85399500D01*
X99765301Y-85402354D01*
X99765300Y-85402354D01*
X99637118Y-85447206D01*
X99527850Y-85527850D01*
X99447206Y-85637118D01*
X99402353Y-85765302D01*
X99399500Y-85795731D01*
X99399500Y-88204258D01*
X99402354Y-88234698D01*
X99402354Y-88234699D01*
X99447206Y-88362881D01*
X99447207Y-88362882D01*
X99527850Y-88472150D01*
X99637118Y-88552793D01*
X99765302Y-88597646D01*
X99765301Y-88597646D01*
X99769271Y-88598018D01*
X99795735Y-88600500D01*
X102204264Y-88600499D01*
X102234698Y-88597646D01*
X102362882Y-88552793D01*
X102472150Y-88472150D01*
X102552793Y-88362882D01*
X102597646Y-88234698D01*
X102600500Y-88204265D01*
X102600499Y-85795736D01*
X102597646Y-85765302D01*
X102552793Y-85637118D01*
X102472150Y-85527850D01*
X102362882Y-85447207D01*
X102362881Y-85447206D01*
X102234695Y-85402353D01*
X102234698Y-85402353D01*
X102204269Y-85399500D01*
X102204265Y-85399500D01*
X101764500Y-85399500D01*
X101697461Y-85379815D01*
X101651706Y-85327011D01*
X101640500Y-85275500D01*
X101640500Y-75299986D01*
X106850001Y-75299986D01*
X106860494Y-75402697D01*
X106915641Y-75569119D01*
X106915643Y-75569124D01*
X107007684Y-75718345D01*
X107131654Y-75842315D01*
X107280875Y-75934356D01*
X107280880Y-75934358D01*
X107447302Y-75989505D01*
X107447309Y-75989506D01*
X107550019Y-75999999D01*
X107999999Y-75999999D01*
X108000000Y-75999998D01*
X108000000Y-74500000D01*
X106850001Y-74500000D01*
X106850001Y-75299986D01*
X101640500Y-75299986D01*
X101640500Y-73200013D01*
X106850000Y-73200013D01*
X106850000Y-74000000D01*
X108000000Y-74000000D01*
X108000000Y-72500000D01*
X107550028Y-72500000D01*
X107550012Y-72500001D01*
X107447302Y-72510494D01*
X107280880Y-72565641D01*
X107280875Y-72565643D01*
X107131654Y-72657684D01*
X107007684Y-72781654D01*
X106915643Y-72930875D01*
X106915641Y-72930880D01*
X106860494Y-73097302D01*
X106860493Y-73097309D01*
X106850000Y-73200013D01*
X101640500Y-73200013D01*
X101640500Y-72178865D01*
X101660185Y-72111826D01*
X101676819Y-72091184D01*
X101717503Y-72050500D01*
X101758644Y-72009359D01*
X101809019Y-71901330D01*
X101815500Y-71852103D01*
X101815499Y-70572898D01*
X101809019Y-70523670D01*
X101779734Y-70460870D01*
X101779199Y-70457348D01*
X101776997Y-70454547D01*
X101773992Y-70423060D01*
X101769243Y-70391794D01*
X101770697Y-70388540D01*
X101770359Y-70384993D01*
X101784852Y-70356883D01*
X101797762Y-70328010D01*
X101801225Y-70325127D01*
X101802378Y-70322892D01*
X101830117Y-70301079D01*
X101839043Y-70295925D01*
X101906944Y-70279457D01*
X101953440Y-70290933D01*
X102013670Y-70319019D01*
X102062897Y-70325500D01*
X102278000Y-70325499D01*
X102345039Y-70345183D01*
X102390794Y-70397987D01*
X102402000Y-70449499D01*
X102402000Y-71844824D01*
X102382315Y-71911863D01*
X102365681Y-71932505D01*
X102342502Y-71955683D01*
X102342500Y-71955686D01*
X102276608Y-72069812D01*
X102242500Y-72197108D01*
X102242500Y-72328891D01*
X102276608Y-72456187D01*
X102300936Y-72498323D01*
X102342500Y-72570314D01*
X102435686Y-72663500D01*
X102549814Y-72729392D01*
X102677108Y-72763500D01*
X102677110Y-72763500D01*
X102808890Y-72763500D01*
X102808892Y-72763500D01*
X102936186Y-72729392D01*
X103050314Y-72663500D01*
X103143500Y-72570314D01*
X103209392Y-72456186D01*
X103243500Y-72328892D01*
X103243500Y-72197108D01*
X103209392Y-72069814D01*
X103143500Y-71955686D01*
X103050314Y-71862500D01*
X103044567Y-71856753D01*
X103045766Y-71855553D01*
X103010305Y-71806977D01*
X103003000Y-71765044D01*
X103003000Y-70449499D01*
X103022685Y-70382460D01*
X103075489Y-70336705D01*
X103127000Y-70325499D01*
X103342104Y-70325499D01*
X103356167Y-70323647D01*
X103391330Y-70319019D01*
X103499359Y-70268644D01*
X103583644Y-70184359D01*
X103634019Y-70076330D01*
X103640500Y-70027103D01*
X103640499Y-69672898D01*
X103634019Y-69623670D01*
X103588895Y-69526902D01*
X103578404Y-69457828D01*
X103606923Y-69394044D01*
X103665400Y-69355804D01*
X103701278Y-69350500D01*
X105960438Y-69350500D01*
X106039562Y-69350500D01*
X108100870Y-69350500D01*
X108167909Y-69370185D01*
X108213664Y-69422989D01*
X108221804Y-69477310D01*
X108224500Y-69477310D01*
X108224500Y-70273160D01*
X108204815Y-70340199D01*
X108188182Y-70360841D01*
X108124500Y-70424523D01*
X108058608Y-70538649D01*
X108024500Y-70665945D01*
X108024500Y-70797728D01*
X108058608Y-70925024D01*
X108079498Y-70961206D01*
X108124500Y-71039151D01*
X108217686Y-71132337D01*
X108331814Y-71198229D01*
X108442427Y-71227867D01*
X108502085Y-71264231D01*
X108532615Y-71327077D01*
X108533690Y-71335038D01*
X108535494Y-71352697D01*
X108590641Y-71519119D01*
X108590643Y-71519124D01*
X108682684Y-71668345D01*
X108806654Y-71792315D01*
X108955875Y-71884356D01*
X108955880Y-71884358D01*
X109122302Y-71939505D01*
X109122309Y-71939506D01*
X109225019Y-71949999D01*
X109499999Y-71949999D01*
X109500000Y-71949998D01*
X109500000Y-71074000D01*
X109519685Y-71006961D01*
X109572489Y-70961206D01*
X109624000Y-70950000D01*
X109750000Y-70950000D01*
X109750000Y-70824000D01*
X109769685Y-70756961D01*
X109822489Y-70711206D01*
X109874000Y-70700000D01*
X110974999Y-70700000D01*
X110974999Y-70650028D01*
X110974998Y-70650013D01*
X110964505Y-70547302D01*
X110909358Y-70380880D01*
X110909356Y-70380875D01*
X110817315Y-70231654D01*
X110693345Y-70107684D01*
X110544124Y-70015643D01*
X110544119Y-70015641D01*
X110375917Y-69959905D01*
X110318472Y-69920133D01*
X110291649Y-69855617D01*
X110303964Y-69786841D01*
X110351507Y-69735641D01*
X110373966Y-69725158D01*
X110379276Y-69723300D01*
X110437882Y-69702793D01*
X110547150Y-69622150D01*
X110627793Y-69512882D01*
X110659248Y-69422989D01*
X110672646Y-69384701D01*
X110672646Y-69384699D01*
X110675500Y-69354269D01*
X110675500Y-68745730D01*
X110672646Y-68715300D01*
X110672646Y-68715298D01*
X110627793Y-68587119D01*
X110627792Y-68587117D01*
X110547150Y-68477850D01*
X110437882Y-68397207D01*
X110437880Y-68397206D01*
X110309700Y-68352353D01*
X110279270Y-68349500D01*
X110279266Y-68349500D01*
X109220734Y-68349500D01*
X109220730Y-68349500D01*
X109190300Y-68352353D01*
X109190298Y-68352353D01*
X109062119Y-68397206D01*
X109062117Y-68397207D01*
X108952850Y-68477850D01*
X108872207Y-68587117D01*
X108844445Y-68666456D01*
X108803723Y-68723231D01*
X108738770Y-68748978D01*
X108727404Y-68749500D01*
X106474500Y-68749500D01*
X106407461Y-68729815D01*
X106361706Y-68677011D01*
X106350500Y-68625500D01*
X106350500Y-65022595D01*
X106370185Y-64955556D01*
X106422989Y-64909801D01*
X106433523Y-64905561D01*
X106512882Y-64877793D01*
X106622150Y-64797150D01*
X106702793Y-64687882D01*
X106725158Y-64623964D01*
X106765877Y-64567192D01*
X106830830Y-64541444D01*
X106899392Y-64554900D01*
X106949795Y-64603287D01*
X106959904Y-64625917D01*
X107015642Y-64794121D01*
X107015643Y-64794124D01*
X107107684Y-64943345D01*
X107231654Y-65067315D01*
X107380875Y-65159356D01*
X107380880Y-65159358D01*
X107547302Y-65214505D01*
X107547309Y-65214506D01*
X107650019Y-65224999D01*
X108200000Y-65224999D01*
X108249972Y-65224999D01*
X108249986Y-65224998D01*
X108352697Y-65214505D01*
X108519119Y-65159358D01*
X108519124Y-65159356D01*
X108668345Y-65067315D01*
X108792315Y-64943345D01*
X108884356Y-64794124D01*
X108884358Y-64794119D01*
X108939505Y-64627697D01*
X108939506Y-64627690D01*
X108949999Y-64524986D01*
X108950000Y-64524973D01*
X108950000Y-64250000D01*
X108200000Y-64250000D01*
X108200000Y-65224999D01*
X107650019Y-65224999D01*
X107699999Y-65224998D01*
X107700000Y-65224998D01*
X107700000Y-63750000D01*
X108200000Y-63750000D01*
X108949999Y-63750000D01*
X108949999Y-63475028D01*
X108949998Y-63475013D01*
X108939505Y-63372302D01*
X108884358Y-63205880D01*
X108884356Y-63205875D01*
X108792315Y-63056654D01*
X108668345Y-62932684D01*
X108519124Y-62840643D01*
X108519119Y-62840641D01*
X108352697Y-62785494D01*
X108352690Y-62785493D01*
X108249986Y-62775000D01*
X108200000Y-62775000D01*
X108200000Y-63750000D01*
X107700000Y-63750000D01*
X107700000Y-62775000D01*
X107699999Y-62774999D01*
X107650029Y-62775000D01*
X107650011Y-62775001D01*
X107547302Y-62785494D01*
X107380880Y-62840641D01*
X107380875Y-62840643D01*
X107231654Y-62932684D01*
X107107684Y-63056654D01*
X107015643Y-63205875D01*
X107015641Y-63205880D01*
X106959905Y-63374082D01*
X106920132Y-63431527D01*
X106855617Y-63458350D01*
X106786841Y-63446035D01*
X106735641Y-63398492D01*
X106725158Y-63376033D01*
X106702793Y-63312119D01*
X106702792Y-63312117D01*
X106622150Y-63202850D01*
X106512882Y-63122207D01*
X106512880Y-63122206D01*
X106384700Y-63077353D01*
X106354270Y-63074500D01*
X106354266Y-63074500D01*
X105745734Y-63074500D01*
X105745730Y-63074500D01*
X105715305Y-63077353D01*
X105715298Y-63077354D01*
X105668110Y-63093866D01*
X105598332Y-63097427D01*
X105539476Y-63064505D01*
X103968819Y-61493848D01*
X103935334Y-61432525D01*
X103932500Y-61406167D01*
X103932500Y-60524986D01*
X105050001Y-60524986D01*
X105060494Y-60627697D01*
X105115641Y-60794119D01*
X105115643Y-60794124D01*
X105207684Y-60943345D01*
X105331654Y-61067315D01*
X105480875Y-61159356D01*
X105480880Y-61159358D01*
X105647302Y-61214505D01*
X105647309Y-61214506D01*
X105750019Y-61224999D01*
X105799999Y-61224998D01*
X105800000Y-61224998D01*
X105800000Y-60250000D01*
X105050001Y-60250000D01*
X105050001Y-60524986D01*
X103932500Y-60524986D01*
X103932500Y-59475013D01*
X105050000Y-59475013D01*
X105050000Y-59750000D01*
X105800000Y-59750000D01*
X105800000Y-58775000D01*
X106300000Y-58775000D01*
X106300000Y-61224999D01*
X106349972Y-61224999D01*
X106349986Y-61224998D01*
X106452697Y-61214505D01*
X106619119Y-61159358D01*
X106619124Y-61159356D01*
X106768345Y-61067315D01*
X106892315Y-60943345D01*
X106984356Y-60794124D01*
X106984359Y-60794117D01*
X107040094Y-60625918D01*
X107079866Y-60568473D01*
X107144382Y-60541649D01*
X107213158Y-60553964D01*
X107264358Y-60601506D01*
X107274841Y-60623965D01*
X107296027Y-60684511D01*
X107297207Y-60687882D01*
X107377850Y-60797150D01*
X107487118Y-60877793D01*
X107529845Y-60892744D01*
X107615299Y-60922646D01*
X107645730Y-60925500D01*
X107645734Y-60925500D01*
X108254270Y-60925500D01*
X108284699Y-60922646D01*
X108284701Y-60922646D01*
X108348790Y-60900219D01*
X108412882Y-60877793D01*
X108522150Y-60797150D01*
X108602793Y-60687882D01*
X108644576Y-60568473D01*
X108647647Y-60559698D01*
X108648010Y-60558037D01*
X108648615Y-60556929D01*
X108650139Y-60552577D01*
X108650859Y-60552829D01*
X108681548Y-60496743D01*
X108742900Y-60463311D01*
X108769153Y-60460500D01*
X110875500Y-60460500D01*
X110942539Y-60480185D01*
X110988294Y-60532989D01*
X110999500Y-60584500D01*
X110999500Y-61929752D01*
X111011131Y-61988229D01*
X111011132Y-61988230D01*
X111055447Y-62054552D01*
X111121769Y-62098867D01*
X111121770Y-62098868D01*
X111180247Y-62110499D01*
X111180250Y-62110500D01*
X111180252Y-62110500D01*
X112525500Y-62110500D01*
X112592539Y-62130185D01*
X112638294Y-62182989D01*
X112649500Y-62234500D01*
X112649500Y-68239562D01*
X112663152Y-68290513D01*
X112669979Y-68315990D01*
X112669982Y-68315995D01*
X112709535Y-68384504D01*
X112709541Y-68384512D01*
X112962848Y-68637819D01*
X112996333Y-68699142D01*
X112991349Y-68768834D01*
X112949477Y-68824767D01*
X112884013Y-68849184D01*
X112875167Y-68849500D01*
X111745730Y-68849500D01*
X111715300Y-68852353D01*
X111715298Y-68852353D01*
X111587119Y-68897206D01*
X111587117Y-68897207D01*
X111477850Y-68977850D01*
X111397207Y-69087117D01*
X111397206Y-69087119D01*
X111352353Y-69215298D01*
X111352353Y-69215300D01*
X111349500Y-69245730D01*
X111349500Y-69954269D01*
X111352353Y-69984699D01*
X111352353Y-69984701D01*
X111395388Y-70107684D01*
X111397207Y-70112882D01*
X111477850Y-70222150D01*
X111587118Y-70302793D01*
X111617853Y-70313547D01*
X111673326Y-70332959D01*
X111730102Y-70373681D01*
X111755849Y-70438634D01*
X111742392Y-70507195D01*
X111694005Y-70557598D01*
X111673326Y-70567041D01*
X111587119Y-70597206D01*
X111587117Y-70597207D01*
X111477850Y-70677850D01*
X111397207Y-70787117D01*
X111397206Y-70787119D01*
X111352353Y-70915298D01*
X111352353Y-70915300D01*
X111349500Y-70945730D01*
X111349500Y-71024166D01*
X111340855Y-71053606D01*
X111334332Y-71083593D01*
X111330577Y-71088608D01*
X111329815Y-71091205D01*
X111313181Y-71111847D01*
X111186681Y-71238347D01*
X111125358Y-71271832D01*
X111055666Y-71266848D01*
X111012845Y-71234792D01*
X111011319Y-71236319D01*
X111000699Y-71225699D01*
X110999733Y-71224976D01*
X110999588Y-71224588D01*
X110975000Y-71200000D01*
X110000000Y-71200000D01*
X110000000Y-71949999D01*
X110175667Y-71949999D01*
X110242706Y-71969684D01*
X110288461Y-72022488D01*
X110298405Y-72091646D01*
X110269380Y-72155202D01*
X110263348Y-72161680D01*
X109655525Y-72769502D01*
X109594202Y-72802987D01*
X109524510Y-72798003D01*
X109480163Y-72769502D01*
X109368345Y-72657684D01*
X109219124Y-72565643D01*
X109219119Y-72565641D01*
X109052697Y-72510494D01*
X109052690Y-72510493D01*
X108949986Y-72500000D01*
X108500000Y-72500000D01*
X108500000Y-75999999D01*
X108949972Y-75999999D01*
X108949986Y-75999998D01*
X109013898Y-75993469D01*
X109082591Y-76006238D01*
X109133475Y-76054119D01*
X109150500Y-76116827D01*
X109150500Y-76685608D01*
X109130815Y-76752647D01*
X109078011Y-76798402D01*
X109008853Y-76808346D01*
X108985547Y-76802650D01*
X108984699Y-76802353D01*
X108954270Y-76799500D01*
X108954266Y-76799500D01*
X107545734Y-76799500D01*
X107545730Y-76799500D01*
X107515300Y-76802353D01*
X107515298Y-76802353D01*
X107387119Y-76847206D01*
X107387117Y-76847207D01*
X107277850Y-76927850D01*
X107197207Y-77037117D01*
X107197206Y-77037119D01*
X107152353Y-77165298D01*
X107152353Y-77165300D01*
X107149500Y-77195730D01*
X107149500Y-79304269D01*
X107152353Y-79334699D01*
X107152353Y-79334701D01*
X107188933Y-79439237D01*
X107197207Y-79462882D01*
X107277850Y-79572150D01*
X107387118Y-79652793D01*
X107429845Y-79667744D01*
X107515299Y-79697646D01*
X107545730Y-79700500D01*
X107545734Y-79700500D01*
X107825500Y-79700500D01*
X107892539Y-79720185D01*
X107938294Y-79772989D01*
X107949500Y-79824500D01*
X107949500Y-80789562D01*
X107962450Y-80837892D01*
X107969979Y-80865990D01*
X107969980Y-80865991D01*
X107982680Y-80887988D01*
X107982681Y-80887989D01*
X108009539Y-80934509D01*
X108009541Y-80934512D01*
X111163475Y-84088446D01*
X111196960Y-84149769D01*
X111191976Y-84219461D01*
X111150104Y-84275394D01*
X111144687Y-84279228D01*
X111105447Y-84305448D01*
X111061132Y-84371769D01*
X111061131Y-84371770D01*
X111049500Y-84430247D01*
X111049500Y-88069752D01*
X111061131Y-88128229D01*
X111061132Y-88128230D01*
X111105447Y-88194552D01*
X111171769Y-88238867D01*
X111171770Y-88238868D01*
X111230247Y-88250499D01*
X111230250Y-88250500D01*
X111230252Y-88250500D01*
X113969750Y-88250500D01*
X113969751Y-88250499D01*
X113984568Y-88247552D01*
X114028229Y-88238868D01*
X114028229Y-88238867D01*
X114028231Y-88238867D01*
X114094552Y-88194552D01*
X114138867Y-88128231D01*
X114138867Y-88128229D01*
X114138868Y-88128229D01*
X114150499Y-88069752D01*
X114150500Y-88069750D01*
X114150500Y-84430249D01*
X114150499Y-84430247D01*
X114138868Y-84371770D01*
X114138867Y-84371769D01*
X114094552Y-84305447D01*
X114028230Y-84261132D01*
X114028229Y-84261131D01*
X113969752Y-84249500D01*
X113969748Y-84249500D01*
X112225833Y-84249500D01*
X112158794Y-84229815D01*
X112138152Y-84213181D01*
X108586819Y-80661848D01*
X108553334Y-80600525D01*
X108550500Y-80574167D01*
X108550500Y-79824500D01*
X108570185Y-79757461D01*
X108622989Y-79711706D01*
X108674500Y-79700500D01*
X108954270Y-79700500D01*
X108984699Y-79697646D01*
X108984701Y-79697646D01*
X109056111Y-79672658D01*
X109112882Y-79652793D01*
X109222150Y-79572150D01*
X109302793Y-79462882D01*
X109346059Y-79339235D01*
X109347646Y-79334701D01*
X109347646Y-79334699D01*
X109350500Y-79304269D01*
X109350500Y-77625833D01*
X109370185Y-77558794D01*
X109386819Y-77538152D01*
X109485466Y-77439505D01*
X109691460Y-77233511D01*
X109713270Y-77195734D01*
X109731021Y-77164989D01*
X109751500Y-77088562D01*
X109751500Y-76749986D01*
X111050001Y-76749986D01*
X111060494Y-76852697D01*
X111115641Y-77019119D01*
X111115643Y-77019124D01*
X111207684Y-77168345D01*
X111331654Y-77292315D01*
X111480875Y-77384356D01*
X111480880Y-77384358D01*
X111647302Y-77439505D01*
X111647309Y-77439506D01*
X111750019Y-77449999D01*
X113599999Y-77449999D01*
X113600000Y-77449998D01*
X113600000Y-76650000D01*
X111050001Y-76650000D01*
X111050001Y-76749986D01*
X109751500Y-76749986D01*
X109751500Y-74599504D01*
X109756210Y-74583462D01*
X109755905Y-74566747D01*
X109765850Y-74550631D01*
X109771185Y-74532465D01*
X109783818Y-74521518D01*
X109792600Y-74507289D01*
X109809680Y-74499108D01*
X109823989Y-74486710D01*
X109841010Y-74484103D01*
X109855615Y-74477109D01*
X109878994Y-74478287D01*
X109890903Y-74476464D01*
X109899350Y-74477521D01*
X109985108Y-74500500D01*
X110082902Y-74500500D01*
X110090570Y-74501460D01*
X110115808Y-74512433D01*
X110142206Y-74520185D01*
X110152249Y-74528278D01*
X110154645Y-74529320D01*
X110155934Y-74531247D01*
X110162848Y-74536819D01*
X110510540Y-74884511D01*
X110566489Y-74940460D01*
X110566491Y-74940461D01*
X110566495Y-74940464D01*
X110629361Y-74976759D01*
X110635011Y-74980021D01*
X110711438Y-75000500D01*
X111234908Y-75000500D01*
X111301947Y-75020185D01*
X111347702Y-75072989D01*
X111351949Y-75083544D01*
X111379872Y-75163341D01*
X111397207Y-75212882D01*
X111446190Y-75279252D01*
X111470161Y-75344880D01*
X111454846Y-75413050D01*
X111411518Y-75458423D01*
X111331656Y-75507682D01*
X111207684Y-75631654D01*
X111115643Y-75780875D01*
X111115641Y-75780880D01*
X111060494Y-75947302D01*
X111060493Y-75947309D01*
X111050000Y-76050013D01*
X111050000Y-76150000D01*
X113726000Y-76150000D01*
X113793039Y-76169685D01*
X113838794Y-76222489D01*
X113850000Y-76274000D01*
X113850000Y-76400000D01*
X113976000Y-76400000D01*
X114043039Y-76419685D01*
X114088794Y-76472489D01*
X114100000Y-76524000D01*
X114100000Y-77449999D01*
X115949972Y-77449999D01*
X115949986Y-77449998D01*
X116052697Y-77439505D01*
X116219119Y-77384358D01*
X116219124Y-77384356D01*
X116368346Y-77292315D01*
X116374007Y-77287839D01*
X116375906Y-77290241D01*
X116425142Y-77263357D01*
X116494834Y-77268341D01*
X116550767Y-77310213D01*
X116575184Y-77375677D01*
X116575500Y-77384523D01*
X116575500Y-77915562D01*
X116581374Y-77937482D01*
X116595979Y-77991990D01*
X116595980Y-77991991D01*
X116606112Y-78009540D01*
X116606113Y-78009541D01*
X116635539Y-78060509D01*
X116635541Y-78060512D01*
X120563181Y-81988152D01*
X120596666Y-82049475D01*
X120599500Y-82075833D01*
X120599500Y-84125500D01*
X120579815Y-84192539D01*
X120527011Y-84238294D01*
X120475500Y-84249500D01*
X119530247Y-84249500D01*
X119471770Y-84261131D01*
X119471769Y-84261132D01*
X119405447Y-84305447D01*
X119361132Y-84371769D01*
X119361131Y-84371770D01*
X119349500Y-84430247D01*
X119349500Y-88069752D01*
X119361131Y-88128229D01*
X119361132Y-88128230D01*
X119405447Y-88194552D01*
X119471769Y-88238867D01*
X119471770Y-88238868D01*
X119530247Y-88250499D01*
X119530250Y-88250500D01*
X119530252Y-88250500D01*
X122269750Y-88250500D01*
X122269751Y-88250499D01*
X122284568Y-88247552D01*
X122328229Y-88238868D01*
X122328229Y-88238867D01*
X122328231Y-88238867D01*
X122394552Y-88194552D01*
X122438867Y-88128231D01*
X122438867Y-88128229D01*
X122438868Y-88128229D01*
X122450499Y-88069752D01*
X122450500Y-88069750D01*
X122450500Y-84430249D01*
X122450499Y-84430247D01*
X122438868Y-84371770D01*
X122438867Y-84371769D01*
X122394552Y-84305447D01*
X122328230Y-84261132D01*
X122328229Y-84261131D01*
X122269752Y-84249500D01*
X122269748Y-84249500D01*
X121324500Y-84249500D01*
X121257461Y-84229815D01*
X121211706Y-84177011D01*
X121200500Y-84125500D01*
X121200500Y-81860439D01*
X121180020Y-81784009D01*
X121180017Y-81784004D01*
X121140464Y-81715495D01*
X121140458Y-81715487D01*
X118536651Y-79111680D01*
X118503166Y-79050357D01*
X118508150Y-78980665D01*
X118550022Y-78924732D01*
X118615486Y-78900315D01*
X118624332Y-78899999D01*
X122749999Y-78899999D01*
X123250000Y-78899999D01*
X127499970Y-78899999D01*
X127499984Y-78899998D01*
X127602695Y-78889505D01*
X127769117Y-78834358D01*
X127769122Y-78834356D01*
X127918344Y-78742315D01*
X128042315Y-78618344D01*
X128134356Y-78469122D01*
X128134358Y-78469117D01*
X128189505Y-78302695D01*
X128189506Y-78302688D01*
X128199999Y-78199984D01*
X128200000Y-78199971D01*
X128200000Y-73250000D01*
X123250000Y-73250000D01*
X123250000Y-78899999D01*
X122749999Y-78899999D01*
X122750000Y-78899998D01*
X122750000Y-73250000D01*
X117800001Y-73250000D01*
X117800001Y-78075668D01*
X117780316Y-78142707D01*
X117727512Y-78188462D01*
X117658354Y-78198406D01*
X117594798Y-78169381D01*
X117588320Y-78163349D01*
X117212819Y-77787848D01*
X117179334Y-77726525D01*
X117176500Y-77700167D01*
X117176500Y-74886439D01*
X117176500Y-74886438D01*
X117156021Y-74810011D01*
X117149664Y-74799000D01*
X117116464Y-74741495D01*
X117116458Y-74741487D01*
X116759512Y-74384541D01*
X116759504Y-74384535D01*
X116690995Y-74344982D01*
X116690990Y-74344979D01*
X116658159Y-74336182D01*
X116614562Y-74324500D01*
X116614560Y-74324500D01*
X116438847Y-74324500D01*
X116371808Y-74304815D01*
X116330468Y-74260749D01*
X116325312Y-74251474D01*
X116302793Y-74187118D01*
X116249071Y-74114328D01*
X116245200Y-74107363D01*
X116239199Y-74080748D01*
X116229838Y-74055119D01*
X116231625Y-74047160D01*
X116229832Y-74039204D01*
X116239172Y-74013569D01*
X116245153Y-73986949D01*
X116251167Y-73980651D01*
X116253752Y-73973557D01*
X116269054Y-73961919D01*
X116288483Y-73941575D01*
X116368343Y-73892317D01*
X116492315Y-73768345D01*
X116584356Y-73619124D01*
X116584358Y-73619119D01*
X116639505Y-73452697D01*
X116639506Y-73452690D01*
X116649999Y-73349986D01*
X116650000Y-73349973D01*
X116650000Y-73250000D01*
X111050001Y-73250000D01*
X111050001Y-73349986D01*
X111060494Y-73452697D01*
X111115641Y-73619119D01*
X111115643Y-73619124D01*
X111207684Y-73768345D01*
X111331654Y-73892315D01*
X111411517Y-73941575D01*
X111458241Y-73993523D01*
X111469464Y-74062486D01*
X111446190Y-74120747D01*
X111397209Y-74187113D01*
X111397207Y-74187117D01*
X111351949Y-74316456D01*
X111311227Y-74373231D01*
X111246274Y-74398978D01*
X111234908Y-74399500D01*
X110926833Y-74399500D01*
X110859794Y-74379815D01*
X110839152Y-74363181D01*
X110587819Y-74111848D01*
X110554334Y-74050525D01*
X110551500Y-74024167D01*
X110551500Y-73934110D01*
X110551500Y-73934108D01*
X110517392Y-73806814D01*
X110451500Y-73692686D01*
X110358314Y-73599500D01*
X110274038Y-73550843D01*
X110244187Y-73533608D01*
X110180539Y-73516554D01*
X110116892Y-73499500D01*
X110074833Y-73499500D01*
X110007794Y-73479815D01*
X109962039Y-73427011D01*
X109952095Y-73357853D01*
X109981120Y-73294297D01*
X109987152Y-73287819D01*
X110412385Y-72862586D01*
X110855482Y-72419487D01*
X110916805Y-72386003D01*
X110986496Y-72390987D01*
X111042430Y-72432859D01*
X111066847Y-72498323D01*
X111061564Y-72540614D01*
X111061911Y-72540689D01*
X111061055Y-72544682D01*
X111060870Y-72546171D01*
X111060494Y-72547304D01*
X111060493Y-72547309D01*
X111050000Y-72650013D01*
X111050000Y-72750000D01*
X116649999Y-72750000D01*
X116649999Y-72650028D01*
X116649998Y-72650013D01*
X116639505Y-72547302D01*
X116584358Y-72380880D01*
X116584356Y-72380875D01*
X116492315Y-72231654D01*
X116368343Y-72107682D01*
X116288482Y-72058423D01*
X116241758Y-72006475D01*
X116230537Y-71937512D01*
X116253809Y-71879253D01*
X116302793Y-71812882D01*
X116325219Y-71748790D01*
X116347646Y-71684701D01*
X116347646Y-71684699D01*
X116350500Y-71654269D01*
X116350500Y-70945730D01*
X116347646Y-70915300D01*
X116347646Y-70915298D01*
X116306506Y-70797729D01*
X116302793Y-70787118D01*
X116222150Y-70677850D01*
X116112882Y-70597207D01*
X116112880Y-70597206D01*
X116026673Y-70567041D01*
X115969897Y-70526319D01*
X115944150Y-70461367D01*
X115957606Y-70392805D01*
X116005994Y-70342402D01*
X116026673Y-70332959D01*
X116055442Y-70322892D01*
X116112882Y-70302793D01*
X116222150Y-70222150D01*
X116302793Y-70112882D01*
X116332811Y-70027096D01*
X116347646Y-69984701D01*
X116347646Y-69984699D01*
X116350500Y-69954269D01*
X116350500Y-69245730D01*
X116347646Y-69215300D01*
X116347646Y-69215298D01*
X116302793Y-69087119D01*
X116302792Y-69087117D01*
X116276525Y-69051526D01*
X116222150Y-68977850D01*
X116112882Y-68897207D01*
X116112880Y-68897206D01*
X115984700Y-68852353D01*
X115954270Y-68849500D01*
X115954266Y-68849500D01*
X114075833Y-68849500D01*
X114008794Y-68829815D01*
X113988152Y-68813181D01*
X113286819Y-68111848D01*
X113272115Y-68084920D01*
X113255523Y-68059102D01*
X113254631Y-68052901D01*
X113253334Y-68050525D01*
X113250500Y-68024167D01*
X113250500Y-67800015D01*
X117800000Y-67800015D01*
X117800000Y-72750000D01*
X122750000Y-72750000D01*
X123250000Y-72750000D01*
X128199999Y-72750000D01*
X128199999Y-67800030D01*
X128199998Y-67800015D01*
X128189505Y-67697304D01*
X128134358Y-67530882D01*
X128134356Y-67530877D01*
X128042315Y-67381655D01*
X127918344Y-67257684D01*
X127769122Y-67165643D01*
X127769117Y-67165641D01*
X127602695Y-67110494D01*
X127602688Y-67110493D01*
X127499984Y-67100000D01*
X123250000Y-67100000D01*
X123250000Y-72750000D01*
X122750000Y-72750000D01*
X122750000Y-67100000D01*
X118500030Y-67100000D01*
X118500014Y-67100001D01*
X118397304Y-67110494D01*
X118230882Y-67165641D01*
X118230877Y-67165643D01*
X118081655Y-67257684D01*
X117957684Y-67381655D01*
X117865643Y-67530877D01*
X117865641Y-67530882D01*
X117810494Y-67697304D01*
X117810493Y-67697311D01*
X117800000Y-67800015D01*
X113250500Y-67800015D01*
X113250500Y-62234500D01*
X113270185Y-62167461D01*
X113322989Y-62121706D01*
X113374500Y-62110500D01*
X114719750Y-62110500D01*
X114719751Y-62110499D01*
X114734568Y-62107552D01*
X114778229Y-62098868D01*
X114778229Y-62098867D01*
X114778231Y-62098867D01*
X114844552Y-62054552D01*
X114888867Y-61988231D01*
X114888867Y-61988229D01*
X114888868Y-61988229D01*
X114900499Y-61929752D01*
X114900500Y-61929750D01*
X114900500Y-59095803D01*
X116950000Y-59095803D01*
X116950000Y-59910000D01*
X118450000Y-59910000D01*
X118450000Y-60410000D01*
X116950001Y-60410000D01*
X116950001Y-61224197D01*
X116960400Y-61356332D01*
X117015377Y-61574519D01*
X117108428Y-61779374D01*
X117108431Y-61779380D01*
X117236559Y-61964323D01*
X117236569Y-61964335D01*
X117395664Y-62123430D01*
X117395676Y-62123440D01*
X117580619Y-62251568D01*
X117580625Y-62251571D01*
X117785480Y-62344622D01*
X118003667Y-62399599D01*
X118135810Y-62409999D01*
X118699999Y-62409999D01*
X118700000Y-62409998D01*
X118700000Y-61593012D01*
X118757007Y-61625925D01*
X118884174Y-61660000D01*
X119015826Y-61660000D01*
X119142993Y-61625925D01*
X119200000Y-61593012D01*
X119200000Y-62409999D01*
X119764182Y-62409999D01*
X119764197Y-62409998D01*
X119896332Y-62399599D01*
X120114519Y-62344622D01*
X120319374Y-62251571D01*
X120319380Y-62251568D01*
X120504323Y-62123440D01*
X120504335Y-62123430D01*
X120663430Y-61964335D01*
X120663440Y-61964323D01*
X120791568Y-61779380D01*
X120791571Y-61779374D01*
X120884622Y-61574519D01*
X120939599Y-61356332D01*
X120949999Y-61224196D01*
X120950000Y-61224184D01*
X120950000Y-60410000D01*
X119450000Y-60410000D01*
X119450000Y-59910000D01*
X120949999Y-59910000D01*
X120949999Y-59095817D01*
X120949998Y-59095802D01*
X120939599Y-58963667D01*
X120884622Y-58745480D01*
X120791571Y-58540625D01*
X120791568Y-58540619D01*
X120663440Y-58355676D01*
X120663430Y-58355664D01*
X120504335Y-58196569D01*
X120504323Y-58196559D01*
X120319380Y-58068431D01*
X120319374Y-58068428D01*
X120114519Y-57975377D01*
X119896332Y-57920400D01*
X119764196Y-57910000D01*
X119200000Y-57910000D01*
X119200000Y-58726988D01*
X119142993Y-58694075D01*
X119015826Y-58660000D01*
X118884174Y-58660000D01*
X118757007Y-58694075D01*
X118700000Y-58726988D01*
X118700000Y-57910000D01*
X118135817Y-57910000D01*
X118135802Y-57910001D01*
X118003667Y-57920400D01*
X117785480Y-57975377D01*
X117580625Y-58068428D01*
X117580619Y-58068431D01*
X117395676Y-58196559D01*
X117395664Y-58196569D01*
X117236569Y-58355664D01*
X117236559Y-58355676D01*
X117108431Y-58540619D01*
X117108428Y-58540625D01*
X117015377Y-58745480D01*
X116960400Y-58963667D01*
X116950000Y-59095803D01*
X114900500Y-59095803D01*
X114900500Y-58390249D01*
X114900499Y-58390247D01*
X114888868Y-58331770D01*
X114888867Y-58331769D01*
X114844552Y-58265447D01*
X114778230Y-58221132D01*
X114778229Y-58221131D01*
X114719752Y-58209500D01*
X114719748Y-58209500D01*
X111180252Y-58209500D01*
X111180247Y-58209500D01*
X111121770Y-58221131D01*
X111121769Y-58221132D01*
X111055447Y-58265447D01*
X111011132Y-58331769D01*
X111011131Y-58331770D01*
X110999500Y-58390247D01*
X110999500Y-59735500D01*
X110979815Y-59802539D01*
X110927011Y-59848294D01*
X110875500Y-59859500D01*
X108814833Y-59859500D01*
X108747794Y-59839815D01*
X108702039Y-59787011D01*
X108692095Y-59717853D01*
X108721120Y-59654297D01*
X108727152Y-59647819D01*
X109067661Y-59307310D01*
X109460460Y-58914511D01*
X109480723Y-58879414D01*
X109500021Y-58845989D01*
X109520500Y-58769562D01*
X109520500Y-55969879D01*
X109540185Y-55902840D01*
X109592989Y-55857085D01*
X109606182Y-55851948D01*
X109609992Y-55850709D01*
X109719219Y-55815220D01*
X109901610Y-55722287D01*
X109994590Y-55654732D01*
X110067213Y-55601971D01*
X110067215Y-55601968D01*
X110067219Y-55601966D01*
X110211966Y-55457219D01*
X110211968Y-55457215D01*
X110211971Y-55457213D01*
X110264732Y-55384590D01*
X110332287Y-55291610D01*
X110425220Y-55109219D01*
X110488477Y-54914534D01*
X110520500Y-54712352D01*
X110520500Y-54507648D01*
X110519745Y-54502882D01*
X113999500Y-54502882D01*
X113999500Y-56417118D01*
X114002249Y-56463263D01*
X114002249Y-56463267D01*
X114002250Y-56463268D01*
X114045907Y-56663961D01*
X114045909Y-56663968D01*
X114125853Y-56850652D01*
X114126763Y-56852777D01*
X114139296Y-56871294D01*
X114241882Y-57022868D01*
X114241890Y-57022877D01*
X114387122Y-57168109D01*
X114387131Y-57168117D01*
X114467349Y-57222409D01*
X114557223Y-57283237D01*
X114557228Y-57283239D01*
X114746031Y-57364090D01*
X114746038Y-57364092D01*
X114812935Y-57378644D01*
X114946737Y-57407751D01*
X114992882Y-57410500D01*
X114992893Y-57410500D01*
X116907107Y-57410500D01*
X116907118Y-57410500D01*
X116953263Y-57407751D01*
X117128954Y-57369531D01*
X117153961Y-57364092D01*
X117153968Y-57364090D01*
X117249760Y-57323069D01*
X117342777Y-57283237D01*
X117512875Y-57168112D01*
X117658112Y-57022875D01*
X117773237Y-56852777D01*
X117848366Y-56677334D01*
X117854090Y-56663968D01*
X117854092Y-56663961D01*
X117875176Y-56567039D01*
X117897751Y-56463263D01*
X117900500Y-56417118D01*
X117900500Y-54502882D01*
X117897751Y-54456737D01*
X117854091Y-54256035D01*
X117854090Y-54256031D01*
X117773239Y-54067228D01*
X117773237Y-54067223D01*
X117679273Y-53928390D01*
X117658117Y-53897131D01*
X117658109Y-53897122D01*
X117512877Y-53751890D01*
X117512868Y-53751882D01*
X117342781Y-53636766D01*
X117342777Y-53636763D01*
X117342773Y-53636761D01*
X117342771Y-53636760D01*
X117153968Y-53555909D01*
X117153961Y-53555907D01*
X116953268Y-53512250D01*
X116953267Y-53512249D01*
X116953263Y-53512249D01*
X116907118Y-53509500D01*
X114992882Y-53509500D01*
X114946737Y-53512249D01*
X114946732Y-53512249D01*
X114946731Y-53512250D01*
X114746038Y-53555907D01*
X114746031Y-53555909D01*
X114557228Y-53636760D01*
X114557218Y-53636766D01*
X114387131Y-53751882D01*
X114387122Y-53751890D01*
X114241890Y-53897122D01*
X114241882Y-53897131D01*
X114126766Y-54067218D01*
X114126760Y-54067228D01*
X114045909Y-54256031D01*
X114045907Y-54256038D01*
X114002250Y-54456731D01*
X114002249Y-54456737D01*
X113999500Y-54502882D01*
X110519745Y-54502882D01*
X110488477Y-54305466D01*
X110425220Y-54110781D01*
X110425218Y-54110778D01*
X110425218Y-54110776D01*
X110390449Y-54042540D01*
X110332287Y-53928390D01*
X110309570Y-53897122D01*
X110211971Y-53762786D01*
X110119758Y-53670573D01*
X110086273Y-53609250D01*
X110091257Y-53539558D01*
X110119756Y-53495213D01*
X115937821Y-47677148D01*
X115999142Y-47643665D01*
X116068834Y-47648649D01*
X116124767Y-47690521D01*
X116149184Y-47755985D01*
X116149500Y-47764831D01*
X116149500Y-48171757D01*
X116152354Y-48202198D01*
X116152354Y-48202199D01*
X116197206Y-48330381D01*
X116197207Y-48330382D01*
X116277850Y-48439650D01*
X116387118Y-48520293D01*
X116515302Y-48565146D01*
X116515301Y-48565146D01*
X116519271Y-48565518D01*
X116545735Y-48568000D01*
X118954264Y-48567999D01*
X118984698Y-48565146D01*
X119112882Y-48520293D01*
X119222150Y-48439650D01*
X119302793Y-48330382D01*
X119347646Y-48202198D01*
X119350500Y-48171765D01*
X119350499Y-45763236D01*
X119347646Y-45732802D01*
X119302793Y-45604618D01*
X119222150Y-45495350D01*
X119112882Y-45414707D01*
X119112881Y-45414706D01*
X118984695Y-45369853D01*
X118984698Y-45369853D01*
X118954268Y-45367000D01*
X116545741Y-45367000D01*
X116515301Y-45369854D01*
X116515300Y-45369854D01*
X116387118Y-45414706D01*
X116277850Y-45495350D01*
X116197206Y-45604618D01*
X116152353Y-45732802D01*
X116149500Y-45763231D01*
X116149500Y-46591067D01*
X116129815Y-46658106D01*
X116087501Y-46698454D01*
X116037989Y-46727039D01*
X116037987Y-46727041D01*
X109481994Y-53283033D01*
X109420671Y-53316518D01*
X109374916Y-53317825D01*
X109322352Y-53309500D01*
X109117648Y-53309500D01*
X109093329Y-53313351D01*
X108915465Y-53341522D01*
X108720776Y-53404781D01*
X108538386Y-53497715D01*
X108372786Y-53618028D01*
X108228028Y-53762786D01*
X108107715Y-53928386D01*
X108014781Y-54110776D01*
X107951522Y-54305465D01*
X107919500Y-54507648D01*
X107919500Y-54712351D01*
X107951522Y-54914534D01*
X108014781Y-55109223D01*
X108107715Y-55291613D01*
X108228028Y-55457213D01*
X108372786Y-55601971D01*
X108468473Y-55671490D01*
X108538390Y-55722287D01*
X108720781Y-55815220D01*
X108828852Y-55850334D01*
X108833818Y-55851948D01*
X108891494Y-55891386D01*
X108918692Y-55955744D01*
X108919500Y-55969879D01*
X108919500Y-58554166D01*
X108899815Y-58621205D01*
X108883181Y-58641847D01*
X108460523Y-59064504D01*
X108399200Y-59097989D01*
X108331889Y-59093865D01*
X108284699Y-59077353D01*
X108254270Y-59074500D01*
X108254266Y-59074500D01*
X107645734Y-59074500D01*
X107645730Y-59074500D01*
X107615300Y-59077353D01*
X107615298Y-59077353D01*
X107487119Y-59122206D01*
X107487117Y-59122207D01*
X107377850Y-59202850D01*
X107297207Y-59312117D01*
X107274842Y-59376033D01*
X107234120Y-59432808D01*
X107169167Y-59458555D01*
X107100605Y-59445098D01*
X107050203Y-59396711D01*
X107040095Y-59374081D01*
X106984358Y-59205880D01*
X106984356Y-59205875D01*
X106892315Y-59056654D01*
X106768345Y-58932684D01*
X106619124Y-58840643D01*
X106619119Y-58840641D01*
X106452697Y-58785494D01*
X106452690Y-58785493D01*
X106349986Y-58775000D01*
X106300000Y-58775000D01*
X105800000Y-58775000D01*
X105799999Y-58774999D01*
X105750029Y-58775000D01*
X105750011Y-58775001D01*
X105647302Y-58785494D01*
X105480880Y-58840641D01*
X105480875Y-58840643D01*
X105331654Y-58932684D01*
X105207684Y-59056654D01*
X105115643Y-59205875D01*
X105115641Y-59205880D01*
X105060494Y-59372302D01*
X105060493Y-59372309D01*
X105050000Y-59475013D01*
X103932500Y-59475013D01*
X103932500Y-54243439D01*
X103932500Y-54243438D01*
X103912021Y-54167011D01*
X103879554Y-54110776D01*
X103872464Y-54098495D01*
X103872458Y-54098487D01*
X103308512Y-53534541D01*
X103308504Y-53534535D01*
X103239995Y-53494982D01*
X103239990Y-53494979D01*
X103214513Y-53488152D01*
X103163562Y-53474500D01*
X103163560Y-53474500D01*
X100898087Y-53474500D01*
X100831048Y-53454815D01*
X100824471Y-53450282D01*
X100774475Y-53413384D01*
X100730865Y-53398124D01*
X100649848Y-53369774D01*
X100649849Y-53369774D01*
X100620260Y-53367000D01*
X100620256Y-53367000D01*
X100039744Y-53367000D01*
X100039740Y-53367000D01*
X100010150Y-53369774D01*
X99885523Y-53413384D01*
X99779289Y-53491788D01*
X99779288Y-53491789D01*
X99700884Y-53598023D01*
X99657274Y-53722650D01*
X99654500Y-53752239D01*
X99654500Y-54357760D01*
X99657274Y-54387349D01*
X99700884Y-54511976D01*
X99779288Y-54618210D01*
X99779289Y-54618211D01*
X99885523Y-54696615D01*
X99885524Y-54696615D01*
X99885525Y-54696616D01*
X100010151Y-54740225D01*
X100010150Y-54740225D01*
X100039740Y-54743000D01*
X100039744Y-54743000D01*
X100620260Y-54743000D01*
X100649849Y-54740225D01*
X100774475Y-54696616D01*
X100880711Y-54618211D01*
X100959116Y-54511975D01*
X101002725Y-54387349D01*
X101005500Y-54357756D01*
X101005500Y-54199500D01*
X101025185Y-54132461D01*
X101077989Y-54086706D01*
X101129500Y-54075500D01*
X102948167Y-54075500D01*
X103015206Y-54095185D01*
X103035848Y-54111819D01*
X103295181Y-54371152D01*
X103328666Y-54432475D01*
X103331500Y-54458833D01*
X103331500Y-61621562D01*
X103338907Y-61649206D01*
X103351979Y-61697991D01*
X103351981Y-61697994D01*
X103377936Y-61742948D01*
X103377936Y-61742951D01*
X103377938Y-61742951D01*
X103391539Y-61766509D01*
X103391541Y-61766512D01*
X105313181Y-63688152D01*
X105346666Y-63749475D01*
X105349500Y-63775833D01*
X105349500Y-64529269D01*
X105352353Y-64559699D01*
X105352353Y-64559701D01*
X105390643Y-64669124D01*
X105397207Y-64687882D01*
X105477850Y-64797150D01*
X105587118Y-64877793D01*
X105666458Y-64905555D01*
X105723231Y-64946275D01*
X105748978Y-65011228D01*
X105749500Y-65022595D01*
X105749500Y-68625500D01*
X105729815Y-68692539D01*
X105677011Y-68738294D01*
X105625500Y-68749500D01*
X103701278Y-68749500D01*
X103634239Y-68729815D01*
X103588484Y-68677011D01*
X103578540Y-68607853D01*
X103588895Y-68573098D01*
X103634019Y-68476330D01*
X103640500Y-68427103D01*
X103640499Y-68072898D01*
X103640497Y-68072886D01*
X103634084Y-68024167D01*
X103634019Y-68023670D01*
X103583644Y-67915641D01*
X103583643Y-67915640D01*
X103579059Y-67905809D01*
X103581876Y-67904495D01*
X103565155Y-67854929D01*
X103580254Y-67794748D01*
X103579059Y-67794191D01*
X103581950Y-67787989D01*
X103582159Y-67787160D01*
X103582809Y-67786147D01*
X103583641Y-67784361D01*
X103583644Y-67784359D01*
X103634019Y-67676330D01*
X103640500Y-67627103D01*
X103640499Y-67398975D01*
X103660183Y-67331937D01*
X103691524Y-67301746D01*
X103690174Y-67300005D01*
X103696341Y-67295221D01*
X103810223Y-67181339D01*
X103810229Y-67181331D01*
X103892218Y-67042695D01*
X103892218Y-67042694D01*
X103933674Y-66900000D01*
X101471326Y-66900000D01*
X101512781Y-67042694D01*
X101512781Y-67042695D01*
X101594770Y-67181331D01*
X101594776Y-67181339D01*
X101708660Y-67295223D01*
X101714829Y-67300008D01*
X101713029Y-67302328D01*
X101751289Y-67343282D01*
X101764500Y-67398975D01*
X101764500Y-67627104D01*
X101770980Y-67676325D01*
X101770982Y-67676333D01*
X101805277Y-67749879D01*
X101816297Y-67773511D01*
X101825941Y-67794191D01*
X101823126Y-67795503D01*
X101839845Y-67845095D01*
X101824739Y-67905248D01*
X101825941Y-67905809D01*
X101823032Y-67912045D01*
X101822828Y-67912861D01*
X101822189Y-67913855D01*
X101770980Y-68023671D01*
X101764501Y-68072886D01*
X101764500Y-68072903D01*
X101764500Y-68427104D01*
X101770980Y-68476325D01*
X101770982Y-68476333D01*
X101790465Y-68518114D01*
X101818541Y-68578323D01*
X101825941Y-68594191D01*
X101823126Y-68595503D01*
X101839845Y-68645095D01*
X101824739Y-68705248D01*
X101825941Y-68705809D01*
X101823032Y-68712045D01*
X101822828Y-68712861D01*
X101822189Y-68713855D01*
X101770980Y-68823671D01*
X101764501Y-68872886D01*
X101764500Y-68872903D01*
X101764500Y-68950222D01*
X101744815Y-69017261D01*
X101728181Y-69037903D01*
X101479489Y-69286596D01*
X101423541Y-69342543D01*
X101423535Y-69342551D01*
X101383982Y-69411060D01*
X101383979Y-69411065D01*
X101363500Y-69487495D01*
X101363500Y-69625500D01*
X101343815Y-69692539D01*
X101291011Y-69738294D01*
X101239500Y-69749500D01*
X96914777Y-69749500D01*
X96847738Y-69729815D01*
X96827096Y-69713181D01*
X95377920Y-68264005D01*
X95344435Y-68202682D01*
X95349419Y-68132990D01*
X95377920Y-68088643D01*
X95485223Y-67981339D01*
X95485229Y-67981331D01*
X95567218Y-67842695D01*
X95567218Y-67842694D01*
X95608674Y-67700000D01*
X93146326Y-67700000D01*
X93172736Y-67790905D01*
X93172536Y-67860775D01*
X93134594Y-67919445D01*
X93070955Y-67948288D01*
X93053659Y-67949500D01*
X92964500Y-67949500D01*
X92897461Y-67929815D01*
X92851706Y-67877011D01*
X92840500Y-67825500D01*
X92840500Y-67074500D01*
X92860185Y-67007461D01*
X92912989Y-66961706D01*
X92964500Y-66950500D01*
X93053659Y-66950500D01*
X93120698Y-66970185D01*
X93166453Y-67022989D01*
X93176397Y-67092147D01*
X93172736Y-67109095D01*
X93146326Y-67200000D01*
X94127500Y-67200000D01*
X94163819Y-67163681D01*
X94166157Y-67166019D01*
X94199989Y-67136705D01*
X94251497Y-67125499D01*
X94503501Y-67125499D01*
X94570539Y-67145184D01*
X94588708Y-67166153D01*
X94591181Y-67163681D01*
X94627500Y-67200000D01*
X95608674Y-67200000D01*
X95567218Y-67057305D01*
X95567218Y-67057304D01*
X95485229Y-66918668D01*
X95485223Y-66918660D01*
X95371339Y-66804776D01*
X95365171Y-66799992D01*
X95366383Y-66798428D01*
X95358296Y-66794735D01*
X95345200Y-66774357D01*
X95328675Y-66756647D01*
X95325672Y-66743971D01*
X95320522Y-66735957D01*
X95315499Y-66701026D01*
X95315499Y-66598974D01*
X95335184Y-66531937D01*
X95366524Y-66501746D01*
X95365174Y-66500005D01*
X95371341Y-66495221D01*
X95485223Y-66381339D01*
X95485229Y-66381331D01*
X95567218Y-66242695D01*
X95567218Y-66242694D01*
X95608674Y-66100000D01*
X94627500Y-66100000D01*
X94591181Y-66136319D01*
X94588841Y-66133979D01*
X94555011Y-66163294D01*
X94503500Y-66174500D01*
X94251500Y-66174500D01*
X94184461Y-66154815D01*
X94166291Y-66133846D01*
X94163819Y-66136319D01*
X94127500Y-66100000D01*
X93146326Y-66100000D01*
X93172736Y-66190905D01*
X93172536Y-66260775D01*
X93134594Y-66319445D01*
X93070955Y-66348288D01*
X93053659Y-66349500D01*
X92715833Y-66349500D01*
X92686392Y-66340855D01*
X92656406Y-66334332D01*
X92651390Y-66330577D01*
X92648794Y-66329815D01*
X92628152Y-66313181D01*
X92501819Y-66186848D01*
X92468334Y-66125525D01*
X92465500Y-66099167D01*
X92465500Y-65695730D01*
X92462646Y-65665300D01*
X92462646Y-65665298D01*
X92429006Y-65569163D01*
X92417793Y-65537118D01*
X92337150Y-65427850D01*
X92227882Y-65347207D01*
X92227880Y-65347206D01*
X92163967Y-65324842D01*
X92107191Y-65284120D01*
X92081444Y-65219168D01*
X92094901Y-65150606D01*
X92143288Y-65100203D01*
X92165918Y-65090095D01*
X92334119Y-65034358D01*
X92334124Y-65034356D01*
X92483345Y-64942315D01*
X92607315Y-64818345D01*
X92699356Y-64669124D01*
X92699358Y-64669119D01*
X92754505Y-64502697D01*
X92754506Y-64502690D01*
X92764999Y-64399986D01*
X92765000Y-64399973D01*
X92765000Y-64350000D01*
X91664000Y-64350000D01*
X91596961Y-64330315D01*
X91551206Y-64277511D01*
X91540000Y-64226000D01*
X91540000Y-64100000D01*
X91414000Y-64100000D01*
X91346961Y-64080315D01*
X91301206Y-64027511D01*
X91290000Y-63976000D01*
X91290000Y-63850000D01*
X91790000Y-63850000D01*
X92764999Y-63850000D01*
X92764999Y-63800028D01*
X92764998Y-63800013D01*
X92754505Y-63697302D01*
X92699358Y-63530880D01*
X92699356Y-63530875D01*
X92607315Y-63381654D01*
X92483345Y-63257684D01*
X92334124Y-63165643D01*
X92334119Y-63165641D01*
X92167697Y-63110494D01*
X92167690Y-63110493D01*
X92064986Y-63100000D01*
X91790000Y-63100000D01*
X91790000Y-63850000D01*
X91290000Y-63850000D01*
X91290000Y-63100000D01*
X91015029Y-63100000D01*
X91015012Y-63100001D01*
X90912302Y-63110494D01*
X90745880Y-63165641D01*
X90745875Y-63165643D01*
X90659597Y-63218861D01*
X90592204Y-63237301D01*
X90525541Y-63216378D01*
X90480771Y-63162736D01*
X90470500Y-63113322D01*
X90470500Y-58474500D01*
X90490185Y-58407461D01*
X90542989Y-58361706D01*
X90594500Y-58350500D01*
X91142250Y-58350500D01*
X91142251Y-58350499D01*
X91157068Y-58347552D01*
X91200729Y-58338868D01*
X91200729Y-58338867D01*
X91200731Y-58338867D01*
X91267052Y-58294552D01*
X91311367Y-58228231D01*
X91311367Y-58228229D01*
X91311368Y-58228229D01*
X91322999Y-58169752D01*
X91323000Y-58169750D01*
X91323000Y-58141231D01*
X91342685Y-58074192D01*
X91395489Y-58028437D01*
X91464647Y-58018493D01*
X91528203Y-58047518D01*
X91547318Y-58068346D01*
X91602092Y-58143736D01*
X91602097Y-58143742D01*
X91763757Y-58305402D01*
X91948723Y-58439788D01*
X92152429Y-58543582D01*
X92369871Y-58614234D01*
X92460000Y-58628509D01*
X92460000Y-57640747D01*
X92497708Y-57662518D01*
X92637591Y-57700000D01*
X92782409Y-57700000D01*
X92922292Y-57662518D01*
X92960000Y-57640747D01*
X92960000Y-58628508D01*
X93050128Y-58614234D01*
X93267570Y-58543582D01*
X93471276Y-58439788D01*
X93656242Y-58305402D01*
X93817902Y-58143742D01*
X93952288Y-57958776D01*
X94037583Y-57791376D01*
X94085557Y-57740580D01*
X94153378Y-57723785D01*
X94219513Y-57746322D01*
X94258553Y-57791377D01*
X94263864Y-57801802D01*
X94279066Y-57822725D01*
X94370541Y-57948629D01*
X94498871Y-58076959D01*
X94645696Y-58183634D01*
X94752380Y-58237992D01*
X94807404Y-58266028D01*
X94980001Y-58322108D01*
X94980002Y-58322108D01*
X94980005Y-58322109D01*
X95159257Y-58350500D01*
X95159258Y-58350500D01*
X95340742Y-58350500D01*
X95340743Y-58350500D01*
X95519995Y-58322109D01*
X95519998Y-58322108D01*
X95519999Y-58322108D01*
X95692595Y-58266028D01*
X95692595Y-58266027D01*
X95692598Y-58266027D01*
X95854304Y-58183634D01*
X96001129Y-58076959D01*
X96129459Y-57948629D01*
X96236134Y-57801804D01*
X96318527Y-57640098D01*
X96333351Y-57594476D01*
X96352291Y-57536183D01*
X96391728Y-57478507D01*
X96456086Y-57451308D01*
X96470222Y-57450500D01*
X97889967Y-57450500D01*
X97957006Y-57470185D01*
X97977648Y-57486819D01*
X98830512Y-58339683D01*
X98863997Y-58401006D01*
X98859013Y-58470698D01*
X98817141Y-58526631D01*
X98804832Y-58534750D01*
X98692692Y-58599495D01*
X98692683Y-58599502D01*
X98599502Y-58692683D01*
X98599500Y-58692686D01*
X98533608Y-58806812D01*
X98521234Y-58852993D01*
X98499500Y-58934108D01*
X98499500Y-59065892D01*
X98502571Y-59077353D01*
X98533608Y-59193187D01*
X98558699Y-59236645D01*
X98599500Y-59307314D01*
X98599502Y-59307316D01*
X98663181Y-59370995D01*
X98696666Y-59432318D01*
X98699500Y-59458676D01*
X98699500Y-59751966D01*
X98679815Y-59819005D01*
X98663181Y-59839647D01*
X97546247Y-60956581D01*
X97484924Y-60990066D01*
X97458566Y-60992900D01*
X97368508Y-60992900D01*
X97241212Y-61027008D01*
X97127086Y-61092900D01*
X97127083Y-61092902D01*
X97033902Y-61186083D01*
X97033900Y-61186086D01*
X96968008Y-61300212D01*
X96953866Y-61352993D01*
X96933900Y-61427508D01*
X96933900Y-61559292D01*
X96950585Y-61621560D01*
X96968008Y-61686587D01*
X96974594Y-61697994D01*
X97033900Y-61800714D01*
X97033902Y-61800716D01*
X97039936Y-61806750D01*
X97052925Y-61830539D01*
X97068925Y-61852428D01*
X97069424Y-61860754D01*
X97073421Y-61868073D01*
X97071487Y-61895110D01*
X97073112Y-61922172D01*
X97069031Y-61929445D01*
X97068437Y-61937765D01*
X97052190Y-61959467D01*
X97038928Y-61983109D01*
X97029727Y-61989473D01*
X97026565Y-61993698D01*
X97010434Y-62003935D01*
X97007572Y-62005455D01*
X97005641Y-62006356D01*
X97005373Y-62006623D01*
X96998179Y-62010446D01*
X96995839Y-62010926D01*
X96995816Y-62010938D01*
X96995813Y-62010932D01*
X96971101Y-62016013D01*
X96944905Y-62024845D01*
X96937360Y-62022950D01*
X96929741Y-62024517D01*
X96903954Y-62014561D01*
X96884751Y-62009739D01*
X96884191Y-62010941D01*
X96877954Y-62008032D01*
X96877139Y-62007828D01*
X96876144Y-62007189D01*
X96874360Y-62006357D01*
X96874359Y-62006356D01*
X96766330Y-61955981D01*
X96766328Y-61955980D01*
X96717113Y-61949501D01*
X96717108Y-61949500D01*
X96717103Y-61949500D01*
X96717096Y-61949500D01*
X96362895Y-61949500D01*
X96313674Y-61955980D01*
X96313666Y-61955982D01*
X96195809Y-62010941D01*
X96194496Y-62008126D01*
X96144905Y-62024845D01*
X96084751Y-62009739D01*
X96084191Y-62010941D01*
X96077954Y-62008032D01*
X96077139Y-62007828D01*
X96076144Y-62007189D01*
X96074360Y-62006357D01*
X96074359Y-62006356D01*
X95966330Y-61955981D01*
X95966328Y-61955980D01*
X95917113Y-61949501D01*
X95917108Y-61949500D01*
X95917103Y-61949500D01*
X95917096Y-61949500D01*
X95562895Y-61949500D01*
X95513674Y-61955980D01*
X95513666Y-61955982D01*
X95405640Y-62006356D01*
X95321356Y-62090640D01*
X95270980Y-62198671D01*
X95264501Y-62247886D01*
X95264500Y-62247903D01*
X95264500Y-63527104D01*
X95270980Y-63576325D01*
X95270982Y-63576333D01*
X95305812Y-63651025D01*
X95316304Y-63720102D01*
X95287784Y-63783886D01*
X95229308Y-63822126D01*
X95159441Y-63822681D01*
X95141026Y-63815812D01*
X95066329Y-63780980D01*
X95017113Y-63774501D01*
X95017108Y-63774500D01*
X95017103Y-63774500D01*
X95017096Y-63774500D01*
X93737895Y-63774500D01*
X93688674Y-63780980D01*
X93688666Y-63780982D01*
X93580640Y-63831356D01*
X93496356Y-63915640D01*
X93445980Y-64023671D01*
X93439501Y-64072886D01*
X93439500Y-64072903D01*
X93439500Y-64427104D01*
X93445980Y-64476325D01*
X93445982Y-64476333D01*
X93500941Y-64594191D01*
X93498126Y-64595503D01*
X93514845Y-64645095D01*
X93499739Y-64705248D01*
X93500941Y-64705809D01*
X93498032Y-64712045D01*
X93497828Y-64712861D01*
X93497189Y-64713855D01*
X93445980Y-64823671D01*
X93439501Y-64872886D01*
X93439500Y-64872903D01*
X93439500Y-65101023D01*
X93419815Y-65168062D01*
X93388488Y-65198257D01*
X93389832Y-65199990D01*
X93383665Y-65204773D01*
X93269773Y-65318664D01*
X93269770Y-65318668D01*
X93187781Y-65457304D01*
X93187781Y-65457305D01*
X93146326Y-65600000D01*
X95608674Y-65600000D01*
X95567218Y-65457305D01*
X95567218Y-65457304D01*
X95485229Y-65318668D01*
X95485223Y-65318660D01*
X95371339Y-65204776D01*
X95365171Y-65199992D01*
X95366963Y-65197681D01*
X95328675Y-65156647D01*
X95315499Y-65101024D01*
X95315499Y-64872898D01*
X95315497Y-64872886D01*
X95312721Y-64851800D01*
X95309019Y-64823670D01*
X95258644Y-64715641D01*
X95258643Y-64715640D01*
X95254059Y-64705809D01*
X95256876Y-64704495D01*
X95240155Y-64654929D01*
X95255254Y-64594748D01*
X95254059Y-64594191D01*
X95256950Y-64587989D01*
X95257159Y-64587160D01*
X95257809Y-64586147D01*
X95258641Y-64584361D01*
X95258644Y-64584359D01*
X95309019Y-64476330D01*
X95315500Y-64427103D01*
X95315499Y-64072898D01*
X95315497Y-64072886D01*
X95311778Y-64044628D01*
X95309019Y-64023670D01*
X95274186Y-63948971D01*
X95263695Y-63879897D01*
X95292214Y-63816113D01*
X95350690Y-63777873D01*
X95420558Y-63777318D01*
X95438968Y-63784184D01*
X95513670Y-63819019D01*
X95562897Y-63825500D01*
X95917102Y-63825499D01*
X95917104Y-63825499D01*
X95931167Y-63823647D01*
X95966330Y-63819019D01*
X96074359Y-63768644D01*
X96074359Y-63768643D01*
X96084191Y-63764059D01*
X96085504Y-63766876D01*
X96135071Y-63750155D01*
X96195251Y-63765254D01*
X96195809Y-63764059D01*
X96202010Y-63766950D01*
X96202840Y-63767159D01*
X96203852Y-63767809D01*
X96205639Y-63768642D01*
X96205641Y-63768644D01*
X96313670Y-63819019D01*
X96362897Y-63825500D01*
X96717102Y-63825499D01*
X96717104Y-63825499D01*
X96731167Y-63823647D01*
X96766330Y-63819019D01*
X96874359Y-63768644D01*
X96874359Y-63768643D01*
X96884191Y-63764059D01*
X96885504Y-63766876D01*
X96935071Y-63750155D01*
X96995251Y-63765254D01*
X96995809Y-63764059D01*
X97002010Y-63766950D01*
X97002840Y-63767159D01*
X97003852Y-63767809D01*
X97005639Y-63768642D01*
X97005641Y-63768644D01*
X97113670Y-63819019D01*
X97162897Y-63825500D01*
X97517102Y-63825499D01*
X97517104Y-63825499D01*
X97531167Y-63823647D01*
X97566330Y-63819019D01*
X97674359Y-63768644D01*
X97674359Y-63768643D01*
X97684191Y-63764059D01*
X97685504Y-63766876D01*
X97735071Y-63750155D01*
X97795251Y-63765254D01*
X97795809Y-63764059D01*
X97802010Y-63766950D01*
X97802840Y-63767159D01*
X97803852Y-63767809D01*
X97805639Y-63768642D01*
X97805641Y-63768644D01*
X97913670Y-63819019D01*
X97962897Y-63825500D01*
X98317102Y-63825499D01*
X98317104Y-63825499D01*
X98331167Y-63823647D01*
X98366330Y-63819019D01*
X98474359Y-63768644D01*
X98474359Y-63768643D01*
X98484191Y-63764059D01*
X98485504Y-63766876D01*
X98535071Y-63750155D01*
X98595251Y-63765254D01*
X98595809Y-63764059D01*
X98602010Y-63766950D01*
X98602840Y-63767159D01*
X98603852Y-63767809D01*
X98605639Y-63768642D01*
X98605641Y-63768644D01*
X98713670Y-63819019D01*
X98762897Y-63825500D01*
X99117102Y-63825499D01*
X99117104Y-63825499D01*
X99131167Y-63823647D01*
X99166330Y-63819019D01*
X99274359Y-63768644D01*
X99274359Y-63768643D01*
X99284191Y-63764059D01*
X99285504Y-63766876D01*
X99335071Y-63750155D01*
X99395251Y-63765254D01*
X99395809Y-63764059D01*
X99402010Y-63766950D01*
X99402840Y-63767159D01*
X99403852Y-63767809D01*
X99405639Y-63768642D01*
X99405641Y-63768644D01*
X99513670Y-63819019D01*
X99562897Y-63825500D01*
X99917102Y-63825499D01*
X99917104Y-63825499D01*
X99931167Y-63823647D01*
X99966330Y-63819019D01*
X100074359Y-63768644D01*
X100074359Y-63768643D01*
X100084191Y-63764059D01*
X100085504Y-63766876D01*
X100135071Y-63750155D01*
X100195251Y-63765254D01*
X100195809Y-63764059D01*
X100202010Y-63766950D01*
X100202840Y-63767159D01*
X100203852Y-63767809D01*
X100205639Y-63768642D01*
X100205641Y-63768644D01*
X100313670Y-63819019D01*
X100362897Y-63825500D01*
X100717102Y-63825499D01*
X100717104Y-63825499D01*
X100731167Y-63823647D01*
X100766330Y-63819019D01*
X100874359Y-63768644D01*
X100874359Y-63768643D01*
X100884191Y-63764059D01*
X100885504Y-63766876D01*
X100935071Y-63750155D01*
X100995251Y-63765254D01*
X100995809Y-63764059D01*
X101002010Y-63766950D01*
X101002840Y-63767159D01*
X101003852Y-63767809D01*
X101005639Y-63768642D01*
X101005641Y-63768644D01*
X101113670Y-63819019D01*
X101162897Y-63825500D01*
X101517102Y-63825499D01*
X101517104Y-63825499D01*
X101531167Y-63823647D01*
X101566330Y-63819019D01*
X101641025Y-63784187D01*
X101710101Y-63773695D01*
X101773885Y-63802214D01*
X101812126Y-63860690D01*
X101812681Y-63930557D01*
X101805812Y-63948973D01*
X101770981Y-64023669D01*
X101770980Y-64023671D01*
X101764501Y-64072886D01*
X101764500Y-64072903D01*
X101764500Y-64427104D01*
X101770980Y-64476325D01*
X101770982Y-64476333D01*
X101825941Y-64594191D01*
X101823126Y-64595503D01*
X101839845Y-64645095D01*
X101824739Y-64705248D01*
X101825941Y-64705809D01*
X101823032Y-64712045D01*
X101822828Y-64712861D01*
X101822189Y-64713855D01*
X101770980Y-64823671D01*
X101764501Y-64872886D01*
X101764500Y-64872903D01*
X101764500Y-65227104D01*
X101770980Y-65276325D01*
X101770982Y-65276333D01*
X101825941Y-65394191D01*
X101823126Y-65395503D01*
X101839845Y-65445095D01*
X101824739Y-65505248D01*
X101825941Y-65505809D01*
X101823032Y-65512045D01*
X101822828Y-65512861D01*
X101822189Y-65513855D01*
X101821356Y-65515640D01*
X101821356Y-65515641D01*
X101816759Y-65525499D01*
X101770980Y-65623671D01*
X101764501Y-65672886D01*
X101764500Y-65672903D01*
X101764500Y-65901023D01*
X101744815Y-65968062D01*
X101713488Y-65998257D01*
X101714832Y-65999990D01*
X101708665Y-66004773D01*
X101594773Y-66118664D01*
X101594770Y-66118668D01*
X101512781Y-66257304D01*
X101512781Y-66257305D01*
X101471326Y-66400000D01*
X103933674Y-66400000D01*
X103892218Y-66257305D01*
X103892218Y-66257304D01*
X103810229Y-66118668D01*
X103810223Y-66118660D01*
X103696339Y-66004776D01*
X103690171Y-65999992D01*
X103691963Y-65997681D01*
X103653675Y-65956647D01*
X103640499Y-65901024D01*
X103640499Y-65672898D01*
X103640497Y-65672886D01*
X103637721Y-65651800D01*
X103634019Y-65623670D01*
X103634015Y-65623663D01*
X103631363Y-65614558D01*
X103633995Y-65613790D01*
X103625716Y-65559288D01*
X103654235Y-65495504D01*
X103712711Y-65457263D01*
X103782578Y-65456708D01*
X103799119Y-65463715D01*
X103799300Y-65463280D01*
X103806809Y-65466389D01*
X103806814Y-65466392D01*
X103934108Y-65500500D01*
X103934110Y-65500500D01*
X104065890Y-65500500D01*
X104065892Y-65500500D01*
X104193186Y-65466392D01*
X104307314Y-65400500D01*
X104400500Y-65307314D01*
X104466392Y-65193186D01*
X104500500Y-65065892D01*
X104500500Y-64934108D01*
X104466392Y-64806814D01*
X104460812Y-64797150D01*
X104457563Y-64791521D01*
X104400500Y-64692686D01*
X104307314Y-64599500D01*
X104230065Y-64554900D01*
X104193187Y-64533608D01*
X104096267Y-64507639D01*
X104065892Y-64499500D01*
X103934108Y-64499500D01*
X103806814Y-64533608D01*
X103806812Y-64533608D01*
X103798963Y-64535712D01*
X103798226Y-64532963D01*
X103742434Y-64538939D01*
X103679967Y-64507639D01*
X103644339Y-64447536D01*
X103640499Y-64416925D01*
X103640499Y-64072898D01*
X103640497Y-64072886D01*
X103636778Y-64044628D01*
X103634019Y-64023670D01*
X103583644Y-63915641D01*
X103499359Y-63831356D01*
X103391330Y-63780981D01*
X103391328Y-63780980D01*
X103342113Y-63774501D01*
X103342108Y-63774500D01*
X103342103Y-63774500D01*
X103342096Y-63774500D01*
X103127000Y-63774500D01*
X103059961Y-63754815D01*
X103014206Y-63702011D01*
X103003000Y-63650500D01*
X103003000Y-61180039D01*
X103003000Y-61180038D01*
X102982521Y-61103611D01*
X102961566Y-61067315D01*
X102942964Y-61035095D01*
X102942958Y-61035087D01*
X98841979Y-56934108D01*
X99499500Y-56934108D01*
X99499500Y-57065891D01*
X99533608Y-57193187D01*
X99550480Y-57222409D01*
X99599500Y-57307314D01*
X99692686Y-57400500D01*
X99806814Y-57466392D01*
X99934108Y-57500500D01*
X99934110Y-57500500D01*
X100065890Y-57500500D01*
X100065892Y-57500500D01*
X100193186Y-57466392D01*
X100307314Y-57400500D01*
X100400500Y-57307314D01*
X100466392Y-57193186D01*
X100500500Y-57065892D01*
X100500500Y-56975833D01*
X100506984Y-56953749D01*
X100508960Y-56930815D01*
X100517607Y-56917572D01*
X100520185Y-56908794D01*
X100526323Y-56900088D01*
X100531187Y-56893783D01*
X100570460Y-56854511D01*
X100592989Y-56815489D01*
X100610021Y-56785989D01*
X100630500Y-56709562D01*
X100630500Y-56659977D01*
X100650185Y-56592938D01*
X100702989Y-56547183D01*
X100713522Y-56542944D01*
X100774475Y-56521616D01*
X100880711Y-56443211D01*
X100959116Y-56336975D01*
X101002725Y-56212349D01*
X101005500Y-56182756D01*
X101005500Y-55577244D01*
X101002725Y-55547651D01*
X100959116Y-55423025D01*
X100880711Y-55316789D01*
X100880710Y-55316788D01*
X100774476Y-55238384D01*
X100649848Y-55194774D01*
X100649849Y-55194774D01*
X100620260Y-55192000D01*
X100620256Y-55192000D01*
X100039744Y-55192000D01*
X100039740Y-55192000D01*
X100010150Y-55194774D01*
X99885523Y-55238384D01*
X99779289Y-55316788D01*
X99779288Y-55316789D01*
X99700884Y-55423023D01*
X99657274Y-55547650D01*
X99654500Y-55577239D01*
X99654500Y-56182760D01*
X99657274Y-56212349D01*
X99700884Y-56336976D01*
X99751899Y-56406099D01*
X99775870Y-56471728D01*
X99760554Y-56539898D01*
X99714132Y-56587118D01*
X99692686Y-56599500D01*
X99692683Y-56599502D01*
X99599502Y-56692683D01*
X99599500Y-56692686D01*
X99533608Y-56806812D01*
X99499500Y-56934108D01*
X98841979Y-56934108D01*
X90667412Y-48759541D01*
X90667404Y-48759535D01*
X90598895Y-48719982D01*
X90598890Y-48719979D01*
X90573413Y-48713152D01*
X90522462Y-48699500D01*
X90522460Y-48699500D01*
X78954725Y-48699500D01*
X78887686Y-48679815D01*
X78841931Y-48627011D01*
X78840164Y-48622952D01*
X78815740Y-48563985D01*
X78815733Y-48563973D01*
X78714999Y-48413215D01*
X78714996Y-48413211D01*
X78586788Y-48285003D01*
X78586784Y-48285000D01*
X78436026Y-48184266D01*
X78436017Y-48184261D01*
X78268500Y-48114874D01*
X78268492Y-48114872D01*
X78090665Y-48079500D01*
X78090661Y-48079500D01*
X77909339Y-48079500D01*
X77909334Y-48079500D01*
X77731507Y-48114872D01*
X77731499Y-48114874D01*
X77563982Y-48184261D01*
X77563973Y-48184266D01*
X77413215Y-48285000D01*
X77413211Y-48285003D01*
X77285003Y-48413211D01*
X77285000Y-48413215D01*
X77184266Y-48563973D01*
X77184261Y-48563982D01*
X77114874Y-48731499D01*
X77114872Y-48731507D01*
X77079500Y-48909334D01*
X77079500Y-49090665D01*
X77114872Y-49268492D01*
X77114874Y-49268500D01*
X77184261Y-49436017D01*
X77184266Y-49436026D01*
X77285000Y-49586784D01*
X77285003Y-49586788D01*
X77413211Y-49714996D01*
X77413215Y-49714999D01*
X77563973Y-49815733D01*
X77563979Y-49815736D01*
X77563980Y-49815737D01*
X77731500Y-49885126D01*
X77909334Y-49920499D01*
X77909338Y-49920500D01*
X77909339Y-49920500D01*
X78090662Y-49920500D01*
X78090663Y-49920499D01*
X78268500Y-49885126D01*
X78436020Y-49815737D01*
X78586785Y-49714999D01*
X78714999Y-49586785D01*
X78815737Y-49436020D01*
X78815738Y-49436017D01*
X78815740Y-49436014D01*
X78840164Y-49377048D01*
X78884004Y-49322644D01*
X78950298Y-49300579D01*
X78954725Y-49300500D01*
X90307067Y-49300500D01*
X90374106Y-49320185D01*
X90394748Y-49336819D01*
X97695748Y-56637819D01*
X97729233Y-56699142D01*
X97724249Y-56768834D01*
X97682377Y-56824767D01*
X97616913Y-56849184D01*
X97608067Y-56849500D01*
X96470222Y-56849500D01*
X96403183Y-56829815D01*
X96357428Y-56777011D01*
X96352291Y-56763817D01*
X96318529Y-56659906D01*
X96307103Y-56637482D01*
X96236134Y-56498196D01*
X96129459Y-56351371D01*
X96001129Y-56223041D01*
X95854304Y-56116366D01*
X95810365Y-56093978D01*
X95692595Y-56033971D01*
X95519998Y-55977891D01*
X95380166Y-55955744D01*
X95340743Y-55949500D01*
X95159257Y-55949500D01*
X95099506Y-55958963D01*
X94980003Y-55977891D01*
X94980000Y-55977891D01*
X94807404Y-56033971D01*
X94645695Y-56116366D01*
X94587335Y-56158768D01*
X94498871Y-56223041D01*
X94498869Y-56223043D01*
X94498868Y-56223043D01*
X94370543Y-56351368D01*
X94370543Y-56351369D01*
X94370541Y-56351371D01*
X94330779Y-56406099D01*
X94263866Y-56498195D01*
X94258552Y-56508625D01*
X94210577Y-56559420D01*
X94142755Y-56576214D01*
X94076621Y-56553675D01*
X94037583Y-56508623D01*
X93952288Y-56341223D01*
X93817902Y-56156257D01*
X93656242Y-55994597D01*
X93471276Y-55860211D01*
X93267568Y-55756417D01*
X93050124Y-55685765D01*
X92960000Y-55671490D01*
X92960000Y-56659252D01*
X92922292Y-56637482D01*
X92782409Y-56600000D01*
X92637591Y-56600000D01*
X92497708Y-56637482D01*
X92460000Y-56659252D01*
X92460000Y-55671490D01*
X92459999Y-55671490D01*
X92369875Y-55685765D01*
X92152431Y-55756417D01*
X91948723Y-55860211D01*
X91763757Y-55994597D01*
X91602096Y-56156258D01*
X91547318Y-56231654D01*
X91491987Y-56274319D01*
X91422374Y-56280298D01*
X91360579Y-56247692D01*
X91326222Y-56186853D01*
X91323000Y-56158768D01*
X91323000Y-56130249D01*
X91322999Y-56130247D01*
X91311368Y-56071770D01*
X91311367Y-56071769D01*
X91267052Y-56005447D01*
X91200730Y-55961132D01*
X91200729Y-55961131D01*
X91142252Y-55949500D01*
X91142248Y-55949500D01*
X89197752Y-55949500D01*
X89197747Y-55949500D01*
X89139270Y-55961131D01*
X89139269Y-55961132D01*
X89072946Y-56005448D01*
X89064298Y-56018392D01*
X89010686Y-56063196D01*
X88961197Y-56073500D01*
X82627938Y-56073500D01*
X82551510Y-56093978D01*
X82482989Y-56133540D01*
X82482986Y-56133542D01*
X82178348Y-56438181D01*
X82117025Y-56471666D01*
X82090667Y-56474500D01*
X81588740Y-56474500D01*
X81559150Y-56477274D01*
X81434523Y-56520884D01*
X81328290Y-56599287D01*
X81250780Y-56704311D01*
X81195133Y-56746561D01*
X81125477Y-56752020D01*
X81063927Y-56718953D01*
X81063329Y-56718358D01*
X76347578Y-52002607D01*
X76314093Y-51941284D01*
X76319077Y-51871592D01*
X76320698Y-51867473D01*
X76345126Y-51808500D01*
X76380500Y-51630661D01*
X76380500Y-51449339D01*
X76345126Y-51271500D01*
X76275737Y-51103980D01*
X76275736Y-51103979D01*
X76275733Y-51103973D01*
X76174999Y-50953215D01*
X76174996Y-50953211D01*
X76046788Y-50825003D01*
X76046784Y-50825000D01*
X75896026Y-50724266D01*
X75896017Y-50724261D01*
X75728500Y-50654874D01*
X75728492Y-50654872D01*
X75550665Y-50619500D01*
X75550661Y-50619500D01*
X75369339Y-50619500D01*
X75369334Y-50619500D01*
X75191507Y-50654872D01*
X75191499Y-50654874D01*
X75023982Y-50724261D01*
X75023973Y-50724266D01*
X74873215Y-50825000D01*
X74873211Y-50825003D01*
X74745003Y-50953211D01*
X74745000Y-50953215D01*
X74644266Y-51103973D01*
X74644261Y-51103982D01*
X74574874Y-51271499D01*
X74574872Y-51271507D01*
X74539500Y-51449334D01*
X74539500Y-51630665D01*
X74574872Y-51808492D01*
X74574874Y-51808500D01*
X74644261Y-51976017D01*
X74644266Y-51976026D01*
X74745000Y-52126784D01*
X74745003Y-52126788D01*
X74873211Y-52254996D01*
X74873215Y-52254999D01*
X75023973Y-52355733D01*
X75023979Y-52355736D01*
X75023980Y-52355737D01*
X75191500Y-52425126D01*
X75369334Y-52460499D01*
X75369338Y-52460500D01*
X75369339Y-52460500D01*
X75550662Y-52460500D01*
X75550663Y-52460499D01*
X75728500Y-52425126D01*
X75787473Y-52400697D01*
X75856942Y-52393229D01*
X75919421Y-52424504D01*
X75922607Y-52427578D01*
X80829540Y-57334511D01*
X80885489Y-57390460D01*
X80885491Y-57390461D01*
X80885495Y-57390464D01*
X80951733Y-57428706D01*
X80954011Y-57430021D01*
X81030438Y-57450500D01*
X81109562Y-57450500D01*
X81111522Y-57450500D01*
X81133944Y-57457084D01*
X81157215Y-57459226D01*
X81166842Y-57466744D01*
X81178561Y-57470185D01*
X81193862Y-57487843D01*
X81212284Y-57502229D01*
X81221216Y-57519412D01*
X81224316Y-57522989D01*
X81228563Y-57533544D01*
X81242910Y-57574544D01*
X81246473Y-57644323D01*
X81211744Y-57704951D01*
X81149751Y-57737178D01*
X81125869Y-57739500D01*
X74809587Y-57739500D01*
X74742548Y-57719815D01*
X74696793Y-57667011D01*
X74691657Y-57653820D01*
X74679873Y-57617554D01*
X74620231Y-57500500D01*
X74601232Y-57463212D01*
X74499414Y-57323072D01*
X74376928Y-57200586D01*
X74236788Y-57098768D01*
X74082445Y-57020127D01*
X73917701Y-56966598D01*
X73917699Y-56966597D01*
X73917698Y-56966597D01*
X73786271Y-56945781D01*
X73746611Y-56939500D01*
X73573389Y-56939500D01*
X73533728Y-56945781D01*
X73402302Y-56966597D01*
X73237552Y-57020128D01*
X73083211Y-57098768D01*
X73003256Y-57156859D01*
X72943072Y-57200586D01*
X72943070Y-57200588D01*
X72943069Y-57200588D01*
X72820588Y-57323069D01*
X72820588Y-57323070D01*
X72820586Y-57323072D01*
X72812275Y-57334511D01*
X72718768Y-57463211D01*
X72640128Y-57617552D01*
X72586597Y-57782302D01*
X72559500Y-57953389D01*
X72559500Y-58126610D01*
X72581489Y-58265448D01*
X72586598Y-58297701D01*
X72640127Y-58462445D01*
X72718768Y-58616788D01*
X72820586Y-58756928D01*
X72943072Y-58879414D01*
X73016392Y-58932684D01*
X73048046Y-58955682D01*
X73090711Y-59011012D01*
X73096690Y-59080626D01*
X73064084Y-59142421D01*
X73003245Y-59176778D01*
X72975160Y-59180000D01*
X72712155Y-59180000D01*
X72652627Y-59186401D01*
X72652620Y-59186403D01*
X72517913Y-59236645D01*
X72517906Y-59236649D01*
X72402812Y-59322809D01*
X72402809Y-59322812D01*
X72316649Y-59437906D01*
X72316645Y-59437913D01*
X72266403Y-59572620D01*
X72266401Y-59572627D01*
X72260000Y-59632155D01*
X66500500Y-59632155D01*
X66500500Y-46363984D01*
X74240000Y-46363984D01*
X74240000Y-46556015D01*
X74270040Y-46745684D01*
X74329383Y-46928321D01*
X74416561Y-47099415D01*
X74437798Y-47128646D01*
X75060000Y-46506445D01*
X75060000Y-46512661D01*
X75087259Y-46614394D01*
X75139920Y-46705606D01*
X75214394Y-46780080D01*
X75305606Y-46832741D01*
X75407339Y-46860000D01*
X75413554Y-46860000D01*
X74791351Y-47482200D01*
X74791352Y-47482201D01*
X74820577Y-47503434D01*
X74991678Y-47590616D01*
X75174315Y-47649959D01*
X75363985Y-47680000D01*
X75556015Y-47680000D01*
X75745684Y-47649959D01*
X75928321Y-47590616D01*
X76099419Y-47503436D01*
X76128646Y-47482201D01*
X76128646Y-47482200D01*
X75506447Y-46860000D01*
X75512661Y-46860000D01*
X75614394Y-46832741D01*
X75705606Y-46780080D01*
X75780080Y-46705606D01*
X75832741Y-46614394D01*
X75860000Y-46512661D01*
X75860000Y-46506446D01*
X76482200Y-47128646D01*
X76482201Y-47128646D01*
X76503436Y-47099419D01*
X76590616Y-46928321D01*
X76649959Y-46745684D01*
X76680000Y-46556015D01*
X76680000Y-46363984D01*
X76665484Y-46272335D01*
X76649959Y-46174315D01*
X76590615Y-45991678D01*
X76535424Y-45883358D01*
X76535423Y-45883356D01*
X76503436Y-45820579D01*
X76482201Y-45791352D01*
X76482200Y-45791351D01*
X75860000Y-46413552D01*
X75860000Y-46407339D01*
X75832741Y-46305606D01*
X75780080Y-46214394D01*
X75705606Y-46139920D01*
X75614394Y-46087259D01*
X75512661Y-46060000D01*
X75506447Y-46060000D01*
X75776446Y-45790000D01*
X90001468Y-45790000D01*
X90949252Y-45790000D01*
X90927482Y-45827708D01*
X90890000Y-45967591D01*
X90890000Y-46112409D01*
X90927482Y-46252292D01*
X90949252Y-46290000D01*
X90001468Y-46290000D01*
X90023265Y-46427628D01*
X90093917Y-46645070D01*
X90197711Y-46848776D01*
X90332097Y-47033742D01*
X90493757Y-47195402D01*
X90678723Y-47329788D01*
X90882429Y-47433582D01*
X91099871Y-47504234D01*
X91190000Y-47518509D01*
X91190000Y-46530747D01*
X91227708Y-46552518D01*
X91367591Y-46590000D01*
X91512409Y-46590000D01*
X91652292Y-46552518D01*
X91690000Y-46530747D01*
X91690000Y-47518508D01*
X91780128Y-47504234D01*
X91997570Y-47433582D01*
X92201276Y-47329788D01*
X92386242Y-47195402D01*
X92547902Y-47033742D01*
X92682288Y-46848776D01*
X92767583Y-46681376D01*
X92815557Y-46630580D01*
X92883378Y-46613785D01*
X92949513Y-46636322D01*
X92988553Y-46681377D01*
X92993864Y-46691802D01*
X93019467Y-46727041D01*
X93100541Y-46838629D01*
X93228871Y-46966959D01*
X93375696Y-47073634D01*
X93463219Y-47118229D01*
X93537404Y-47156028D01*
X93710001Y-47212108D01*
X93710002Y-47212108D01*
X93710005Y-47212109D01*
X93889257Y-47240500D01*
X93889258Y-47240500D01*
X94070742Y-47240500D01*
X94070743Y-47240500D01*
X94249995Y-47212109D01*
X94249998Y-47212108D01*
X94249999Y-47212108D01*
X94422595Y-47156028D01*
X94422595Y-47156027D01*
X94422598Y-47156027D01*
X94584304Y-47073634D01*
X94731129Y-46966959D01*
X94859459Y-46838629D01*
X94966134Y-46691804D01*
X95048527Y-46530098D01*
X95071303Y-46460000D01*
X95104608Y-46357499D01*
X95104608Y-46357498D01*
X95104609Y-46357495D01*
X95120527Y-46256992D01*
X95150456Y-46193858D01*
X95209768Y-46156927D01*
X95279630Y-46157925D01*
X95337863Y-46196535D01*
X95365977Y-46260498D01*
X95367000Y-46276391D01*
X95367000Y-47059752D01*
X95378631Y-47118229D01*
X95378632Y-47118230D01*
X95422947Y-47184552D01*
X95489269Y-47228867D01*
X95489270Y-47228868D01*
X95547747Y-47240499D01*
X95547750Y-47240500D01*
X95547752Y-47240500D01*
X97492250Y-47240500D01*
X97492251Y-47240499D01*
X97507068Y-47237552D01*
X97550729Y-47228868D01*
X97550729Y-47228867D01*
X97550731Y-47228867D01*
X97617052Y-47184552D01*
X97661367Y-47118231D01*
X97661367Y-47118229D01*
X97661368Y-47118229D01*
X97672999Y-47059752D01*
X97673000Y-47059750D01*
X97673000Y-45363333D01*
X97692685Y-45296294D01*
X97709319Y-45275652D01*
X98198152Y-44786819D01*
X98259475Y-44753334D01*
X98285833Y-44750500D01*
X105936793Y-44750500D01*
X105968885Y-44754724D01*
X105990438Y-44760500D01*
X107795501Y-44760500D01*
X107862540Y-44780185D01*
X107908295Y-44832989D01*
X107919501Y-44884500D01*
X107919501Y-45354266D01*
X107922354Y-45384700D01*
X107922354Y-45384702D01*
X107922355Y-45384703D01*
X107922355Y-45384705D01*
X107967206Y-45512882D01*
X108047849Y-45622150D01*
X108088798Y-45652371D01*
X108157117Y-45702793D01*
X108199844Y-45717744D01*
X108285298Y-45747646D01*
X108292323Y-45748304D01*
X108315733Y-45750500D01*
X110124266Y-45750499D01*
X110154700Y-45747646D01*
X110282883Y-45702793D01*
X110392150Y-45622150D01*
X110472793Y-45512883D01*
X110500070Y-45434929D01*
X110517646Y-45384702D01*
X110517646Y-45384700D01*
X110520500Y-45354270D01*
X110520500Y-44884500D01*
X110540185Y-44817461D01*
X110592989Y-44771706D01*
X110644500Y-44760500D01*
X120066667Y-44760500D01*
X120133706Y-44780185D01*
X120154348Y-44796819D01*
X121352885Y-45995356D01*
X121386370Y-46056679D01*
X121381386Y-46126371D01*
X121375689Y-46139332D01*
X121266761Y-46353116D01*
X121266760Y-46353118D01*
X121266759Y-46353121D01*
X121242550Y-46427628D01*
X121200835Y-46556015D01*
X121188910Y-46592715D01*
X121149500Y-46841538D01*
X121149500Y-47093462D01*
X121159410Y-47156028D01*
X121188910Y-47342285D01*
X121266760Y-47581883D01*
X121381132Y-47806348D01*
X121529201Y-48010149D01*
X121529205Y-48010154D01*
X121707345Y-48188294D01*
X121707350Y-48188298D01*
X121840450Y-48285000D01*
X121911155Y-48336370D01*
X122054184Y-48409247D01*
X122135616Y-48450739D01*
X122135618Y-48450739D01*
X122135621Y-48450741D01*
X122375215Y-48528590D01*
X122624038Y-48568000D01*
X122624039Y-48568000D01*
X122875961Y-48568000D01*
X122875962Y-48568000D01*
X123124785Y-48528590D01*
X123364379Y-48450741D01*
X123588845Y-48336370D01*
X123792656Y-48188293D01*
X123970793Y-48010156D01*
X124118870Y-47806345D01*
X124233241Y-47581879D01*
X124311090Y-47342285D01*
X124350500Y-47093462D01*
X124350500Y-46841538D01*
X124311090Y-46592715D01*
X124233241Y-46353121D01*
X124233239Y-46353118D01*
X124233239Y-46353116D01*
X124162556Y-46214394D01*
X124118870Y-46128655D01*
X124019351Y-45991678D01*
X123970798Y-45924850D01*
X123970794Y-45924845D01*
X123792654Y-45746705D01*
X123792649Y-45746701D01*
X123588848Y-45598632D01*
X123588847Y-45598631D01*
X123588845Y-45598630D01*
X123493211Y-45549902D01*
X123364383Y-45484260D01*
X123124785Y-45406410D01*
X123009787Y-45388196D01*
X122875962Y-45367000D01*
X122624038Y-45367000D01*
X122512273Y-45384702D01*
X122375214Y-45406410D01*
X122343964Y-45416564D01*
X122135621Y-45484259D01*
X122135618Y-45484260D01*
X122135616Y-45484261D01*
X121921832Y-45593189D01*
X121853162Y-45606085D01*
X121788422Y-45579808D01*
X121777856Y-45570385D01*
X120427012Y-44219541D01*
X120427011Y-44219540D01*
X120409690Y-44209540D01*
X120409690Y-44209538D01*
X120409687Y-44209538D01*
X120358494Y-44179981D01*
X120358491Y-44179979D01*
X120320275Y-44169739D01*
X120282062Y-44159500D01*
X120282060Y-44159500D01*
X110644499Y-44159500D01*
X110635813Y-44156949D01*
X110626852Y-44158238D01*
X110602811Y-44147259D01*
X110577460Y-44139815D01*
X110571532Y-44132974D01*
X110563296Y-44129213D01*
X110549006Y-44106978D01*
X110531705Y-44087011D01*
X110529417Y-44076496D01*
X110525522Y-44070435D01*
X110520499Y-44035500D01*
X110520499Y-43918592D01*
X127173500Y-43918592D01*
X127173500Y-44081407D01*
X127205259Y-44241073D01*
X127205262Y-44241082D01*
X127267562Y-44391490D01*
X127267563Y-44391492D01*
X127358015Y-44526862D01*
X127358018Y-44526866D01*
X127473133Y-44641981D01*
X127473137Y-44641984D01*
X127608505Y-44732435D01*
X127608506Y-44732435D01*
X127608507Y-44732436D01*
X127608509Y-44732437D01*
X127651420Y-44750211D01*
X127758919Y-44794738D01*
X127758921Y-44794738D01*
X127758926Y-44794740D01*
X127918592Y-44826499D01*
X127918595Y-44826500D01*
X127918597Y-44826500D01*
X128081405Y-44826500D01*
X128081406Y-44826499D01*
X128134629Y-44815912D01*
X128241073Y-44794740D01*
X128241076Y-44794738D01*
X128241081Y-44794738D01*
X128391495Y-44732435D01*
X128526863Y-44641984D01*
X128641984Y-44526863D01*
X128732435Y-44391495D01*
X128794738Y-44241081D01*
X128801013Y-44209538D01*
X128826499Y-44081407D01*
X128826500Y-44081405D01*
X128826500Y-43918594D01*
X128826499Y-43918592D01*
X128794740Y-43758926D01*
X128794737Y-43758917D01*
X128732437Y-43608509D01*
X128732436Y-43608507D01*
X128690495Y-43545739D01*
X128641984Y-43473137D01*
X128641981Y-43473133D01*
X128526866Y-43358018D01*
X128526862Y-43358015D01*
X128391492Y-43267563D01*
X128391490Y-43267562D01*
X128241082Y-43205262D01*
X128241073Y-43205259D01*
X128081406Y-43173500D01*
X128081403Y-43173500D01*
X127918597Y-43173500D01*
X127918594Y-43173500D01*
X127758926Y-43205259D01*
X127758917Y-43205262D01*
X127608509Y-43267562D01*
X127608507Y-43267563D01*
X127473137Y-43358015D01*
X127473133Y-43358018D01*
X127358018Y-43473133D01*
X127358015Y-43473137D01*
X127267563Y-43608507D01*
X127267562Y-43608509D01*
X127205262Y-43758917D01*
X127205259Y-43758926D01*
X127173500Y-43918592D01*
X110520499Y-43918592D01*
X110520499Y-43545739D01*
X110520499Y-43545734D01*
X110517646Y-43515300D01*
X110472793Y-43387117D01*
X110451317Y-43358018D01*
X110392150Y-43277849D01*
X110293793Y-43205259D01*
X110282883Y-43197207D01*
X110282881Y-43197206D01*
X110154701Y-43152353D01*
X110124270Y-43149500D01*
X108315739Y-43149500D01*
X108301751Y-43150811D01*
X108285300Y-43152354D01*
X108285297Y-43152354D01*
X108285296Y-43152355D01*
X108285294Y-43152355D01*
X108157117Y-43197206D01*
X108047849Y-43277849D01*
X107967206Y-43387118D01*
X107922353Y-43515297D01*
X107922353Y-43515299D01*
X107919500Y-43545729D01*
X107919500Y-44025500D01*
X107899815Y-44092539D01*
X107847011Y-44138294D01*
X107795500Y-44149500D01*
X98070438Y-44149500D01*
X97994010Y-44169978D01*
X97925489Y-44209540D01*
X97925486Y-44209542D01*
X97331848Y-44803181D01*
X97270525Y-44836666D01*
X97244167Y-44839500D01*
X95547747Y-44839500D01*
X95489270Y-44851131D01*
X95489269Y-44851132D01*
X95422947Y-44895447D01*
X95378632Y-44961769D01*
X95378631Y-44961770D01*
X95367000Y-45020247D01*
X95367000Y-45803608D01*
X95347315Y-45870647D01*
X95294511Y-45916402D01*
X95225353Y-45926346D01*
X95161797Y-45897321D01*
X95124023Y-45838543D01*
X95120527Y-45823006D01*
X95119387Y-45815810D01*
X95104609Y-45722505D01*
X95104608Y-45722501D01*
X95104608Y-45722500D01*
X95048528Y-45549904D01*
X95020731Y-45495350D01*
X94966134Y-45388196D01*
X94859459Y-45241371D01*
X94731129Y-45113041D01*
X94584304Y-45006366D01*
X94422595Y-44923971D01*
X94249998Y-44867891D01*
X94115556Y-44846597D01*
X94070743Y-44839500D01*
X93889257Y-44839500D01*
X93829506Y-44848963D01*
X93710003Y-44867891D01*
X93710000Y-44867891D01*
X93537404Y-44923971D01*
X93375695Y-45006366D01*
X93320791Y-45046257D01*
X93228871Y-45113041D01*
X93228869Y-45113043D01*
X93228868Y-45113043D01*
X93100543Y-45241368D01*
X93100543Y-45241369D01*
X93100541Y-45241371D01*
X93060637Y-45296294D01*
X92993866Y-45388195D01*
X92988552Y-45398625D01*
X92940577Y-45449420D01*
X92872755Y-45466214D01*
X92806621Y-45443675D01*
X92767583Y-45398623D01*
X92682288Y-45231223D01*
X92547902Y-45046257D01*
X92386242Y-44884597D01*
X92201276Y-44750211D01*
X91997568Y-44646417D01*
X91780124Y-44575765D01*
X91690000Y-44561490D01*
X91690000Y-45549252D01*
X91652292Y-45527482D01*
X91512409Y-45490000D01*
X91367591Y-45490000D01*
X91227708Y-45527482D01*
X91190000Y-45549252D01*
X91190000Y-44561490D01*
X91189999Y-44561490D01*
X91099875Y-44575765D01*
X90882431Y-44646417D01*
X90678723Y-44750211D01*
X90493757Y-44884597D01*
X90332097Y-45046257D01*
X90197711Y-45231223D01*
X90093917Y-45434929D01*
X90023265Y-45652371D01*
X90001468Y-45790000D01*
X75776446Y-45790000D01*
X76128646Y-45437798D01*
X76099415Y-45416561D01*
X75928321Y-45329383D01*
X75745684Y-45270040D01*
X75556015Y-45240000D01*
X75363985Y-45240000D01*
X75174315Y-45270040D01*
X74991678Y-45329383D01*
X74820578Y-45416564D01*
X74791352Y-45437798D01*
X74791351Y-45437798D01*
X75413554Y-46060000D01*
X75407339Y-46060000D01*
X75305606Y-46087259D01*
X75214394Y-46139920D01*
X75139920Y-46214394D01*
X75087259Y-46305606D01*
X75060000Y-46407339D01*
X75060000Y-46413553D01*
X74437798Y-45791351D01*
X74437798Y-45791352D01*
X74416564Y-45820578D01*
X74329383Y-45991678D01*
X74270040Y-46174315D01*
X74240000Y-46363984D01*
X66500500Y-46363984D01*
X66500500Y-43918592D01*
X67173500Y-43918592D01*
X67173500Y-44081407D01*
X67205259Y-44241073D01*
X67205262Y-44241082D01*
X67267562Y-44391490D01*
X67267563Y-44391492D01*
X67358015Y-44526862D01*
X67358018Y-44526866D01*
X67473133Y-44641981D01*
X67473137Y-44641984D01*
X67608505Y-44732435D01*
X67608506Y-44732435D01*
X67608507Y-44732436D01*
X67608509Y-44732437D01*
X67651420Y-44750211D01*
X67758919Y-44794738D01*
X67758921Y-44794738D01*
X67758926Y-44794740D01*
X67918592Y-44826499D01*
X67918595Y-44826500D01*
X67918597Y-44826500D01*
X68081405Y-44826500D01*
X68081406Y-44826499D01*
X68134629Y-44815912D01*
X68241073Y-44794740D01*
X68241076Y-44794738D01*
X68241081Y-44794738D01*
X68391495Y-44732435D01*
X68526863Y-44641984D01*
X68641984Y-44526863D01*
X68732435Y-44391495D01*
X68794738Y-44241081D01*
X68801013Y-44209538D01*
X68826499Y-44081407D01*
X68826500Y-44081405D01*
X68826500Y-43918594D01*
X68826499Y-43918592D01*
X68794740Y-43758926D01*
X68794737Y-43758917D01*
X68732437Y-43608509D01*
X68732436Y-43608507D01*
X68690495Y-43545739D01*
X68641984Y-43473137D01*
X68641981Y-43473133D01*
X68526866Y-43358018D01*
X68526862Y-43358015D01*
X68391492Y-43267563D01*
X68391490Y-43267562D01*
X68241082Y-43205262D01*
X68241073Y-43205259D01*
X68081406Y-43173500D01*
X68081403Y-43173500D01*
X67918597Y-43173500D01*
X67918594Y-43173500D01*
X67758926Y-43205259D01*
X67758917Y-43205262D01*
X67608509Y-43267562D01*
X67608507Y-43267563D01*
X67473137Y-43358015D01*
X67473133Y-43358018D01*
X67358018Y-43473133D01*
X67358015Y-43473137D01*
X67267563Y-43608507D01*
X67267562Y-43608509D01*
X67205262Y-43758917D01*
X67205259Y-43758926D01*
X67173500Y-43918592D01*
X66500500Y-43918592D01*
X66500500Y-42624500D01*
X66520185Y-42557461D01*
X66572989Y-42511706D01*
X66624500Y-42500500D01*
X129375500Y-42500500D01*
X129442539Y-42520185D01*
G37*
%TD.AperFunction*%
%TD*%
M02*
