%TF.GenerationSoftware,KiCad,Pcbnew,9.0.5*%
%TF.CreationDate,2026-04-17T23:00:10+01:00*%
%TF.ProjectId,Smart_Fan_Controller,536d6172-745f-4466-916e-5f436f6e7472,rev?*%
%TF.SameCoordinates,Original*%
%TF.FileFunction,Drillmap*%
%TF.FilePolarity,Positive*%
%FSLAX45Y45*%
G04 Gerber Fmt 4.5, Leading zero omitted, Abs format (unit mm)*
G04 Created by KiCad (PCBNEW 9.0.5) date 2026-04-17 23:00:10*
%MOMM*%
%LPD*%
G01*
G04 APERTURE LIST*
%ADD10C,0.050000*%
%ADD11C,0.200000*%
%ADD12C,0.100000*%
%ADD13C,0.110000*%
%ADD14C,0.130000*%
G04 APERTURE END LIST*
D10*
X6600000Y-4200000D02*
X13000000Y-4200000D01*
X13000000Y-9400000D01*
X6600000Y-9400000D01*
X6600000Y-4200000D01*
D11*
D12*
X8539720Y-6436600D02*
X8569720Y-6466600D01*
X8569720Y-6436600D02*
X8539720Y-6466600D01*
X8560000Y-5801450D02*
X8590000Y-5831450D01*
X8590000Y-5801450D02*
X8560000Y-5831450D01*
X8873847Y-6645000D02*
X8903847Y-6675000D01*
X8903847Y-6645000D02*
X8873847Y-6675000D01*
X8987277Y-6701276D02*
X9017277Y-6731276D01*
X9017277Y-6701276D02*
X8987277Y-6731276D01*
X9383000Y-5014200D02*
X9413000Y-5044200D01*
X9413000Y-5014200D02*
X9383000Y-5044200D01*
X9408400Y-7968973D02*
X9438400Y-7998973D01*
X9438400Y-7968973D02*
X9408400Y-7998973D01*
X9408400Y-8062200D02*
X9438400Y-8092200D01*
X9438400Y-8062200D02*
X9408400Y-8092200D01*
X9570960Y-7251940D02*
X9600960Y-7281940D01*
X9600960Y-7251940D02*
X9570960Y-7281940D01*
X9728440Y-6134340D02*
X9758440Y-6164340D01*
X9758440Y-6134340D02*
X9728440Y-6164340D01*
X9885000Y-5885000D02*
X9915000Y-5915000D01*
X9915000Y-5885000D02*
X9885000Y-5915000D01*
X9985000Y-5685000D02*
X10015000Y-5715000D01*
X10015000Y-5685000D02*
X9985000Y-5715000D01*
X10039074Y-7346673D02*
X10069074Y-7376673D01*
X10069074Y-7346673D02*
X10039074Y-7376673D01*
X10043400Y-6081000D02*
X10073400Y-6111000D01*
X10073400Y-6081000D02*
X10043400Y-6111000D01*
X10166719Y-6103281D02*
X10196719Y-6133281D01*
X10196719Y-6103281D02*
X10166719Y-6133281D01*
X10259300Y-7211300D02*
X10289300Y-7241300D01*
X10289300Y-7211300D02*
X10259300Y-7241300D01*
X10385000Y-6485000D02*
X10415000Y-6515000D01*
X10415000Y-6485000D02*
X10385000Y-6515000D01*
X10837500Y-7058184D02*
X10867500Y-7088184D01*
X10867500Y-7058184D02*
X10837500Y-7088184D01*
X10990100Y-7385000D02*
X11020100Y-7415000D01*
X11020100Y-7385000D02*
X10990100Y-7415000D01*
X7586000Y-4646000D02*
G75*
G02*
X7506000Y-4646000I-40000J0D01*
G01*
X7506000Y-4646000D02*
G75*
G02*
X7586000Y-4646000I40000J0D01*
G01*
X7586000Y-5154000D02*
G75*
G02*
X7506000Y-5154000I-40000J0D01*
G01*
X7506000Y-5154000D02*
G75*
G02*
X7586000Y-5154000I40000J0D01*
G01*
X7840000Y-4900000D02*
G75*
G02*
X7760000Y-4900000I-40000J0D01*
G01*
X7760000Y-4900000D02*
G75*
G02*
X7840000Y-4900000I40000J0D01*
G01*
X7366000Y-5759000D02*
X7366000Y-5849000D01*
X7321000Y-5804000D02*
X7411000Y-5804000D01*
X7366000Y-6013000D02*
X7366000Y-6103000D01*
X7321000Y-6058000D02*
X7411000Y-6058000D01*
X7366000Y-6559000D02*
X7366000Y-6649000D01*
X7321000Y-6604000D02*
X7411000Y-6604000D01*
X7366000Y-6813000D02*
X7366000Y-6903000D01*
X7321000Y-6858000D02*
X7411000Y-6858000D01*
X11330356Y-6051356D02*
X11330356Y-5980644D01*
X11259644Y-5980644D01*
X11259644Y-6051356D01*
X11330356Y-6051356D01*
X11345000Y-6116000D02*
X11345000Y-5916000D01*
X11245000Y-5916000D02*
G75*
G02*
X11345000Y-5916000I50000J0D01*
G01*
X11245000Y-5916000D02*
X11245000Y-6116000D01*
X11245000Y-6116000D02*
G75*
G03*
X11345000Y-6116000I50000J0D01*
G01*
X11630356Y-5581356D02*
X11630356Y-5510644D01*
X11559644Y-5510644D01*
X11559644Y-5581356D01*
X11630356Y-5581356D01*
X11695000Y-5496000D02*
X11495000Y-5496000D01*
X11495000Y-5596000D02*
G75*
G02*
X11495000Y-5496000I0J50000D01*
G01*
X11495000Y-5596000D02*
X11695000Y-5596000D01*
X11695000Y-5596000D02*
G75*
G03*
X11695000Y-5496000I0J50000D01*
G01*
X11930356Y-6051356D02*
X11930356Y-5980644D01*
X11859644Y-5980644D01*
X11859644Y-6051356D01*
X11930356Y-6051356D01*
X11945000Y-6116000D02*
X11945000Y-5916000D01*
X11845000Y-5916000D02*
G75*
G02*
X11945000Y-5916000I50000J0D01*
G01*
X11845000Y-5916000D02*
X11845000Y-6116000D01*
X11845000Y-6116000D02*
G75*
G03*
X11945000Y-6116000I50000J0D01*
G01*
D13*
X7041000Y-7450000D02*
X7096000Y-7395000D01*
X7041000Y-7340000D01*
X6986000Y-7395000D01*
X7041000Y-7450000D01*
X7041000Y-7900000D02*
X7096000Y-7845000D01*
X7041000Y-7790000D01*
X6986000Y-7845000D01*
X7041000Y-7900000D01*
X7691000Y-7450000D02*
X7746000Y-7395000D01*
X7691000Y-7340000D01*
X7636000Y-7395000D01*
X7691000Y-7450000D01*
X7691000Y-7900000D02*
X7746000Y-7845000D01*
X7691000Y-7790000D01*
X7636000Y-7845000D01*
X7691000Y-7900000D01*
X9017000Y-5770000D02*
X9072000Y-5715000D01*
X9017000Y-5660000D01*
X8962000Y-5715000D01*
X9017000Y-5770000D01*
X9144000Y-4659000D02*
X9199000Y-4604000D01*
X9144000Y-4549000D01*
X9089000Y-4604000D01*
X9144000Y-4659000D01*
X9271000Y-5770000D02*
X9326000Y-5715000D01*
X9271000Y-5660000D01*
X9216000Y-5715000D01*
X9271000Y-5770000D01*
X9398000Y-4659000D02*
X9453000Y-4604000D01*
X9398000Y-4549000D01*
X9343000Y-4604000D01*
X9398000Y-4659000D01*
X9525000Y-5770000D02*
X9580000Y-5715000D01*
X9525000Y-5660000D01*
X9470000Y-5715000D01*
X9525000Y-5770000D01*
X9652000Y-4659000D02*
X9707000Y-4604000D01*
X9652000Y-4549000D01*
X9597000Y-4604000D01*
X9652000Y-4659000D01*
X10922000Y-4500000D02*
X10977000Y-4445000D01*
X10922000Y-4390000D01*
X10867000Y-4445000D01*
X10922000Y-4500000D01*
X10922000Y-5516000D02*
X10977000Y-5461000D01*
X10922000Y-5406000D01*
X10867000Y-5461000D01*
X10922000Y-5516000D01*
D14*
X7535000Y-8635000D02*
X7665000Y-8765000D01*
X7665000Y-8635000D02*
X7535000Y-8765000D01*
X7665000Y-8700000D02*
G75*
G02*
X7535000Y-8700000I-65000J0D01*
G01*
X7535000Y-8700000D02*
G75*
G02*
X7665000Y-8700000I65000J0D01*
G01*
X8035000Y-8635000D02*
X8165000Y-8765000D01*
X8165000Y-8635000D02*
X8035000Y-8765000D01*
X8165000Y-8700000D02*
G75*
G02*
X8035000Y-8700000I-65000J0D01*
G01*
X8035000Y-8700000D02*
G75*
G02*
X8165000Y-8700000I65000J0D01*
G01*
X8535000Y-8635000D02*
X8665000Y-8765000D01*
X8665000Y-8635000D02*
X8535000Y-8765000D01*
X8665000Y-8700000D02*
G75*
G02*
X8535000Y-8700000I-65000J0D01*
G01*
X8535000Y-8700000D02*
G75*
G02*
X8665000Y-8700000I65000J0D01*
G01*
X9035000Y-8635000D02*
X9165000Y-8765000D01*
X9165000Y-8635000D02*
X9035000Y-8765000D01*
X9165000Y-8700000D02*
G75*
G02*
X9035000Y-8700000I-65000J0D01*
G01*
X9035000Y-8700000D02*
G75*
G02*
X9165000Y-8700000I65000J0D01*
G01*
X9535000Y-8635000D02*
X9665000Y-8765000D01*
X9665000Y-8635000D02*
X9535000Y-8765000D01*
X9665000Y-8700000D02*
G75*
G02*
X9535000Y-8700000I-65000J0D01*
G01*
X9535000Y-8700000D02*
G75*
G02*
X9665000Y-8700000I65000J0D01*
G01*
X10035000Y-8635000D02*
X10165000Y-8765000D01*
X10165000Y-8635000D02*
X10035000Y-8765000D01*
X10165000Y-8700000D02*
G75*
G02*
X10035000Y-8700000I-65000J0D01*
G01*
X10035000Y-8700000D02*
G75*
G02*
X10165000Y-8700000I65000J0D01*
G01*
X11710000Y-4631750D02*
X11840000Y-4761750D01*
X11840000Y-4631750D02*
X11710000Y-4761750D01*
X11840000Y-4696750D02*
G75*
G02*
X11710000Y-4696750I-65000J0D01*
G01*
X11710000Y-4696750D02*
G75*
G02*
X11840000Y-4696750I65000J0D01*
G01*
X12210000Y-4631750D02*
X12340000Y-4761750D01*
X12340000Y-4631750D02*
X12210000Y-4761750D01*
X12340000Y-4696750D02*
G75*
G02*
X12210000Y-4696750I-65000J0D01*
G01*
X12210000Y-4696750D02*
G75*
G02*
X12340000Y-4696750I65000J0D01*
G01*
D11*
X6858277Y-9713984D02*
X6858277Y-9513984D01*
X6858277Y-9513984D02*
X6905896Y-9513984D01*
X6905896Y-9513984D02*
X6934467Y-9523508D01*
X6934467Y-9523508D02*
X6953515Y-9542555D01*
X6953515Y-9542555D02*
X6963039Y-9561603D01*
X6963039Y-9561603D02*
X6972562Y-9599698D01*
X6972562Y-9599698D02*
X6972562Y-9628270D01*
X6972562Y-9628270D02*
X6963039Y-9666365D01*
X6963039Y-9666365D02*
X6953515Y-9685412D01*
X6953515Y-9685412D02*
X6934467Y-9704460D01*
X6934467Y-9704460D02*
X6905896Y-9713984D01*
X6905896Y-9713984D02*
X6858277Y-9713984D01*
X7058277Y-9713984D02*
X7058277Y-9580650D01*
X7058277Y-9618746D02*
X7067801Y-9599698D01*
X7067801Y-9599698D02*
X7077324Y-9590174D01*
X7077324Y-9590174D02*
X7096372Y-9580650D01*
X7096372Y-9580650D02*
X7115420Y-9580650D01*
X7182086Y-9713984D02*
X7182086Y-9580650D01*
X7182086Y-9513984D02*
X7172562Y-9523508D01*
X7172562Y-9523508D02*
X7182086Y-9533031D01*
X7182086Y-9533031D02*
X7191610Y-9523508D01*
X7191610Y-9523508D02*
X7182086Y-9513984D01*
X7182086Y-9513984D02*
X7182086Y-9533031D01*
X7305896Y-9713984D02*
X7286848Y-9704460D01*
X7286848Y-9704460D02*
X7277324Y-9685412D01*
X7277324Y-9685412D02*
X7277324Y-9513984D01*
X7410658Y-9713984D02*
X7391610Y-9704460D01*
X7391610Y-9704460D02*
X7382086Y-9685412D01*
X7382086Y-9685412D02*
X7382086Y-9513984D01*
X7639229Y-9713984D02*
X7639229Y-9513984D01*
X7639229Y-9513984D02*
X7705896Y-9656841D01*
X7705896Y-9656841D02*
X7772562Y-9513984D01*
X7772562Y-9513984D02*
X7772562Y-9713984D01*
X7953515Y-9713984D02*
X7953515Y-9609222D01*
X7953515Y-9609222D02*
X7943991Y-9590174D01*
X7943991Y-9590174D02*
X7924943Y-9580650D01*
X7924943Y-9580650D02*
X7886848Y-9580650D01*
X7886848Y-9580650D02*
X7867801Y-9590174D01*
X7953515Y-9704460D02*
X7934467Y-9713984D01*
X7934467Y-9713984D02*
X7886848Y-9713984D01*
X7886848Y-9713984D02*
X7867801Y-9704460D01*
X7867801Y-9704460D02*
X7858277Y-9685412D01*
X7858277Y-9685412D02*
X7858277Y-9666365D01*
X7858277Y-9666365D02*
X7867801Y-9647317D01*
X7867801Y-9647317D02*
X7886848Y-9637793D01*
X7886848Y-9637793D02*
X7934467Y-9637793D01*
X7934467Y-9637793D02*
X7953515Y-9628270D01*
X8048753Y-9580650D02*
X8048753Y-9780650D01*
X8048753Y-9590174D02*
X8067801Y-9580650D01*
X8067801Y-9580650D02*
X8105896Y-9580650D01*
X8105896Y-9580650D02*
X8124943Y-9590174D01*
X8124943Y-9590174D02*
X8134467Y-9599698D01*
X8134467Y-9599698D02*
X8143991Y-9618746D01*
X8143991Y-9618746D02*
X8143991Y-9675889D01*
X8143991Y-9675889D02*
X8134467Y-9694936D01*
X8134467Y-9694936D02*
X8124943Y-9704460D01*
X8124943Y-9704460D02*
X8105896Y-9713984D01*
X8105896Y-9713984D02*
X8067801Y-9713984D01*
X8067801Y-9713984D02*
X8048753Y-9704460D01*
X8229705Y-9694936D02*
X8239229Y-9704460D01*
X8239229Y-9704460D02*
X8229705Y-9713984D01*
X8229705Y-9713984D02*
X8220182Y-9704460D01*
X8220182Y-9704460D02*
X8229705Y-9694936D01*
X8229705Y-9694936D02*
X8229705Y-9713984D01*
X8229705Y-9590174D02*
X8239229Y-9599698D01*
X8239229Y-9599698D02*
X8229705Y-9609222D01*
X8229705Y-9609222D02*
X8220182Y-9599698D01*
X8220182Y-9599698D02*
X8229705Y-9590174D01*
X8229705Y-9590174D02*
X8229705Y-9609222D01*
D12*
X6567500Y-10027500D02*
X6597500Y-10057500D01*
X6597500Y-10027500D02*
X6567500Y-10057500D01*
D11*
X6896372Y-9933984D02*
X6915420Y-9933984D01*
X6915420Y-9933984D02*
X6934467Y-9943508D01*
X6934467Y-9943508D02*
X6943991Y-9953031D01*
X6943991Y-9953031D02*
X6953515Y-9972079D01*
X6953515Y-9972079D02*
X6963039Y-10010174D01*
X6963039Y-10010174D02*
X6963039Y-10057793D01*
X6963039Y-10057793D02*
X6953515Y-10095889D01*
X6953515Y-10095889D02*
X6943991Y-10114936D01*
X6943991Y-10114936D02*
X6934467Y-10124460D01*
X6934467Y-10124460D02*
X6915420Y-10133984D01*
X6915420Y-10133984D02*
X6896372Y-10133984D01*
X6896372Y-10133984D02*
X6877324Y-10124460D01*
X6877324Y-10124460D02*
X6867801Y-10114936D01*
X6867801Y-10114936D02*
X6858277Y-10095889D01*
X6858277Y-10095889D02*
X6848753Y-10057793D01*
X6848753Y-10057793D02*
X6848753Y-10010174D01*
X6848753Y-10010174D02*
X6858277Y-9972079D01*
X6858277Y-9972079D02*
X6867801Y-9953031D01*
X6867801Y-9953031D02*
X6877324Y-9943508D01*
X6877324Y-9943508D02*
X6896372Y-9933984D01*
X7048753Y-10114936D02*
X7058277Y-10124460D01*
X7058277Y-10124460D02*
X7048753Y-10133984D01*
X7048753Y-10133984D02*
X7039229Y-10124460D01*
X7039229Y-10124460D02*
X7048753Y-10114936D01*
X7048753Y-10114936D02*
X7048753Y-10133984D01*
X7124943Y-9933984D02*
X7248753Y-9933984D01*
X7248753Y-9933984D02*
X7182086Y-10010174D01*
X7182086Y-10010174D02*
X7210658Y-10010174D01*
X7210658Y-10010174D02*
X7229705Y-10019698D01*
X7229705Y-10019698D02*
X7239229Y-10029222D01*
X7239229Y-10029222D02*
X7248753Y-10048270D01*
X7248753Y-10048270D02*
X7248753Y-10095889D01*
X7248753Y-10095889D02*
X7239229Y-10114936D01*
X7239229Y-10114936D02*
X7229705Y-10124460D01*
X7229705Y-10124460D02*
X7210658Y-10133984D01*
X7210658Y-10133984D02*
X7153515Y-10133984D01*
X7153515Y-10133984D02*
X7134467Y-10124460D01*
X7134467Y-10124460D02*
X7124943Y-10114936D01*
X7372562Y-9933984D02*
X7391610Y-9933984D01*
X7391610Y-9933984D02*
X7410658Y-9943508D01*
X7410658Y-9943508D02*
X7420182Y-9953031D01*
X7420182Y-9953031D02*
X7429705Y-9972079D01*
X7429705Y-9972079D02*
X7439229Y-10010174D01*
X7439229Y-10010174D02*
X7439229Y-10057793D01*
X7439229Y-10057793D02*
X7429705Y-10095889D01*
X7429705Y-10095889D02*
X7420182Y-10114936D01*
X7420182Y-10114936D02*
X7410658Y-10124460D01*
X7410658Y-10124460D02*
X7391610Y-10133984D01*
X7391610Y-10133984D02*
X7372562Y-10133984D01*
X7372562Y-10133984D02*
X7353515Y-10124460D01*
X7353515Y-10124460D02*
X7343991Y-10114936D01*
X7343991Y-10114936D02*
X7334467Y-10095889D01*
X7334467Y-10095889D02*
X7324943Y-10057793D01*
X7324943Y-10057793D02*
X7324943Y-10010174D01*
X7324943Y-10010174D02*
X7334467Y-9972079D01*
X7334467Y-9972079D02*
X7343991Y-9953031D01*
X7343991Y-9953031D02*
X7353515Y-9943508D01*
X7353515Y-9943508D02*
X7372562Y-9933984D01*
X7563039Y-9933984D02*
X7582086Y-9933984D01*
X7582086Y-9933984D02*
X7601134Y-9943508D01*
X7601134Y-9943508D02*
X7610658Y-9953031D01*
X7610658Y-9953031D02*
X7620182Y-9972079D01*
X7620182Y-9972079D02*
X7629705Y-10010174D01*
X7629705Y-10010174D02*
X7629705Y-10057793D01*
X7629705Y-10057793D02*
X7620182Y-10095889D01*
X7620182Y-10095889D02*
X7610658Y-10114936D01*
X7610658Y-10114936D02*
X7601134Y-10124460D01*
X7601134Y-10124460D02*
X7582086Y-10133984D01*
X7582086Y-10133984D02*
X7563039Y-10133984D01*
X7563039Y-10133984D02*
X7543991Y-10124460D01*
X7543991Y-10124460D02*
X7534467Y-10114936D01*
X7534467Y-10114936D02*
X7524943Y-10095889D01*
X7524943Y-10095889D02*
X7515420Y-10057793D01*
X7515420Y-10057793D02*
X7515420Y-10010174D01*
X7515420Y-10010174D02*
X7524943Y-9972079D01*
X7524943Y-9972079D02*
X7534467Y-9953031D01*
X7534467Y-9953031D02*
X7543991Y-9943508D01*
X7543991Y-9943508D02*
X7563039Y-9933984D01*
X7715420Y-10133984D02*
X7715420Y-10000650D01*
X7715420Y-10019698D02*
X7724943Y-10010174D01*
X7724943Y-10010174D02*
X7743991Y-10000650D01*
X7743991Y-10000650D02*
X7772563Y-10000650D01*
X7772563Y-10000650D02*
X7791610Y-10010174D01*
X7791610Y-10010174D02*
X7801134Y-10029222D01*
X7801134Y-10029222D02*
X7801134Y-10133984D01*
X7801134Y-10029222D02*
X7810658Y-10010174D01*
X7810658Y-10010174D02*
X7829705Y-10000650D01*
X7829705Y-10000650D02*
X7858277Y-10000650D01*
X7858277Y-10000650D02*
X7877324Y-10010174D01*
X7877324Y-10010174D02*
X7886848Y-10029222D01*
X7886848Y-10029222D02*
X7886848Y-10133984D01*
X7982086Y-10133984D02*
X7982086Y-10000650D01*
X7982086Y-10019698D02*
X7991610Y-10010174D01*
X7991610Y-10010174D02*
X8010658Y-10000650D01*
X8010658Y-10000650D02*
X8039229Y-10000650D01*
X8039229Y-10000650D02*
X8058277Y-10010174D01*
X8058277Y-10010174D02*
X8067801Y-10029222D01*
X8067801Y-10029222D02*
X8067801Y-10133984D01*
X8067801Y-10029222D02*
X8077324Y-10010174D01*
X8077324Y-10010174D02*
X8096372Y-10000650D01*
X8096372Y-10000650D02*
X8124943Y-10000650D01*
X8124943Y-10000650D02*
X8143991Y-10010174D01*
X8143991Y-10010174D02*
X8153515Y-10029222D01*
X8153515Y-10029222D02*
X8153515Y-10133984D01*
X8543991Y-9924460D02*
X8372563Y-10181603D01*
X8801134Y-9933984D02*
X8820182Y-9933984D01*
X8820182Y-9933984D02*
X8839229Y-9943508D01*
X8839229Y-9943508D02*
X8848753Y-9953031D01*
X8848753Y-9953031D02*
X8858277Y-9972079D01*
X8858277Y-9972079D02*
X8867801Y-10010174D01*
X8867801Y-10010174D02*
X8867801Y-10057793D01*
X8867801Y-10057793D02*
X8858277Y-10095889D01*
X8858277Y-10095889D02*
X8848753Y-10114936D01*
X8848753Y-10114936D02*
X8839229Y-10124460D01*
X8839229Y-10124460D02*
X8820182Y-10133984D01*
X8820182Y-10133984D02*
X8801134Y-10133984D01*
X8801134Y-10133984D02*
X8782087Y-10124460D01*
X8782087Y-10124460D02*
X8772563Y-10114936D01*
X8772563Y-10114936D02*
X8763039Y-10095889D01*
X8763039Y-10095889D02*
X8753515Y-10057793D01*
X8753515Y-10057793D02*
X8753515Y-10010174D01*
X8753515Y-10010174D02*
X8763039Y-9972079D01*
X8763039Y-9972079D02*
X8772563Y-9953031D01*
X8772563Y-9953031D02*
X8782087Y-9943508D01*
X8782087Y-9943508D02*
X8801134Y-9933984D01*
X8953515Y-10114936D02*
X8963039Y-10124460D01*
X8963039Y-10124460D02*
X8953515Y-10133984D01*
X8953515Y-10133984D02*
X8943991Y-10124460D01*
X8943991Y-10124460D02*
X8953515Y-10114936D01*
X8953515Y-10114936D02*
X8953515Y-10133984D01*
X9086848Y-9933984D02*
X9105896Y-9933984D01*
X9105896Y-9933984D02*
X9124944Y-9943508D01*
X9124944Y-9943508D02*
X9134468Y-9953031D01*
X9134468Y-9953031D02*
X9143991Y-9972079D01*
X9143991Y-9972079D02*
X9153515Y-10010174D01*
X9153515Y-10010174D02*
X9153515Y-10057793D01*
X9153515Y-10057793D02*
X9143991Y-10095889D01*
X9143991Y-10095889D02*
X9134468Y-10114936D01*
X9134468Y-10114936D02*
X9124944Y-10124460D01*
X9124944Y-10124460D02*
X9105896Y-10133984D01*
X9105896Y-10133984D02*
X9086848Y-10133984D01*
X9086848Y-10133984D02*
X9067801Y-10124460D01*
X9067801Y-10124460D02*
X9058277Y-10114936D01*
X9058277Y-10114936D02*
X9048753Y-10095889D01*
X9048753Y-10095889D02*
X9039229Y-10057793D01*
X9039229Y-10057793D02*
X9039229Y-10010174D01*
X9039229Y-10010174D02*
X9048753Y-9972079D01*
X9048753Y-9972079D02*
X9058277Y-9953031D01*
X9058277Y-9953031D02*
X9067801Y-9943508D01*
X9067801Y-9943508D02*
X9086848Y-9933984D01*
X9343991Y-10133984D02*
X9229706Y-10133984D01*
X9286848Y-10133984D02*
X9286848Y-9933984D01*
X9286848Y-9933984D02*
X9267801Y-9962555D01*
X9267801Y-9962555D02*
X9248753Y-9981603D01*
X9248753Y-9981603D02*
X9229706Y-9991127D01*
X9534468Y-10133984D02*
X9420182Y-10133984D01*
X9477325Y-10133984D02*
X9477325Y-9933984D01*
X9477325Y-9933984D02*
X9458277Y-9962555D01*
X9458277Y-9962555D02*
X9439229Y-9981603D01*
X9439229Y-9981603D02*
X9420182Y-9991127D01*
X9648753Y-10019698D02*
X9629706Y-10010174D01*
X9629706Y-10010174D02*
X9620182Y-10000650D01*
X9620182Y-10000650D02*
X9610658Y-9981603D01*
X9610658Y-9981603D02*
X9610658Y-9972079D01*
X9610658Y-9972079D02*
X9620182Y-9953031D01*
X9620182Y-9953031D02*
X9629706Y-9943508D01*
X9629706Y-9943508D02*
X9648753Y-9933984D01*
X9648753Y-9933984D02*
X9686849Y-9933984D01*
X9686849Y-9933984D02*
X9705896Y-9943508D01*
X9705896Y-9943508D02*
X9715420Y-9953031D01*
X9715420Y-9953031D02*
X9724944Y-9972079D01*
X9724944Y-9972079D02*
X9724944Y-9981603D01*
X9724944Y-9981603D02*
X9715420Y-10000650D01*
X9715420Y-10000650D02*
X9705896Y-10010174D01*
X9705896Y-10010174D02*
X9686849Y-10019698D01*
X9686849Y-10019698D02*
X9648753Y-10019698D01*
X9648753Y-10019698D02*
X9629706Y-10029222D01*
X9629706Y-10029222D02*
X9620182Y-10038746D01*
X9620182Y-10038746D02*
X9610658Y-10057793D01*
X9610658Y-10057793D02*
X9610658Y-10095889D01*
X9610658Y-10095889D02*
X9620182Y-10114936D01*
X9620182Y-10114936D02*
X9629706Y-10124460D01*
X9629706Y-10124460D02*
X9648753Y-10133984D01*
X9648753Y-10133984D02*
X9686849Y-10133984D01*
X9686849Y-10133984D02*
X9705896Y-10124460D01*
X9705896Y-10124460D02*
X9715420Y-10114936D01*
X9715420Y-10114936D02*
X9724944Y-10095889D01*
X9724944Y-10095889D02*
X9724944Y-10057793D01*
X9724944Y-10057793D02*
X9715420Y-10038746D01*
X9715420Y-10038746D02*
X9705896Y-10029222D01*
X9705896Y-10029222D02*
X9686849Y-10019698D01*
X9801134Y-9933984D02*
X9801134Y-9972079D01*
X9877325Y-9933984D02*
X9877325Y-9972079D01*
X10172563Y-10210174D02*
X10163039Y-10200650D01*
X10163039Y-10200650D02*
X10143991Y-10172079D01*
X10143991Y-10172079D02*
X10134468Y-10153031D01*
X10134468Y-10153031D02*
X10124944Y-10124460D01*
X10124944Y-10124460D02*
X10115420Y-10076841D01*
X10115420Y-10076841D02*
X10115420Y-10038746D01*
X10115420Y-10038746D02*
X10124944Y-9991127D01*
X10124944Y-9991127D02*
X10134468Y-9962555D01*
X10134468Y-9962555D02*
X10143991Y-9943508D01*
X10143991Y-9943508D02*
X10163039Y-9914936D01*
X10163039Y-9914936D02*
X10172563Y-9905412D01*
X10353515Y-10133984D02*
X10239230Y-10133984D01*
X10296372Y-10133984D02*
X10296372Y-9933984D01*
X10296372Y-9933984D02*
X10277325Y-9962555D01*
X10277325Y-9962555D02*
X10258277Y-9981603D01*
X10258277Y-9981603D02*
X10239230Y-9991127D01*
X10467801Y-10019698D02*
X10448753Y-10010174D01*
X10448753Y-10010174D02*
X10439230Y-10000650D01*
X10439230Y-10000650D02*
X10429706Y-9981603D01*
X10429706Y-9981603D02*
X10429706Y-9972079D01*
X10429706Y-9972079D02*
X10439230Y-9953031D01*
X10439230Y-9953031D02*
X10448753Y-9943508D01*
X10448753Y-9943508D02*
X10467801Y-9933984D01*
X10467801Y-9933984D02*
X10505896Y-9933984D01*
X10505896Y-9933984D02*
X10524944Y-9943508D01*
X10524944Y-9943508D02*
X10534468Y-9953031D01*
X10534468Y-9953031D02*
X10543991Y-9972079D01*
X10543991Y-9972079D02*
X10543991Y-9981603D01*
X10543991Y-9981603D02*
X10534468Y-10000650D01*
X10534468Y-10000650D02*
X10524944Y-10010174D01*
X10524944Y-10010174D02*
X10505896Y-10019698D01*
X10505896Y-10019698D02*
X10467801Y-10019698D01*
X10467801Y-10019698D02*
X10448753Y-10029222D01*
X10448753Y-10029222D02*
X10439230Y-10038746D01*
X10439230Y-10038746D02*
X10429706Y-10057793D01*
X10429706Y-10057793D02*
X10429706Y-10095889D01*
X10429706Y-10095889D02*
X10439230Y-10114936D01*
X10439230Y-10114936D02*
X10448753Y-10124460D01*
X10448753Y-10124460D02*
X10467801Y-10133984D01*
X10467801Y-10133984D02*
X10505896Y-10133984D01*
X10505896Y-10133984D02*
X10524944Y-10124460D01*
X10524944Y-10124460D02*
X10534468Y-10114936D01*
X10534468Y-10114936D02*
X10543991Y-10095889D01*
X10543991Y-10095889D02*
X10543991Y-10057793D01*
X10543991Y-10057793D02*
X10534468Y-10038746D01*
X10534468Y-10038746D02*
X10524944Y-10029222D01*
X10524944Y-10029222D02*
X10505896Y-10019698D01*
X10782087Y-10133984D02*
X10782087Y-9933984D01*
X10867801Y-10133984D02*
X10867801Y-10029222D01*
X10867801Y-10029222D02*
X10858277Y-10010174D01*
X10858277Y-10010174D02*
X10839230Y-10000650D01*
X10839230Y-10000650D02*
X10810658Y-10000650D01*
X10810658Y-10000650D02*
X10791611Y-10010174D01*
X10791611Y-10010174D02*
X10782087Y-10019698D01*
X10991611Y-10133984D02*
X10972563Y-10124460D01*
X10972563Y-10124460D02*
X10963039Y-10114936D01*
X10963039Y-10114936D02*
X10953515Y-10095889D01*
X10953515Y-10095889D02*
X10953515Y-10038746D01*
X10953515Y-10038746D02*
X10963039Y-10019698D01*
X10963039Y-10019698D02*
X10972563Y-10010174D01*
X10972563Y-10010174D02*
X10991611Y-10000650D01*
X10991611Y-10000650D02*
X11020182Y-10000650D01*
X11020182Y-10000650D02*
X11039230Y-10010174D01*
X11039230Y-10010174D02*
X11048753Y-10019698D01*
X11048753Y-10019698D02*
X11058277Y-10038746D01*
X11058277Y-10038746D02*
X11058277Y-10095889D01*
X11058277Y-10095889D02*
X11048753Y-10114936D01*
X11048753Y-10114936D02*
X11039230Y-10124460D01*
X11039230Y-10124460D02*
X11020182Y-10133984D01*
X11020182Y-10133984D02*
X10991611Y-10133984D01*
X11172563Y-10133984D02*
X11153515Y-10124460D01*
X11153515Y-10124460D02*
X11143992Y-10105412D01*
X11143992Y-10105412D02*
X11143992Y-9933984D01*
X11324944Y-10124460D02*
X11305896Y-10133984D01*
X11305896Y-10133984D02*
X11267801Y-10133984D01*
X11267801Y-10133984D02*
X11248753Y-10124460D01*
X11248753Y-10124460D02*
X11239230Y-10105412D01*
X11239230Y-10105412D02*
X11239230Y-10029222D01*
X11239230Y-10029222D02*
X11248753Y-10010174D01*
X11248753Y-10010174D02*
X11267801Y-10000650D01*
X11267801Y-10000650D02*
X11305896Y-10000650D01*
X11305896Y-10000650D02*
X11324944Y-10010174D01*
X11324944Y-10010174D02*
X11334468Y-10029222D01*
X11334468Y-10029222D02*
X11334468Y-10048270D01*
X11334468Y-10048270D02*
X11239230Y-10067317D01*
X11410658Y-10124460D02*
X11429706Y-10133984D01*
X11429706Y-10133984D02*
X11467801Y-10133984D01*
X11467801Y-10133984D02*
X11486849Y-10124460D01*
X11486849Y-10124460D02*
X11496372Y-10105412D01*
X11496372Y-10105412D02*
X11496372Y-10095889D01*
X11496372Y-10095889D02*
X11486849Y-10076841D01*
X11486849Y-10076841D02*
X11467801Y-10067317D01*
X11467801Y-10067317D02*
X11439230Y-10067317D01*
X11439230Y-10067317D02*
X11420182Y-10057793D01*
X11420182Y-10057793D02*
X11410658Y-10038746D01*
X11410658Y-10038746D02*
X11410658Y-10029222D01*
X11410658Y-10029222D02*
X11420182Y-10010174D01*
X11420182Y-10010174D02*
X11439230Y-10000650D01*
X11439230Y-10000650D02*
X11467801Y-10000650D01*
X11467801Y-10000650D02*
X11486849Y-10010174D01*
X11563039Y-10210174D02*
X11572563Y-10200650D01*
X11572563Y-10200650D02*
X11591611Y-10172079D01*
X11591611Y-10172079D02*
X11601134Y-10153031D01*
X11601134Y-10153031D02*
X11610658Y-10124460D01*
X11610658Y-10124460D02*
X11620182Y-10076841D01*
X11620182Y-10076841D02*
X11620182Y-10038746D01*
X11620182Y-10038746D02*
X11610658Y-9991127D01*
X11610658Y-9991127D02*
X11601134Y-9962555D01*
X11601134Y-9962555D02*
X11591611Y-9943508D01*
X11591611Y-9943508D02*
X11572563Y-9914936D01*
X11572563Y-9914936D02*
X11563039Y-9905412D01*
D12*
X6597500Y-10306500D02*
G75*
G02*
X6517500Y-10306500I-40000J0D01*
G01*
X6517500Y-10306500D02*
G75*
G02*
X6597500Y-10306500I40000J0D01*
G01*
D11*
X6896372Y-10197984D02*
X6915420Y-10197984D01*
X6915420Y-10197984D02*
X6934467Y-10207508D01*
X6934467Y-10207508D02*
X6943991Y-10217031D01*
X6943991Y-10217031D02*
X6953515Y-10236079D01*
X6953515Y-10236079D02*
X6963039Y-10274174D01*
X6963039Y-10274174D02*
X6963039Y-10321793D01*
X6963039Y-10321793D02*
X6953515Y-10359889D01*
X6953515Y-10359889D02*
X6943991Y-10378936D01*
X6943991Y-10378936D02*
X6934467Y-10388460D01*
X6934467Y-10388460D02*
X6915420Y-10397984D01*
X6915420Y-10397984D02*
X6896372Y-10397984D01*
X6896372Y-10397984D02*
X6877324Y-10388460D01*
X6877324Y-10388460D02*
X6867801Y-10378936D01*
X6867801Y-10378936D02*
X6858277Y-10359889D01*
X6858277Y-10359889D02*
X6848753Y-10321793D01*
X6848753Y-10321793D02*
X6848753Y-10274174D01*
X6848753Y-10274174D02*
X6858277Y-10236079D01*
X6858277Y-10236079D02*
X6867801Y-10217031D01*
X6867801Y-10217031D02*
X6877324Y-10207508D01*
X6877324Y-10207508D02*
X6896372Y-10197984D01*
X7048753Y-10378936D02*
X7058277Y-10388460D01*
X7058277Y-10388460D02*
X7048753Y-10397984D01*
X7048753Y-10397984D02*
X7039229Y-10388460D01*
X7039229Y-10388460D02*
X7048753Y-10378936D01*
X7048753Y-10378936D02*
X7048753Y-10397984D01*
X7172562Y-10283698D02*
X7153515Y-10274174D01*
X7153515Y-10274174D02*
X7143991Y-10264650D01*
X7143991Y-10264650D02*
X7134467Y-10245603D01*
X7134467Y-10245603D02*
X7134467Y-10236079D01*
X7134467Y-10236079D02*
X7143991Y-10217031D01*
X7143991Y-10217031D02*
X7153515Y-10207508D01*
X7153515Y-10207508D02*
X7172562Y-10197984D01*
X7172562Y-10197984D02*
X7210658Y-10197984D01*
X7210658Y-10197984D02*
X7229705Y-10207508D01*
X7229705Y-10207508D02*
X7239229Y-10217031D01*
X7239229Y-10217031D02*
X7248753Y-10236079D01*
X7248753Y-10236079D02*
X7248753Y-10245603D01*
X7248753Y-10245603D02*
X7239229Y-10264650D01*
X7239229Y-10264650D02*
X7229705Y-10274174D01*
X7229705Y-10274174D02*
X7210658Y-10283698D01*
X7210658Y-10283698D02*
X7172562Y-10283698D01*
X7172562Y-10283698D02*
X7153515Y-10293222D01*
X7153515Y-10293222D02*
X7143991Y-10302746D01*
X7143991Y-10302746D02*
X7134467Y-10321793D01*
X7134467Y-10321793D02*
X7134467Y-10359889D01*
X7134467Y-10359889D02*
X7143991Y-10378936D01*
X7143991Y-10378936D02*
X7153515Y-10388460D01*
X7153515Y-10388460D02*
X7172562Y-10397984D01*
X7172562Y-10397984D02*
X7210658Y-10397984D01*
X7210658Y-10397984D02*
X7229705Y-10388460D01*
X7229705Y-10388460D02*
X7239229Y-10378936D01*
X7239229Y-10378936D02*
X7248753Y-10359889D01*
X7248753Y-10359889D02*
X7248753Y-10321793D01*
X7248753Y-10321793D02*
X7239229Y-10302746D01*
X7239229Y-10302746D02*
X7229705Y-10293222D01*
X7229705Y-10293222D02*
X7210658Y-10283698D01*
X7372562Y-10197984D02*
X7391610Y-10197984D01*
X7391610Y-10197984D02*
X7410658Y-10207508D01*
X7410658Y-10207508D02*
X7420182Y-10217031D01*
X7420182Y-10217031D02*
X7429705Y-10236079D01*
X7429705Y-10236079D02*
X7439229Y-10274174D01*
X7439229Y-10274174D02*
X7439229Y-10321793D01*
X7439229Y-10321793D02*
X7429705Y-10359889D01*
X7429705Y-10359889D02*
X7420182Y-10378936D01*
X7420182Y-10378936D02*
X7410658Y-10388460D01*
X7410658Y-10388460D02*
X7391610Y-10397984D01*
X7391610Y-10397984D02*
X7372562Y-10397984D01*
X7372562Y-10397984D02*
X7353515Y-10388460D01*
X7353515Y-10388460D02*
X7343991Y-10378936D01*
X7343991Y-10378936D02*
X7334467Y-10359889D01*
X7334467Y-10359889D02*
X7324943Y-10321793D01*
X7324943Y-10321793D02*
X7324943Y-10274174D01*
X7324943Y-10274174D02*
X7334467Y-10236079D01*
X7334467Y-10236079D02*
X7343991Y-10217031D01*
X7343991Y-10217031D02*
X7353515Y-10207508D01*
X7353515Y-10207508D02*
X7372562Y-10197984D01*
X7563039Y-10197984D02*
X7582086Y-10197984D01*
X7582086Y-10197984D02*
X7601134Y-10207508D01*
X7601134Y-10207508D02*
X7610658Y-10217031D01*
X7610658Y-10217031D02*
X7620182Y-10236079D01*
X7620182Y-10236079D02*
X7629705Y-10274174D01*
X7629705Y-10274174D02*
X7629705Y-10321793D01*
X7629705Y-10321793D02*
X7620182Y-10359889D01*
X7620182Y-10359889D02*
X7610658Y-10378936D01*
X7610658Y-10378936D02*
X7601134Y-10388460D01*
X7601134Y-10388460D02*
X7582086Y-10397984D01*
X7582086Y-10397984D02*
X7563039Y-10397984D01*
X7563039Y-10397984D02*
X7543991Y-10388460D01*
X7543991Y-10388460D02*
X7534467Y-10378936D01*
X7534467Y-10378936D02*
X7524943Y-10359889D01*
X7524943Y-10359889D02*
X7515420Y-10321793D01*
X7515420Y-10321793D02*
X7515420Y-10274174D01*
X7515420Y-10274174D02*
X7524943Y-10236079D01*
X7524943Y-10236079D02*
X7534467Y-10217031D01*
X7534467Y-10217031D02*
X7543991Y-10207508D01*
X7543991Y-10207508D02*
X7563039Y-10197984D01*
X7715420Y-10397984D02*
X7715420Y-10264650D01*
X7715420Y-10283698D02*
X7724943Y-10274174D01*
X7724943Y-10274174D02*
X7743991Y-10264650D01*
X7743991Y-10264650D02*
X7772563Y-10264650D01*
X7772563Y-10264650D02*
X7791610Y-10274174D01*
X7791610Y-10274174D02*
X7801134Y-10293222D01*
X7801134Y-10293222D02*
X7801134Y-10397984D01*
X7801134Y-10293222D02*
X7810658Y-10274174D01*
X7810658Y-10274174D02*
X7829705Y-10264650D01*
X7829705Y-10264650D02*
X7858277Y-10264650D01*
X7858277Y-10264650D02*
X7877324Y-10274174D01*
X7877324Y-10274174D02*
X7886848Y-10293222D01*
X7886848Y-10293222D02*
X7886848Y-10397984D01*
X7982086Y-10397984D02*
X7982086Y-10264650D01*
X7982086Y-10283698D02*
X7991610Y-10274174D01*
X7991610Y-10274174D02*
X8010658Y-10264650D01*
X8010658Y-10264650D02*
X8039229Y-10264650D01*
X8039229Y-10264650D02*
X8058277Y-10274174D01*
X8058277Y-10274174D02*
X8067801Y-10293222D01*
X8067801Y-10293222D02*
X8067801Y-10397984D01*
X8067801Y-10293222D02*
X8077324Y-10274174D01*
X8077324Y-10274174D02*
X8096372Y-10264650D01*
X8096372Y-10264650D02*
X8124943Y-10264650D01*
X8124943Y-10264650D02*
X8143991Y-10274174D01*
X8143991Y-10274174D02*
X8153515Y-10293222D01*
X8153515Y-10293222D02*
X8153515Y-10397984D01*
X8543991Y-10188460D02*
X8372563Y-10445603D01*
X8801134Y-10197984D02*
X8820182Y-10197984D01*
X8820182Y-10197984D02*
X8839229Y-10207508D01*
X8839229Y-10207508D02*
X8848753Y-10217031D01*
X8848753Y-10217031D02*
X8858277Y-10236079D01*
X8858277Y-10236079D02*
X8867801Y-10274174D01*
X8867801Y-10274174D02*
X8867801Y-10321793D01*
X8867801Y-10321793D02*
X8858277Y-10359889D01*
X8858277Y-10359889D02*
X8848753Y-10378936D01*
X8848753Y-10378936D02*
X8839229Y-10388460D01*
X8839229Y-10388460D02*
X8820182Y-10397984D01*
X8820182Y-10397984D02*
X8801134Y-10397984D01*
X8801134Y-10397984D02*
X8782087Y-10388460D01*
X8782087Y-10388460D02*
X8772563Y-10378936D01*
X8772563Y-10378936D02*
X8763039Y-10359889D01*
X8763039Y-10359889D02*
X8753515Y-10321793D01*
X8753515Y-10321793D02*
X8753515Y-10274174D01*
X8753515Y-10274174D02*
X8763039Y-10236079D01*
X8763039Y-10236079D02*
X8772563Y-10217031D01*
X8772563Y-10217031D02*
X8782087Y-10207508D01*
X8782087Y-10207508D02*
X8801134Y-10197984D01*
X8953515Y-10378936D02*
X8963039Y-10388460D01*
X8963039Y-10388460D02*
X8953515Y-10397984D01*
X8953515Y-10397984D02*
X8943991Y-10388460D01*
X8943991Y-10388460D02*
X8953515Y-10378936D01*
X8953515Y-10378936D02*
X8953515Y-10397984D01*
X9086848Y-10197984D02*
X9105896Y-10197984D01*
X9105896Y-10197984D02*
X9124944Y-10207508D01*
X9124944Y-10207508D02*
X9134468Y-10217031D01*
X9134468Y-10217031D02*
X9143991Y-10236079D01*
X9143991Y-10236079D02*
X9153515Y-10274174D01*
X9153515Y-10274174D02*
X9153515Y-10321793D01*
X9153515Y-10321793D02*
X9143991Y-10359889D01*
X9143991Y-10359889D02*
X9134468Y-10378936D01*
X9134468Y-10378936D02*
X9124944Y-10388460D01*
X9124944Y-10388460D02*
X9105896Y-10397984D01*
X9105896Y-10397984D02*
X9086848Y-10397984D01*
X9086848Y-10397984D02*
X9067801Y-10388460D01*
X9067801Y-10388460D02*
X9058277Y-10378936D01*
X9058277Y-10378936D02*
X9048753Y-10359889D01*
X9048753Y-10359889D02*
X9039229Y-10321793D01*
X9039229Y-10321793D02*
X9039229Y-10274174D01*
X9039229Y-10274174D02*
X9048753Y-10236079D01*
X9048753Y-10236079D02*
X9058277Y-10217031D01*
X9058277Y-10217031D02*
X9067801Y-10207508D01*
X9067801Y-10207508D02*
X9086848Y-10197984D01*
X9220182Y-10197984D02*
X9343991Y-10197984D01*
X9343991Y-10197984D02*
X9277325Y-10274174D01*
X9277325Y-10274174D02*
X9305896Y-10274174D01*
X9305896Y-10274174D02*
X9324944Y-10283698D01*
X9324944Y-10283698D02*
X9334468Y-10293222D01*
X9334468Y-10293222D02*
X9343991Y-10312270D01*
X9343991Y-10312270D02*
X9343991Y-10359889D01*
X9343991Y-10359889D02*
X9334468Y-10378936D01*
X9334468Y-10378936D02*
X9324944Y-10388460D01*
X9324944Y-10388460D02*
X9305896Y-10397984D01*
X9305896Y-10397984D02*
X9248753Y-10397984D01*
X9248753Y-10397984D02*
X9229706Y-10388460D01*
X9229706Y-10388460D02*
X9220182Y-10378936D01*
X9534468Y-10397984D02*
X9420182Y-10397984D01*
X9477325Y-10397984D02*
X9477325Y-10197984D01*
X9477325Y-10197984D02*
X9458277Y-10226555D01*
X9458277Y-10226555D02*
X9439229Y-10245603D01*
X9439229Y-10245603D02*
X9420182Y-10255127D01*
X9715420Y-10197984D02*
X9620182Y-10197984D01*
X9620182Y-10197984D02*
X9610658Y-10293222D01*
X9610658Y-10293222D02*
X9620182Y-10283698D01*
X9620182Y-10283698D02*
X9639229Y-10274174D01*
X9639229Y-10274174D02*
X9686849Y-10274174D01*
X9686849Y-10274174D02*
X9705896Y-10283698D01*
X9705896Y-10283698D02*
X9715420Y-10293222D01*
X9715420Y-10293222D02*
X9724944Y-10312270D01*
X9724944Y-10312270D02*
X9724944Y-10359889D01*
X9724944Y-10359889D02*
X9715420Y-10378936D01*
X9715420Y-10378936D02*
X9705896Y-10388460D01*
X9705896Y-10388460D02*
X9686849Y-10397984D01*
X9686849Y-10397984D02*
X9639229Y-10397984D01*
X9639229Y-10397984D02*
X9620182Y-10388460D01*
X9620182Y-10388460D02*
X9610658Y-10378936D01*
X9801134Y-10197984D02*
X9801134Y-10236079D01*
X9877325Y-10197984D02*
X9877325Y-10236079D01*
X10172563Y-10474174D02*
X10163039Y-10464650D01*
X10163039Y-10464650D02*
X10143991Y-10436079D01*
X10143991Y-10436079D02*
X10134468Y-10417031D01*
X10134468Y-10417031D02*
X10124944Y-10388460D01*
X10124944Y-10388460D02*
X10115420Y-10340841D01*
X10115420Y-10340841D02*
X10115420Y-10302746D01*
X10115420Y-10302746D02*
X10124944Y-10255127D01*
X10124944Y-10255127D02*
X10134468Y-10226555D01*
X10134468Y-10226555D02*
X10143991Y-10207508D01*
X10143991Y-10207508D02*
X10163039Y-10178936D01*
X10163039Y-10178936D02*
X10172563Y-10169412D01*
X10229706Y-10197984D02*
X10353515Y-10197984D01*
X10353515Y-10197984D02*
X10286849Y-10274174D01*
X10286849Y-10274174D02*
X10315420Y-10274174D01*
X10315420Y-10274174D02*
X10334468Y-10283698D01*
X10334468Y-10283698D02*
X10343991Y-10293222D01*
X10343991Y-10293222D02*
X10353515Y-10312270D01*
X10353515Y-10312270D02*
X10353515Y-10359889D01*
X10353515Y-10359889D02*
X10343991Y-10378936D01*
X10343991Y-10378936D02*
X10334468Y-10388460D01*
X10334468Y-10388460D02*
X10315420Y-10397984D01*
X10315420Y-10397984D02*
X10258277Y-10397984D01*
X10258277Y-10397984D02*
X10239230Y-10388460D01*
X10239230Y-10388460D02*
X10229706Y-10378936D01*
X10591611Y-10397984D02*
X10591611Y-10197984D01*
X10677325Y-10397984D02*
X10677325Y-10293222D01*
X10677325Y-10293222D02*
X10667801Y-10274174D01*
X10667801Y-10274174D02*
X10648753Y-10264650D01*
X10648753Y-10264650D02*
X10620182Y-10264650D01*
X10620182Y-10264650D02*
X10601134Y-10274174D01*
X10601134Y-10274174D02*
X10591611Y-10283698D01*
X10801134Y-10397984D02*
X10782087Y-10388460D01*
X10782087Y-10388460D02*
X10772563Y-10378936D01*
X10772563Y-10378936D02*
X10763039Y-10359889D01*
X10763039Y-10359889D02*
X10763039Y-10302746D01*
X10763039Y-10302746D02*
X10772563Y-10283698D01*
X10772563Y-10283698D02*
X10782087Y-10274174D01*
X10782087Y-10274174D02*
X10801134Y-10264650D01*
X10801134Y-10264650D02*
X10829706Y-10264650D01*
X10829706Y-10264650D02*
X10848753Y-10274174D01*
X10848753Y-10274174D02*
X10858277Y-10283698D01*
X10858277Y-10283698D02*
X10867801Y-10302746D01*
X10867801Y-10302746D02*
X10867801Y-10359889D01*
X10867801Y-10359889D02*
X10858277Y-10378936D01*
X10858277Y-10378936D02*
X10848753Y-10388460D01*
X10848753Y-10388460D02*
X10829706Y-10397984D01*
X10829706Y-10397984D02*
X10801134Y-10397984D01*
X10982087Y-10397984D02*
X10963039Y-10388460D01*
X10963039Y-10388460D02*
X10953515Y-10369412D01*
X10953515Y-10369412D02*
X10953515Y-10197984D01*
X11134468Y-10388460D02*
X11115420Y-10397984D01*
X11115420Y-10397984D02*
X11077325Y-10397984D01*
X11077325Y-10397984D02*
X11058277Y-10388460D01*
X11058277Y-10388460D02*
X11048753Y-10369412D01*
X11048753Y-10369412D02*
X11048753Y-10293222D01*
X11048753Y-10293222D02*
X11058277Y-10274174D01*
X11058277Y-10274174D02*
X11077325Y-10264650D01*
X11077325Y-10264650D02*
X11115420Y-10264650D01*
X11115420Y-10264650D02*
X11134468Y-10274174D01*
X11134468Y-10274174D02*
X11143992Y-10293222D01*
X11143992Y-10293222D02*
X11143992Y-10312270D01*
X11143992Y-10312270D02*
X11048753Y-10331317D01*
X11220182Y-10388460D02*
X11239230Y-10397984D01*
X11239230Y-10397984D02*
X11277325Y-10397984D01*
X11277325Y-10397984D02*
X11296372Y-10388460D01*
X11296372Y-10388460D02*
X11305896Y-10369412D01*
X11305896Y-10369412D02*
X11305896Y-10359889D01*
X11305896Y-10359889D02*
X11296372Y-10340841D01*
X11296372Y-10340841D02*
X11277325Y-10331317D01*
X11277325Y-10331317D02*
X11248753Y-10331317D01*
X11248753Y-10331317D02*
X11229706Y-10321793D01*
X11229706Y-10321793D02*
X11220182Y-10302746D01*
X11220182Y-10302746D02*
X11220182Y-10293222D01*
X11220182Y-10293222D02*
X11229706Y-10274174D01*
X11229706Y-10274174D02*
X11248753Y-10264650D01*
X11248753Y-10264650D02*
X11277325Y-10264650D01*
X11277325Y-10264650D02*
X11296372Y-10274174D01*
X11372563Y-10474174D02*
X11382087Y-10464650D01*
X11382087Y-10464650D02*
X11401134Y-10436079D01*
X11401134Y-10436079D02*
X11410658Y-10417031D01*
X11410658Y-10417031D02*
X11420182Y-10388460D01*
X11420182Y-10388460D02*
X11429706Y-10340841D01*
X11429706Y-10340841D02*
X11429706Y-10302746D01*
X11429706Y-10302746D02*
X11420182Y-10255127D01*
X11420182Y-10255127D02*
X11410658Y-10226555D01*
X11410658Y-10226555D02*
X11401134Y-10207508D01*
X11401134Y-10207508D02*
X11382087Y-10178936D01*
X11382087Y-10178936D02*
X11372563Y-10169412D01*
D12*
X6552500Y-10525500D02*
X6552500Y-10615500D01*
X6507500Y-10570500D02*
X6597500Y-10570500D01*
D11*
X6896372Y-10461984D02*
X6915420Y-10461984D01*
X6915420Y-10461984D02*
X6934467Y-10471508D01*
X6934467Y-10471508D02*
X6943991Y-10481031D01*
X6943991Y-10481031D02*
X6953515Y-10500079D01*
X6953515Y-10500079D02*
X6963039Y-10538174D01*
X6963039Y-10538174D02*
X6963039Y-10585793D01*
X6963039Y-10585793D02*
X6953515Y-10623889D01*
X6953515Y-10623889D02*
X6943991Y-10642936D01*
X6943991Y-10642936D02*
X6934467Y-10652460D01*
X6934467Y-10652460D02*
X6915420Y-10661984D01*
X6915420Y-10661984D02*
X6896372Y-10661984D01*
X6896372Y-10661984D02*
X6877324Y-10652460D01*
X6877324Y-10652460D02*
X6867801Y-10642936D01*
X6867801Y-10642936D02*
X6858277Y-10623889D01*
X6858277Y-10623889D02*
X6848753Y-10585793D01*
X6848753Y-10585793D02*
X6848753Y-10538174D01*
X6848753Y-10538174D02*
X6858277Y-10500079D01*
X6858277Y-10500079D02*
X6867801Y-10481031D01*
X6867801Y-10481031D02*
X6877324Y-10471508D01*
X6877324Y-10471508D02*
X6896372Y-10461984D01*
X7048753Y-10642936D02*
X7058277Y-10652460D01*
X7058277Y-10652460D02*
X7048753Y-10661984D01*
X7048753Y-10661984D02*
X7039229Y-10652460D01*
X7039229Y-10652460D02*
X7048753Y-10642936D01*
X7048753Y-10642936D02*
X7048753Y-10661984D01*
X7153515Y-10661984D02*
X7191610Y-10661984D01*
X7191610Y-10661984D02*
X7210658Y-10652460D01*
X7210658Y-10652460D02*
X7220182Y-10642936D01*
X7220182Y-10642936D02*
X7239229Y-10614365D01*
X7239229Y-10614365D02*
X7248753Y-10576270D01*
X7248753Y-10576270D02*
X7248753Y-10500079D01*
X7248753Y-10500079D02*
X7239229Y-10481031D01*
X7239229Y-10481031D02*
X7229705Y-10471508D01*
X7229705Y-10471508D02*
X7210658Y-10461984D01*
X7210658Y-10461984D02*
X7172562Y-10461984D01*
X7172562Y-10461984D02*
X7153515Y-10471508D01*
X7153515Y-10471508D02*
X7143991Y-10481031D01*
X7143991Y-10481031D02*
X7134467Y-10500079D01*
X7134467Y-10500079D02*
X7134467Y-10547698D01*
X7134467Y-10547698D02*
X7143991Y-10566746D01*
X7143991Y-10566746D02*
X7153515Y-10576270D01*
X7153515Y-10576270D02*
X7172562Y-10585793D01*
X7172562Y-10585793D02*
X7210658Y-10585793D01*
X7210658Y-10585793D02*
X7229705Y-10576270D01*
X7229705Y-10576270D02*
X7239229Y-10566746D01*
X7239229Y-10566746D02*
X7248753Y-10547698D01*
X7372562Y-10461984D02*
X7391610Y-10461984D01*
X7391610Y-10461984D02*
X7410658Y-10471508D01*
X7410658Y-10471508D02*
X7420182Y-10481031D01*
X7420182Y-10481031D02*
X7429705Y-10500079D01*
X7429705Y-10500079D02*
X7439229Y-10538174D01*
X7439229Y-10538174D02*
X7439229Y-10585793D01*
X7439229Y-10585793D02*
X7429705Y-10623889D01*
X7429705Y-10623889D02*
X7420182Y-10642936D01*
X7420182Y-10642936D02*
X7410658Y-10652460D01*
X7410658Y-10652460D02*
X7391610Y-10661984D01*
X7391610Y-10661984D02*
X7372562Y-10661984D01*
X7372562Y-10661984D02*
X7353515Y-10652460D01*
X7353515Y-10652460D02*
X7343991Y-10642936D01*
X7343991Y-10642936D02*
X7334467Y-10623889D01*
X7334467Y-10623889D02*
X7324943Y-10585793D01*
X7324943Y-10585793D02*
X7324943Y-10538174D01*
X7324943Y-10538174D02*
X7334467Y-10500079D01*
X7334467Y-10500079D02*
X7343991Y-10481031D01*
X7343991Y-10481031D02*
X7353515Y-10471508D01*
X7353515Y-10471508D02*
X7372562Y-10461984D01*
X7563039Y-10461984D02*
X7582086Y-10461984D01*
X7582086Y-10461984D02*
X7601134Y-10471508D01*
X7601134Y-10471508D02*
X7610658Y-10481031D01*
X7610658Y-10481031D02*
X7620182Y-10500079D01*
X7620182Y-10500079D02*
X7629705Y-10538174D01*
X7629705Y-10538174D02*
X7629705Y-10585793D01*
X7629705Y-10585793D02*
X7620182Y-10623889D01*
X7620182Y-10623889D02*
X7610658Y-10642936D01*
X7610658Y-10642936D02*
X7601134Y-10652460D01*
X7601134Y-10652460D02*
X7582086Y-10661984D01*
X7582086Y-10661984D02*
X7563039Y-10661984D01*
X7563039Y-10661984D02*
X7543991Y-10652460D01*
X7543991Y-10652460D02*
X7534467Y-10642936D01*
X7534467Y-10642936D02*
X7524943Y-10623889D01*
X7524943Y-10623889D02*
X7515420Y-10585793D01*
X7515420Y-10585793D02*
X7515420Y-10538174D01*
X7515420Y-10538174D02*
X7524943Y-10500079D01*
X7524943Y-10500079D02*
X7534467Y-10481031D01*
X7534467Y-10481031D02*
X7543991Y-10471508D01*
X7543991Y-10471508D02*
X7563039Y-10461984D01*
X7715420Y-10661984D02*
X7715420Y-10528650D01*
X7715420Y-10547698D02*
X7724943Y-10538174D01*
X7724943Y-10538174D02*
X7743991Y-10528650D01*
X7743991Y-10528650D02*
X7772563Y-10528650D01*
X7772563Y-10528650D02*
X7791610Y-10538174D01*
X7791610Y-10538174D02*
X7801134Y-10557222D01*
X7801134Y-10557222D02*
X7801134Y-10661984D01*
X7801134Y-10557222D02*
X7810658Y-10538174D01*
X7810658Y-10538174D02*
X7829705Y-10528650D01*
X7829705Y-10528650D02*
X7858277Y-10528650D01*
X7858277Y-10528650D02*
X7877324Y-10538174D01*
X7877324Y-10538174D02*
X7886848Y-10557222D01*
X7886848Y-10557222D02*
X7886848Y-10661984D01*
X7982086Y-10661984D02*
X7982086Y-10528650D01*
X7982086Y-10547698D02*
X7991610Y-10538174D01*
X7991610Y-10538174D02*
X8010658Y-10528650D01*
X8010658Y-10528650D02*
X8039229Y-10528650D01*
X8039229Y-10528650D02*
X8058277Y-10538174D01*
X8058277Y-10538174D02*
X8067801Y-10557222D01*
X8067801Y-10557222D02*
X8067801Y-10661984D01*
X8067801Y-10557222D02*
X8077324Y-10538174D01*
X8077324Y-10538174D02*
X8096372Y-10528650D01*
X8096372Y-10528650D02*
X8124943Y-10528650D01*
X8124943Y-10528650D02*
X8143991Y-10538174D01*
X8143991Y-10538174D02*
X8153515Y-10557222D01*
X8153515Y-10557222D02*
X8153515Y-10661984D01*
X8543991Y-10452460D02*
X8372563Y-10709603D01*
X8801134Y-10461984D02*
X8820182Y-10461984D01*
X8820182Y-10461984D02*
X8839229Y-10471508D01*
X8839229Y-10471508D02*
X8848753Y-10481031D01*
X8848753Y-10481031D02*
X8858277Y-10500079D01*
X8858277Y-10500079D02*
X8867801Y-10538174D01*
X8867801Y-10538174D02*
X8867801Y-10585793D01*
X8867801Y-10585793D02*
X8858277Y-10623889D01*
X8858277Y-10623889D02*
X8848753Y-10642936D01*
X8848753Y-10642936D02*
X8839229Y-10652460D01*
X8839229Y-10652460D02*
X8820182Y-10661984D01*
X8820182Y-10661984D02*
X8801134Y-10661984D01*
X8801134Y-10661984D02*
X8782087Y-10652460D01*
X8782087Y-10652460D02*
X8772563Y-10642936D01*
X8772563Y-10642936D02*
X8763039Y-10623889D01*
X8763039Y-10623889D02*
X8753515Y-10585793D01*
X8753515Y-10585793D02*
X8753515Y-10538174D01*
X8753515Y-10538174D02*
X8763039Y-10500079D01*
X8763039Y-10500079D02*
X8772563Y-10481031D01*
X8772563Y-10481031D02*
X8782087Y-10471508D01*
X8782087Y-10471508D02*
X8801134Y-10461984D01*
X8953515Y-10642936D02*
X8963039Y-10652460D01*
X8963039Y-10652460D02*
X8953515Y-10661984D01*
X8953515Y-10661984D02*
X8943991Y-10652460D01*
X8943991Y-10652460D02*
X8953515Y-10642936D01*
X8953515Y-10642936D02*
X8953515Y-10661984D01*
X9086848Y-10461984D02*
X9105896Y-10461984D01*
X9105896Y-10461984D02*
X9124944Y-10471508D01*
X9124944Y-10471508D02*
X9134468Y-10481031D01*
X9134468Y-10481031D02*
X9143991Y-10500079D01*
X9143991Y-10500079D02*
X9153515Y-10538174D01*
X9153515Y-10538174D02*
X9153515Y-10585793D01*
X9153515Y-10585793D02*
X9143991Y-10623889D01*
X9143991Y-10623889D02*
X9134468Y-10642936D01*
X9134468Y-10642936D02*
X9124944Y-10652460D01*
X9124944Y-10652460D02*
X9105896Y-10661984D01*
X9105896Y-10661984D02*
X9086848Y-10661984D01*
X9086848Y-10661984D02*
X9067801Y-10652460D01*
X9067801Y-10652460D02*
X9058277Y-10642936D01*
X9058277Y-10642936D02*
X9048753Y-10623889D01*
X9048753Y-10623889D02*
X9039229Y-10585793D01*
X9039229Y-10585793D02*
X9039229Y-10538174D01*
X9039229Y-10538174D02*
X9048753Y-10500079D01*
X9048753Y-10500079D02*
X9058277Y-10481031D01*
X9058277Y-10481031D02*
X9067801Y-10471508D01*
X9067801Y-10471508D02*
X9086848Y-10461984D01*
X9220182Y-10461984D02*
X9343991Y-10461984D01*
X9343991Y-10461984D02*
X9277325Y-10538174D01*
X9277325Y-10538174D02*
X9305896Y-10538174D01*
X9305896Y-10538174D02*
X9324944Y-10547698D01*
X9324944Y-10547698D02*
X9334468Y-10557222D01*
X9334468Y-10557222D02*
X9343991Y-10576270D01*
X9343991Y-10576270D02*
X9343991Y-10623889D01*
X9343991Y-10623889D02*
X9334468Y-10642936D01*
X9334468Y-10642936D02*
X9324944Y-10652460D01*
X9324944Y-10652460D02*
X9305896Y-10661984D01*
X9305896Y-10661984D02*
X9248753Y-10661984D01*
X9248753Y-10661984D02*
X9229706Y-10652460D01*
X9229706Y-10652460D02*
X9220182Y-10642936D01*
X9524944Y-10461984D02*
X9429706Y-10461984D01*
X9429706Y-10461984D02*
X9420182Y-10557222D01*
X9420182Y-10557222D02*
X9429706Y-10547698D01*
X9429706Y-10547698D02*
X9448753Y-10538174D01*
X9448753Y-10538174D02*
X9496372Y-10538174D01*
X9496372Y-10538174D02*
X9515420Y-10547698D01*
X9515420Y-10547698D02*
X9524944Y-10557222D01*
X9524944Y-10557222D02*
X9534468Y-10576270D01*
X9534468Y-10576270D02*
X9534468Y-10623889D01*
X9534468Y-10623889D02*
X9524944Y-10642936D01*
X9524944Y-10642936D02*
X9515420Y-10652460D01*
X9515420Y-10652460D02*
X9496372Y-10661984D01*
X9496372Y-10661984D02*
X9448753Y-10661984D01*
X9448753Y-10661984D02*
X9429706Y-10652460D01*
X9429706Y-10652460D02*
X9420182Y-10642936D01*
X9705896Y-10528650D02*
X9705896Y-10661984D01*
X9658277Y-10452460D02*
X9610658Y-10595317D01*
X9610658Y-10595317D02*
X9734468Y-10595317D01*
X9801134Y-10461984D02*
X9801134Y-10500079D01*
X9877325Y-10461984D02*
X9877325Y-10500079D01*
X10172563Y-10738174D02*
X10163039Y-10728650D01*
X10163039Y-10728650D02*
X10143991Y-10700079D01*
X10143991Y-10700079D02*
X10134468Y-10681031D01*
X10134468Y-10681031D02*
X10124944Y-10652460D01*
X10124944Y-10652460D02*
X10115420Y-10604841D01*
X10115420Y-10604841D02*
X10115420Y-10566746D01*
X10115420Y-10566746D02*
X10124944Y-10519127D01*
X10124944Y-10519127D02*
X10134468Y-10490555D01*
X10134468Y-10490555D02*
X10143991Y-10471508D01*
X10143991Y-10471508D02*
X10163039Y-10442936D01*
X10163039Y-10442936D02*
X10172563Y-10433412D01*
X10334468Y-10528650D02*
X10334468Y-10661984D01*
X10286849Y-10452460D02*
X10239230Y-10595317D01*
X10239230Y-10595317D02*
X10363039Y-10595317D01*
X10591611Y-10661984D02*
X10591611Y-10461984D01*
X10677325Y-10661984D02*
X10677325Y-10557222D01*
X10677325Y-10557222D02*
X10667801Y-10538174D01*
X10667801Y-10538174D02*
X10648753Y-10528650D01*
X10648753Y-10528650D02*
X10620182Y-10528650D01*
X10620182Y-10528650D02*
X10601134Y-10538174D01*
X10601134Y-10538174D02*
X10591611Y-10547698D01*
X10801134Y-10661984D02*
X10782087Y-10652460D01*
X10782087Y-10652460D02*
X10772563Y-10642936D01*
X10772563Y-10642936D02*
X10763039Y-10623889D01*
X10763039Y-10623889D02*
X10763039Y-10566746D01*
X10763039Y-10566746D02*
X10772563Y-10547698D01*
X10772563Y-10547698D02*
X10782087Y-10538174D01*
X10782087Y-10538174D02*
X10801134Y-10528650D01*
X10801134Y-10528650D02*
X10829706Y-10528650D01*
X10829706Y-10528650D02*
X10848753Y-10538174D01*
X10848753Y-10538174D02*
X10858277Y-10547698D01*
X10858277Y-10547698D02*
X10867801Y-10566746D01*
X10867801Y-10566746D02*
X10867801Y-10623889D01*
X10867801Y-10623889D02*
X10858277Y-10642936D01*
X10858277Y-10642936D02*
X10848753Y-10652460D01*
X10848753Y-10652460D02*
X10829706Y-10661984D01*
X10829706Y-10661984D02*
X10801134Y-10661984D01*
X10982087Y-10661984D02*
X10963039Y-10652460D01*
X10963039Y-10652460D02*
X10953515Y-10633412D01*
X10953515Y-10633412D02*
X10953515Y-10461984D01*
X11134468Y-10652460D02*
X11115420Y-10661984D01*
X11115420Y-10661984D02*
X11077325Y-10661984D01*
X11077325Y-10661984D02*
X11058277Y-10652460D01*
X11058277Y-10652460D02*
X11048753Y-10633412D01*
X11048753Y-10633412D02*
X11048753Y-10557222D01*
X11048753Y-10557222D02*
X11058277Y-10538174D01*
X11058277Y-10538174D02*
X11077325Y-10528650D01*
X11077325Y-10528650D02*
X11115420Y-10528650D01*
X11115420Y-10528650D02*
X11134468Y-10538174D01*
X11134468Y-10538174D02*
X11143992Y-10557222D01*
X11143992Y-10557222D02*
X11143992Y-10576270D01*
X11143992Y-10576270D02*
X11048753Y-10595317D01*
X11220182Y-10652460D02*
X11239230Y-10661984D01*
X11239230Y-10661984D02*
X11277325Y-10661984D01*
X11277325Y-10661984D02*
X11296372Y-10652460D01*
X11296372Y-10652460D02*
X11305896Y-10633412D01*
X11305896Y-10633412D02*
X11305896Y-10623889D01*
X11305896Y-10623889D02*
X11296372Y-10604841D01*
X11296372Y-10604841D02*
X11277325Y-10595317D01*
X11277325Y-10595317D02*
X11248753Y-10595317D01*
X11248753Y-10595317D02*
X11229706Y-10585793D01*
X11229706Y-10585793D02*
X11220182Y-10566746D01*
X11220182Y-10566746D02*
X11220182Y-10557222D01*
X11220182Y-10557222D02*
X11229706Y-10538174D01*
X11229706Y-10538174D02*
X11248753Y-10528650D01*
X11248753Y-10528650D02*
X11277325Y-10528650D01*
X11277325Y-10528650D02*
X11296372Y-10538174D01*
X11372563Y-10738174D02*
X11382087Y-10728650D01*
X11382087Y-10728650D02*
X11401134Y-10700079D01*
X11401134Y-10700079D02*
X11410658Y-10681031D01*
X11410658Y-10681031D02*
X11420182Y-10652460D01*
X11420182Y-10652460D02*
X11429706Y-10604841D01*
X11429706Y-10604841D02*
X11429706Y-10566746D01*
X11429706Y-10566746D02*
X11420182Y-10519127D01*
X11420182Y-10519127D02*
X11410658Y-10490555D01*
X11410658Y-10490555D02*
X11401134Y-10471508D01*
X11401134Y-10471508D02*
X11382087Y-10442936D01*
X11382087Y-10442936D02*
X11372563Y-10433412D01*
D12*
X6582856Y-10869856D02*
X6582856Y-10799144D01*
X6512144Y-10799144D01*
X6512144Y-10869856D01*
X6582856Y-10869856D01*
D11*
X6963039Y-10925984D02*
X6848753Y-10925984D01*
X6905896Y-10925984D02*
X6905896Y-10725984D01*
X6905896Y-10725984D02*
X6886848Y-10754555D01*
X6886848Y-10754555D02*
X6867801Y-10773603D01*
X6867801Y-10773603D02*
X6848753Y-10783127D01*
X7048753Y-10906936D02*
X7058277Y-10916460D01*
X7058277Y-10916460D02*
X7048753Y-10925984D01*
X7048753Y-10925984D02*
X7039229Y-10916460D01*
X7039229Y-10916460D02*
X7048753Y-10906936D01*
X7048753Y-10906936D02*
X7048753Y-10925984D01*
X7182086Y-10725984D02*
X7201134Y-10725984D01*
X7201134Y-10725984D02*
X7220182Y-10735508D01*
X7220182Y-10735508D02*
X7229705Y-10745031D01*
X7229705Y-10745031D02*
X7239229Y-10764079D01*
X7239229Y-10764079D02*
X7248753Y-10802174D01*
X7248753Y-10802174D02*
X7248753Y-10849793D01*
X7248753Y-10849793D02*
X7239229Y-10887889D01*
X7239229Y-10887889D02*
X7229705Y-10906936D01*
X7229705Y-10906936D02*
X7220182Y-10916460D01*
X7220182Y-10916460D02*
X7201134Y-10925984D01*
X7201134Y-10925984D02*
X7182086Y-10925984D01*
X7182086Y-10925984D02*
X7163039Y-10916460D01*
X7163039Y-10916460D02*
X7153515Y-10906936D01*
X7153515Y-10906936D02*
X7143991Y-10887889D01*
X7143991Y-10887889D02*
X7134467Y-10849793D01*
X7134467Y-10849793D02*
X7134467Y-10802174D01*
X7134467Y-10802174D02*
X7143991Y-10764079D01*
X7143991Y-10764079D02*
X7153515Y-10745031D01*
X7153515Y-10745031D02*
X7163039Y-10735508D01*
X7163039Y-10735508D02*
X7182086Y-10725984D01*
X7372562Y-10725984D02*
X7391610Y-10725984D01*
X7391610Y-10725984D02*
X7410658Y-10735508D01*
X7410658Y-10735508D02*
X7420182Y-10745031D01*
X7420182Y-10745031D02*
X7429705Y-10764079D01*
X7429705Y-10764079D02*
X7439229Y-10802174D01*
X7439229Y-10802174D02*
X7439229Y-10849793D01*
X7439229Y-10849793D02*
X7429705Y-10887889D01*
X7429705Y-10887889D02*
X7420182Y-10906936D01*
X7420182Y-10906936D02*
X7410658Y-10916460D01*
X7410658Y-10916460D02*
X7391610Y-10925984D01*
X7391610Y-10925984D02*
X7372562Y-10925984D01*
X7372562Y-10925984D02*
X7353515Y-10916460D01*
X7353515Y-10916460D02*
X7343991Y-10906936D01*
X7343991Y-10906936D02*
X7334467Y-10887889D01*
X7334467Y-10887889D02*
X7324943Y-10849793D01*
X7324943Y-10849793D02*
X7324943Y-10802174D01*
X7324943Y-10802174D02*
X7334467Y-10764079D01*
X7334467Y-10764079D02*
X7343991Y-10745031D01*
X7343991Y-10745031D02*
X7353515Y-10735508D01*
X7353515Y-10735508D02*
X7372562Y-10725984D01*
X7563039Y-10725984D02*
X7582086Y-10725984D01*
X7582086Y-10725984D02*
X7601134Y-10735508D01*
X7601134Y-10735508D02*
X7610658Y-10745031D01*
X7610658Y-10745031D02*
X7620182Y-10764079D01*
X7620182Y-10764079D02*
X7629705Y-10802174D01*
X7629705Y-10802174D02*
X7629705Y-10849793D01*
X7629705Y-10849793D02*
X7620182Y-10887889D01*
X7620182Y-10887889D02*
X7610658Y-10906936D01*
X7610658Y-10906936D02*
X7601134Y-10916460D01*
X7601134Y-10916460D02*
X7582086Y-10925984D01*
X7582086Y-10925984D02*
X7563039Y-10925984D01*
X7563039Y-10925984D02*
X7543991Y-10916460D01*
X7543991Y-10916460D02*
X7534467Y-10906936D01*
X7534467Y-10906936D02*
X7524943Y-10887889D01*
X7524943Y-10887889D02*
X7515420Y-10849793D01*
X7515420Y-10849793D02*
X7515420Y-10802174D01*
X7515420Y-10802174D02*
X7524943Y-10764079D01*
X7524943Y-10764079D02*
X7534467Y-10745031D01*
X7534467Y-10745031D02*
X7543991Y-10735508D01*
X7543991Y-10735508D02*
X7563039Y-10725984D01*
X7715420Y-10925984D02*
X7715420Y-10792650D01*
X7715420Y-10811698D02*
X7724943Y-10802174D01*
X7724943Y-10802174D02*
X7743991Y-10792650D01*
X7743991Y-10792650D02*
X7772563Y-10792650D01*
X7772563Y-10792650D02*
X7791610Y-10802174D01*
X7791610Y-10802174D02*
X7801134Y-10821222D01*
X7801134Y-10821222D02*
X7801134Y-10925984D01*
X7801134Y-10821222D02*
X7810658Y-10802174D01*
X7810658Y-10802174D02*
X7829705Y-10792650D01*
X7829705Y-10792650D02*
X7858277Y-10792650D01*
X7858277Y-10792650D02*
X7877324Y-10802174D01*
X7877324Y-10802174D02*
X7886848Y-10821222D01*
X7886848Y-10821222D02*
X7886848Y-10925984D01*
X7982086Y-10925984D02*
X7982086Y-10792650D01*
X7982086Y-10811698D02*
X7991610Y-10802174D01*
X7991610Y-10802174D02*
X8010658Y-10792650D01*
X8010658Y-10792650D02*
X8039229Y-10792650D01*
X8039229Y-10792650D02*
X8058277Y-10802174D01*
X8058277Y-10802174D02*
X8067801Y-10821222D01*
X8067801Y-10821222D02*
X8067801Y-10925984D01*
X8067801Y-10821222D02*
X8077324Y-10802174D01*
X8077324Y-10802174D02*
X8096372Y-10792650D01*
X8096372Y-10792650D02*
X8124943Y-10792650D01*
X8124943Y-10792650D02*
X8143991Y-10802174D01*
X8143991Y-10802174D02*
X8153515Y-10821222D01*
X8153515Y-10821222D02*
X8153515Y-10925984D01*
X8543991Y-10716460D02*
X8372563Y-10973603D01*
X8801134Y-10725984D02*
X8820182Y-10725984D01*
X8820182Y-10725984D02*
X8839229Y-10735508D01*
X8839229Y-10735508D02*
X8848753Y-10745031D01*
X8848753Y-10745031D02*
X8858277Y-10764079D01*
X8858277Y-10764079D02*
X8867801Y-10802174D01*
X8867801Y-10802174D02*
X8867801Y-10849793D01*
X8867801Y-10849793D02*
X8858277Y-10887889D01*
X8858277Y-10887889D02*
X8848753Y-10906936D01*
X8848753Y-10906936D02*
X8839229Y-10916460D01*
X8839229Y-10916460D02*
X8820182Y-10925984D01*
X8820182Y-10925984D02*
X8801134Y-10925984D01*
X8801134Y-10925984D02*
X8782087Y-10916460D01*
X8782087Y-10916460D02*
X8772563Y-10906936D01*
X8772563Y-10906936D02*
X8763039Y-10887889D01*
X8763039Y-10887889D02*
X8753515Y-10849793D01*
X8753515Y-10849793D02*
X8753515Y-10802174D01*
X8753515Y-10802174D02*
X8763039Y-10764079D01*
X8763039Y-10764079D02*
X8772563Y-10745031D01*
X8772563Y-10745031D02*
X8782087Y-10735508D01*
X8782087Y-10735508D02*
X8801134Y-10725984D01*
X8953515Y-10906936D02*
X8963039Y-10916460D01*
X8963039Y-10916460D02*
X8953515Y-10925984D01*
X8953515Y-10925984D02*
X8943991Y-10916460D01*
X8943991Y-10916460D02*
X8953515Y-10906936D01*
X8953515Y-10906936D02*
X8953515Y-10925984D01*
X9086848Y-10725984D02*
X9105896Y-10725984D01*
X9105896Y-10725984D02*
X9124944Y-10735508D01*
X9124944Y-10735508D02*
X9134468Y-10745031D01*
X9134468Y-10745031D02*
X9143991Y-10764079D01*
X9143991Y-10764079D02*
X9153515Y-10802174D01*
X9153515Y-10802174D02*
X9153515Y-10849793D01*
X9153515Y-10849793D02*
X9143991Y-10887889D01*
X9143991Y-10887889D02*
X9134468Y-10906936D01*
X9134468Y-10906936D02*
X9124944Y-10916460D01*
X9124944Y-10916460D02*
X9105896Y-10925984D01*
X9105896Y-10925984D02*
X9086848Y-10925984D01*
X9086848Y-10925984D02*
X9067801Y-10916460D01*
X9067801Y-10916460D02*
X9058277Y-10906936D01*
X9058277Y-10906936D02*
X9048753Y-10887889D01*
X9048753Y-10887889D02*
X9039229Y-10849793D01*
X9039229Y-10849793D02*
X9039229Y-10802174D01*
X9039229Y-10802174D02*
X9048753Y-10764079D01*
X9048753Y-10764079D02*
X9058277Y-10745031D01*
X9058277Y-10745031D02*
X9067801Y-10735508D01*
X9067801Y-10735508D02*
X9086848Y-10725984D01*
X9220182Y-10725984D02*
X9343991Y-10725984D01*
X9343991Y-10725984D02*
X9277325Y-10802174D01*
X9277325Y-10802174D02*
X9305896Y-10802174D01*
X9305896Y-10802174D02*
X9324944Y-10811698D01*
X9324944Y-10811698D02*
X9334468Y-10821222D01*
X9334468Y-10821222D02*
X9343991Y-10840270D01*
X9343991Y-10840270D02*
X9343991Y-10887889D01*
X9343991Y-10887889D02*
X9334468Y-10906936D01*
X9334468Y-10906936D02*
X9324944Y-10916460D01*
X9324944Y-10916460D02*
X9305896Y-10925984D01*
X9305896Y-10925984D02*
X9248753Y-10925984D01*
X9248753Y-10925984D02*
X9229706Y-10916460D01*
X9229706Y-10916460D02*
X9220182Y-10906936D01*
X9439229Y-10925984D02*
X9477325Y-10925984D01*
X9477325Y-10925984D02*
X9496372Y-10916460D01*
X9496372Y-10916460D02*
X9505896Y-10906936D01*
X9505896Y-10906936D02*
X9524944Y-10878365D01*
X9524944Y-10878365D02*
X9534468Y-10840270D01*
X9534468Y-10840270D02*
X9534468Y-10764079D01*
X9534468Y-10764079D02*
X9524944Y-10745031D01*
X9524944Y-10745031D02*
X9515420Y-10735508D01*
X9515420Y-10735508D02*
X9496372Y-10725984D01*
X9496372Y-10725984D02*
X9458277Y-10725984D01*
X9458277Y-10725984D02*
X9439229Y-10735508D01*
X9439229Y-10735508D02*
X9429706Y-10745031D01*
X9429706Y-10745031D02*
X9420182Y-10764079D01*
X9420182Y-10764079D02*
X9420182Y-10811698D01*
X9420182Y-10811698D02*
X9429706Y-10830746D01*
X9429706Y-10830746D02*
X9439229Y-10840270D01*
X9439229Y-10840270D02*
X9458277Y-10849793D01*
X9458277Y-10849793D02*
X9496372Y-10849793D01*
X9496372Y-10849793D02*
X9515420Y-10840270D01*
X9515420Y-10840270D02*
X9524944Y-10830746D01*
X9524944Y-10830746D02*
X9534468Y-10811698D01*
X9705896Y-10792650D02*
X9705896Y-10925984D01*
X9658277Y-10716460D02*
X9610658Y-10859317D01*
X9610658Y-10859317D02*
X9734468Y-10859317D01*
X9801134Y-10725984D02*
X9801134Y-10764079D01*
X9877325Y-10725984D02*
X9877325Y-10764079D01*
X10172563Y-11002174D02*
X10163039Y-10992650D01*
X10163039Y-10992650D02*
X10143991Y-10964079D01*
X10143991Y-10964079D02*
X10134468Y-10945031D01*
X10134468Y-10945031D02*
X10124944Y-10916460D01*
X10124944Y-10916460D02*
X10115420Y-10868841D01*
X10115420Y-10868841D02*
X10115420Y-10830746D01*
X10115420Y-10830746D02*
X10124944Y-10783127D01*
X10124944Y-10783127D02*
X10134468Y-10754555D01*
X10134468Y-10754555D02*
X10143991Y-10735508D01*
X10143991Y-10735508D02*
X10163039Y-10706936D01*
X10163039Y-10706936D02*
X10172563Y-10697412D01*
X10286849Y-10725984D02*
X10305896Y-10725984D01*
X10305896Y-10725984D02*
X10324944Y-10735508D01*
X10324944Y-10735508D02*
X10334468Y-10745031D01*
X10334468Y-10745031D02*
X10343991Y-10764079D01*
X10343991Y-10764079D02*
X10353515Y-10802174D01*
X10353515Y-10802174D02*
X10353515Y-10849793D01*
X10353515Y-10849793D02*
X10343991Y-10887889D01*
X10343991Y-10887889D02*
X10334468Y-10906936D01*
X10334468Y-10906936D02*
X10324944Y-10916460D01*
X10324944Y-10916460D02*
X10305896Y-10925984D01*
X10305896Y-10925984D02*
X10286849Y-10925984D01*
X10286849Y-10925984D02*
X10267801Y-10916460D01*
X10267801Y-10916460D02*
X10258277Y-10906936D01*
X10258277Y-10906936D02*
X10248753Y-10887889D01*
X10248753Y-10887889D02*
X10239230Y-10849793D01*
X10239230Y-10849793D02*
X10239230Y-10802174D01*
X10239230Y-10802174D02*
X10248753Y-10764079D01*
X10248753Y-10764079D02*
X10258277Y-10745031D01*
X10258277Y-10745031D02*
X10267801Y-10735508D01*
X10267801Y-10735508D02*
X10286849Y-10725984D01*
X10591611Y-10925984D02*
X10591611Y-10725984D01*
X10677325Y-10925984D02*
X10677325Y-10821222D01*
X10677325Y-10821222D02*
X10667801Y-10802174D01*
X10667801Y-10802174D02*
X10648753Y-10792650D01*
X10648753Y-10792650D02*
X10620182Y-10792650D01*
X10620182Y-10792650D02*
X10601134Y-10802174D01*
X10601134Y-10802174D02*
X10591611Y-10811698D01*
X10801134Y-10925984D02*
X10782087Y-10916460D01*
X10782087Y-10916460D02*
X10772563Y-10906936D01*
X10772563Y-10906936D02*
X10763039Y-10887889D01*
X10763039Y-10887889D02*
X10763039Y-10830746D01*
X10763039Y-10830746D02*
X10772563Y-10811698D01*
X10772563Y-10811698D02*
X10782087Y-10802174D01*
X10782087Y-10802174D02*
X10801134Y-10792650D01*
X10801134Y-10792650D02*
X10829706Y-10792650D01*
X10829706Y-10792650D02*
X10848753Y-10802174D01*
X10848753Y-10802174D02*
X10858277Y-10811698D01*
X10858277Y-10811698D02*
X10867801Y-10830746D01*
X10867801Y-10830746D02*
X10867801Y-10887889D01*
X10867801Y-10887889D02*
X10858277Y-10906936D01*
X10858277Y-10906936D02*
X10848753Y-10916460D01*
X10848753Y-10916460D02*
X10829706Y-10925984D01*
X10829706Y-10925984D02*
X10801134Y-10925984D01*
X10982087Y-10925984D02*
X10963039Y-10916460D01*
X10963039Y-10916460D02*
X10953515Y-10897412D01*
X10953515Y-10897412D02*
X10953515Y-10725984D01*
X11134468Y-10916460D02*
X11115420Y-10925984D01*
X11115420Y-10925984D02*
X11077325Y-10925984D01*
X11077325Y-10925984D02*
X11058277Y-10916460D01*
X11058277Y-10916460D02*
X11048753Y-10897412D01*
X11048753Y-10897412D02*
X11048753Y-10821222D01*
X11048753Y-10821222D02*
X11058277Y-10802174D01*
X11058277Y-10802174D02*
X11077325Y-10792650D01*
X11077325Y-10792650D02*
X11115420Y-10792650D01*
X11115420Y-10792650D02*
X11134468Y-10802174D01*
X11134468Y-10802174D02*
X11143992Y-10821222D01*
X11143992Y-10821222D02*
X11143992Y-10840270D01*
X11143992Y-10840270D02*
X11048753Y-10859317D01*
X11220182Y-10916460D02*
X11239230Y-10925984D01*
X11239230Y-10925984D02*
X11277325Y-10925984D01*
X11277325Y-10925984D02*
X11296372Y-10916460D01*
X11296372Y-10916460D02*
X11305896Y-10897412D01*
X11305896Y-10897412D02*
X11305896Y-10887889D01*
X11305896Y-10887889D02*
X11296372Y-10868841D01*
X11296372Y-10868841D02*
X11277325Y-10859317D01*
X11277325Y-10859317D02*
X11248753Y-10859317D01*
X11248753Y-10859317D02*
X11229706Y-10849793D01*
X11229706Y-10849793D02*
X11220182Y-10830746D01*
X11220182Y-10830746D02*
X11220182Y-10821222D01*
X11220182Y-10821222D02*
X11229706Y-10802174D01*
X11229706Y-10802174D02*
X11248753Y-10792650D01*
X11248753Y-10792650D02*
X11277325Y-10792650D01*
X11277325Y-10792650D02*
X11296372Y-10802174D01*
X11543992Y-10849793D02*
X11696373Y-10849793D01*
X11620182Y-10925984D02*
X11620182Y-10773603D01*
X11924944Y-10725984D02*
X12048753Y-10725984D01*
X12048753Y-10725984D02*
X11982087Y-10802174D01*
X11982087Y-10802174D02*
X12010658Y-10802174D01*
X12010658Y-10802174D02*
X12029706Y-10811698D01*
X12029706Y-10811698D02*
X12039230Y-10821222D01*
X12039230Y-10821222D02*
X12048753Y-10840270D01*
X12048753Y-10840270D02*
X12048753Y-10887889D01*
X12048753Y-10887889D02*
X12039230Y-10906936D01*
X12039230Y-10906936D02*
X12029706Y-10916460D01*
X12029706Y-10916460D02*
X12010658Y-10925984D01*
X12010658Y-10925984D02*
X11953515Y-10925984D01*
X11953515Y-10925984D02*
X11934468Y-10916460D01*
X11934468Y-10916460D02*
X11924944Y-10906936D01*
X12277325Y-10916460D02*
X12296373Y-10925984D01*
X12296373Y-10925984D02*
X12334468Y-10925984D01*
X12334468Y-10925984D02*
X12353515Y-10916460D01*
X12353515Y-10916460D02*
X12363039Y-10897412D01*
X12363039Y-10897412D02*
X12363039Y-10887889D01*
X12363039Y-10887889D02*
X12353515Y-10868841D01*
X12353515Y-10868841D02*
X12334468Y-10859317D01*
X12334468Y-10859317D02*
X12305896Y-10859317D01*
X12305896Y-10859317D02*
X12286849Y-10849793D01*
X12286849Y-10849793D02*
X12277325Y-10830746D01*
X12277325Y-10830746D02*
X12277325Y-10821222D01*
X12277325Y-10821222D02*
X12286849Y-10802174D01*
X12286849Y-10802174D02*
X12305896Y-10792650D01*
X12305896Y-10792650D02*
X12334468Y-10792650D01*
X12334468Y-10792650D02*
X12353515Y-10802174D01*
X12477325Y-10925984D02*
X12458277Y-10916460D01*
X12458277Y-10916460D02*
X12448754Y-10897412D01*
X12448754Y-10897412D02*
X12448754Y-10725984D01*
X12582087Y-10925984D02*
X12563039Y-10916460D01*
X12563039Y-10916460D02*
X12553515Y-10906936D01*
X12553515Y-10906936D02*
X12543992Y-10887889D01*
X12543992Y-10887889D02*
X12543992Y-10830746D01*
X12543992Y-10830746D02*
X12553515Y-10811698D01*
X12553515Y-10811698D02*
X12563039Y-10802174D01*
X12563039Y-10802174D02*
X12582087Y-10792650D01*
X12582087Y-10792650D02*
X12610658Y-10792650D01*
X12610658Y-10792650D02*
X12629706Y-10802174D01*
X12629706Y-10802174D02*
X12639230Y-10811698D01*
X12639230Y-10811698D02*
X12648754Y-10830746D01*
X12648754Y-10830746D02*
X12648754Y-10887889D01*
X12648754Y-10887889D02*
X12639230Y-10906936D01*
X12639230Y-10906936D02*
X12629706Y-10916460D01*
X12629706Y-10916460D02*
X12610658Y-10925984D01*
X12610658Y-10925984D02*
X12582087Y-10925984D01*
X12705896Y-10792650D02*
X12782087Y-10792650D01*
X12734468Y-10725984D02*
X12734468Y-10897412D01*
X12734468Y-10897412D02*
X12743992Y-10916460D01*
X12743992Y-10916460D02*
X12763039Y-10925984D01*
X12763039Y-10925984D02*
X12782087Y-10925984D01*
X12839230Y-10916460D02*
X12858277Y-10925984D01*
X12858277Y-10925984D02*
X12896373Y-10925984D01*
X12896373Y-10925984D02*
X12915420Y-10916460D01*
X12915420Y-10916460D02*
X12924944Y-10897412D01*
X12924944Y-10897412D02*
X12924944Y-10887889D01*
X12924944Y-10887889D02*
X12915420Y-10868841D01*
X12915420Y-10868841D02*
X12896373Y-10859317D01*
X12896373Y-10859317D02*
X12867801Y-10859317D01*
X12867801Y-10859317D02*
X12848754Y-10849793D01*
X12848754Y-10849793D02*
X12839230Y-10830746D01*
X12839230Y-10830746D02*
X12839230Y-10821222D01*
X12839230Y-10821222D02*
X12848754Y-10802174D01*
X12848754Y-10802174D02*
X12867801Y-10792650D01*
X12867801Y-10792650D02*
X12896373Y-10792650D01*
X12896373Y-10792650D02*
X12915420Y-10802174D01*
X12991611Y-11002174D02*
X13001135Y-10992650D01*
X13001135Y-10992650D02*
X13020182Y-10964079D01*
X13020182Y-10964079D02*
X13029706Y-10945031D01*
X13029706Y-10945031D02*
X13039230Y-10916460D01*
X13039230Y-10916460D02*
X13048754Y-10868841D01*
X13048754Y-10868841D02*
X13048754Y-10830746D01*
X13048754Y-10830746D02*
X13039230Y-10783127D01*
X13039230Y-10783127D02*
X13029706Y-10754555D01*
X13029706Y-10754555D02*
X13020182Y-10735508D01*
X13020182Y-10735508D02*
X13001135Y-10706936D01*
X13001135Y-10706936D02*
X12991611Y-10697412D01*
D13*
X6542500Y-11153500D02*
X6597500Y-11098500D01*
X6542500Y-11043500D01*
X6487500Y-11098500D01*
X6542500Y-11153500D01*
D11*
X6963039Y-11189984D02*
X6848753Y-11189984D01*
X6905896Y-11189984D02*
X6905896Y-10989984D01*
X6905896Y-10989984D02*
X6886848Y-11018555D01*
X6886848Y-11018555D02*
X6867801Y-11037603D01*
X6867801Y-11037603D02*
X6848753Y-11047127D01*
X7048753Y-11170936D02*
X7058277Y-11180460D01*
X7058277Y-11180460D02*
X7048753Y-11189984D01*
X7048753Y-11189984D02*
X7039229Y-11180460D01*
X7039229Y-11180460D02*
X7048753Y-11170936D01*
X7048753Y-11170936D02*
X7048753Y-11189984D01*
X7248753Y-11189984D02*
X7134467Y-11189984D01*
X7191610Y-11189984D02*
X7191610Y-10989984D01*
X7191610Y-10989984D02*
X7172562Y-11018555D01*
X7172562Y-11018555D02*
X7153515Y-11037603D01*
X7153515Y-11037603D02*
X7134467Y-11047127D01*
X7372562Y-10989984D02*
X7391610Y-10989984D01*
X7391610Y-10989984D02*
X7410658Y-10999508D01*
X7410658Y-10999508D02*
X7420182Y-11009031D01*
X7420182Y-11009031D02*
X7429705Y-11028079D01*
X7429705Y-11028079D02*
X7439229Y-11066174D01*
X7439229Y-11066174D02*
X7439229Y-11113793D01*
X7439229Y-11113793D02*
X7429705Y-11151889D01*
X7429705Y-11151889D02*
X7420182Y-11170936D01*
X7420182Y-11170936D02*
X7410658Y-11180460D01*
X7410658Y-11180460D02*
X7391610Y-11189984D01*
X7391610Y-11189984D02*
X7372562Y-11189984D01*
X7372562Y-11189984D02*
X7353515Y-11180460D01*
X7353515Y-11180460D02*
X7343991Y-11170936D01*
X7343991Y-11170936D02*
X7334467Y-11151889D01*
X7334467Y-11151889D02*
X7324943Y-11113793D01*
X7324943Y-11113793D02*
X7324943Y-11066174D01*
X7324943Y-11066174D02*
X7334467Y-11028079D01*
X7334467Y-11028079D02*
X7343991Y-11009031D01*
X7343991Y-11009031D02*
X7353515Y-10999508D01*
X7353515Y-10999508D02*
X7372562Y-10989984D01*
X7563039Y-10989984D02*
X7582086Y-10989984D01*
X7582086Y-10989984D02*
X7601134Y-10999508D01*
X7601134Y-10999508D02*
X7610658Y-11009031D01*
X7610658Y-11009031D02*
X7620182Y-11028079D01*
X7620182Y-11028079D02*
X7629705Y-11066174D01*
X7629705Y-11066174D02*
X7629705Y-11113793D01*
X7629705Y-11113793D02*
X7620182Y-11151889D01*
X7620182Y-11151889D02*
X7610658Y-11170936D01*
X7610658Y-11170936D02*
X7601134Y-11180460D01*
X7601134Y-11180460D02*
X7582086Y-11189984D01*
X7582086Y-11189984D02*
X7563039Y-11189984D01*
X7563039Y-11189984D02*
X7543991Y-11180460D01*
X7543991Y-11180460D02*
X7534467Y-11170936D01*
X7534467Y-11170936D02*
X7524943Y-11151889D01*
X7524943Y-11151889D02*
X7515420Y-11113793D01*
X7515420Y-11113793D02*
X7515420Y-11066174D01*
X7515420Y-11066174D02*
X7524943Y-11028079D01*
X7524943Y-11028079D02*
X7534467Y-11009031D01*
X7534467Y-11009031D02*
X7543991Y-10999508D01*
X7543991Y-10999508D02*
X7563039Y-10989984D01*
X7715420Y-11189984D02*
X7715420Y-11056650D01*
X7715420Y-11075698D02*
X7724943Y-11066174D01*
X7724943Y-11066174D02*
X7743991Y-11056650D01*
X7743991Y-11056650D02*
X7772563Y-11056650D01*
X7772563Y-11056650D02*
X7791610Y-11066174D01*
X7791610Y-11066174D02*
X7801134Y-11085222D01*
X7801134Y-11085222D02*
X7801134Y-11189984D01*
X7801134Y-11085222D02*
X7810658Y-11066174D01*
X7810658Y-11066174D02*
X7829705Y-11056650D01*
X7829705Y-11056650D02*
X7858277Y-11056650D01*
X7858277Y-11056650D02*
X7877324Y-11066174D01*
X7877324Y-11066174D02*
X7886848Y-11085222D01*
X7886848Y-11085222D02*
X7886848Y-11189984D01*
X7982086Y-11189984D02*
X7982086Y-11056650D01*
X7982086Y-11075698D02*
X7991610Y-11066174D01*
X7991610Y-11066174D02*
X8010658Y-11056650D01*
X8010658Y-11056650D02*
X8039229Y-11056650D01*
X8039229Y-11056650D02*
X8058277Y-11066174D01*
X8058277Y-11066174D02*
X8067801Y-11085222D01*
X8067801Y-11085222D02*
X8067801Y-11189984D01*
X8067801Y-11085222D02*
X8077324Y-11066174D01*
X8077324Y-11066174D02*
X8096372Y-11056650D01*
X8096372Y-11056650D02*
X8124943Y-11056650D01*
X8124943Y-11056650D02*
X8143991Y-11066174D01*
X8143991Y-11066174D02*
X8153515Y-11085222D01*
X8153515Y-11085222D02*
X8153515Y-11189984D01*
X8543991Y-10980460D02*
X8372563Y-11237603D01*
X8801134Y-10989984D02*
X8820182Y-10989984D01*
X8820182Y-10989984D02*
X8839229Y-10999508D01*
X8839229Y-10999508D02*
X8848753Y-11009031D01*
X8848753Y-11009031D02*
X8858277Y-11028079D01*
X8858277Y-11028079D02*
X8867801Y-11066174D01*
X8867801Y-11066174D02*
X8867801Y-11113793D01*
X8867801Y-11113793D02*
X8858277Y-11151889D01*
X8858277Y-11151889D02*
X8848753Y-11170936D01*
X8848753Y-11170936D02*
X8839229Y-11180460D01*
X8839229Y-11180460D02*
X8820182Y-11189984D01*
X8820182Y-11189984D02*
X8801134Y-11189984D01*
X8801134Y-11189984D02*
X8782087Y-11180460D01*
X8782087Y-11180460D02*
X8772563Y-11170936D01*
X8772563Y-11170936D02*
X8763039Y-11151889D01*
X8763039Y-11151889D02*
X8753515Y-11113793D01*
X8753515Y-11113793D02*
X8753515Y-11066174D01*
X8753515Y-11066174D02*
X8763039Y-11028079D01*
X8763039Y-11028079D02*
X8772563Y-11009031D01*
X8772563Y-11009031D02*
X8782087Y-10999508D01*
X8782087Y-10999508D02*
X8801134Y-10989984D01*
X8953515Y-11170936D02*
X8963039Y-11180460D01*
X8963039Y-11180460D02*
X8953515Y-11189984D01*
X8953515Y-11189984D02*
X8943991Y-11180460D01*
X8943991Y-11180460D02*
X8953515Y-11170936D01*
X8953515Y-11170936D02*
X8953515Y-11189984D01*
X9086848Y-10989984D02*
X9105896Y-10989984D01*
X9105896Y-10989984D02*
X9124944Y-10999508D01*
X9124944Y-10999508D02*
X9134468Y-11009031D01*
X9134468Y-11009031D02*
X9143991Y-11028079D01*
X9143991Y-11028079D02*
X9153515Y-11066174D01*
X9153515Y-11066174D02*
X9153515Y-11113793D01*
X9153515Y-11113793D02*
X9143991Y-11151889D01*
X9143991Y-11151889D02*
X9134468Y-11170936D01*
X9134468Y-11170936D02*
X9124944Y-11180460D01*
X9124944Y-11180460D02*
X9105896Y-11189984D01*
X9105896Y-11189984D02*
X9086848Y-11189984D01*
X9086848Y-11189984D02*
X9067801Y-11180460D01*
X9067801Y-11180460D02*
X9058277Y-11170936D01*
X9058277Y-11170936D02*
X9048753Y-11151889D01*
X9048753Y-11151889D02*
X9039229Y-11113793D01*
X9039229Y-11113793D02*
X9039229Y-11066174D01*
X9039229Y-11066174D02*
X9048753Y-11028079D01*
X9048753Y-11028079D02*
X9058277Y-11009031D01*
X9058277Y-11009031D02*
X9067801Y-10999508D01*
X9067801Y-10999508D02*
X9086848Y-10989984D01*
X9324944Y-11056650D02*
X9324944Y-11189984D01*
X9277325Y-10980460D02*
X9229706Y-11123317D01*
X9229706Y-11123317D02*
X9353515Y-11123317D01*
X9410658Y-10989984D02*
X9534468Y-10989984D01*
X9534468Y-10989984D02*
X9467801Y-11066174D01*
X9467801Y-11066174D02*
X9496372Y-11066174D01*
X9496372Y-11066174D02*
X9515420Y-11075698D01*
X9515420Y-11075698D02*
X9524944Y-11085222D01*
X9524944Y-11085222D02*
X9534468Y-11104270D01*
X9534468Y-11104270D02*
X9534468Y-11151889D01*
X9534468Y-11151889D02*
X9524944Y-11170936D01*
X9524944Y-11170936D02*
X9515420Y-11180460D01*
X9515420Y-11180460D02*
X9496372Y-11189984D01*
X9496372Y-11189984D02*
X9439229Y-11189984D01*
X9439229Y-11189984D02*
X9420182Y-11180460D01*
X9420182Y-11180460D02*
X9410658Y-11170936D01*
X9601134Y-10989984D02*
X9724944Y-10989984D01*
X9724944Y-10989984D02*
X9658277Y-11066174D01*
X9658277Y-11066174D02*
X9686849Y-11066174D01*
X9686849Y-11066174D02*
X9705896Y-11075698D01*
X9705896Y-11075698D02*
X9715420Y-11085222D01*
X9715420Y-11085222D02*
X9724944Y-11104270D01*
X9724944Y-11104270D02*
X9724944Y-11151889D01*
X9724944Y-11151889D02*
X9715420Y-11170936D01*
X9715420Y-11170936D02*
X9705896Y-11180460D01*
X9705896Y-11180460D02*
X9686849Y-11189984D01*
X9686849Y-11189984D02*
X9629706Y-11189984D01*
X9629706Y-11189984D02*
X9610658Y-11180460D01*
X9610658Y-11180460D02*
X9601134Y-11170936D01*
X9801134Y-10989984D02*
X9801134Y-11028079D01*
X9877325Y-10989984D02*
X9877325Y-11028079D01*
X10172563Y-11266174D02*
X10163039Y-11256650D01*
X10163039Y-11256650D02*
X10143991Y-11228079D01*
X10143991Y-11228079D02*
X10134468Y-11209031D01*
X10134468Y-11209031D02*
X10124944Y-11180460D01*
X10124944Y-11180460D02*
X10115420Y-11132841D01*
X10115420Y-11132841D02*
X10115420Y-11094746D01*
X10115420Y-11094746D02*
X10124944Y-11047127D01*
X10124944Y-11047127D02*
X10134468Y-11018555D01*
X10134468Y-11018555D02*
X10143991Y-10999508D01*
X10143991Y-10999508D02*
X10163039Y-10970936D01*
X10163039Y-10970936D02*
X10172563Y-10961412D01*
X10353515Y-11189984D02*
X10239230Y-11189984D01*
X10296372Y-11189984D02*
X10296372Y-10989984D01*
X10296372Y-10989984D02*
X10277325Y-11018555D01*
X10277325Y-11018555D02*
X10258277Y-11037603D01*
X10258277Y-11037603D02*
X10239230Y-11047127D01*
X10429706Y-11009031D02*
X10439230Y-10999508D01*
X10439230Y-10999508D02*
X10458277Y-10989984D01*
X10458277Y-10989984D02*
X10505896Y-10989984D01*
X10505896Y-10989984D02*
X10524944Y-10999508D01*
X10524944Y-10999508D02*
X10534468Y-11009031D01*
X10534468Y-11009031D02*
X10543991Y-11028079D01*
X10543991Y-11028079D02*
X10543991Y-11047127D01*
X10543991Y-11047127D02*
X10534468Y-11075698D01*
X10534468Y-11075698D02*
X10420182Y-11189984D01*
X10420182Y-11189984D02*
X10543991Y-11189984D01*
X10782087Y-11189984D02*
X10782087Y-10989984D01*
X10867801Y-11189984D02*
X10867801Y-11085222D01*
X10867801Y-11085222D02*
X10858277Y-11066174D01*
X10858277Y-11066174D02*
X10839230Y-11056650D01*
X10839230Y-11056650D02*
X10810658Y-11056650D01*
X10810658Y-11056650D02*
X10791611Y-11066174D01*
X10791611Y-11066174D02*
X10782087Y-11075698D01*
X10991611Y-11189984D02*
X10972563Y-11180460D01*
X10972563Y-11180460D02*
X10963039Y-11170936D01*
X10963039Y-11170936D02*
X10953515Y-11151889D01*
X10953515Y-11151889D02*
X10953515Y-11094746D01*
X10953515Y-11094746D02*
X10963039Y-11075698D01*
X10963039Y-11075698D02*
X10972563Y-11066174D01*
X10972563Y-11066174D02*
X10991611Y-11056650D01*
X10991611Y-11056650D02*
X11020182Y-11056650D01*
X11020182Y-11056650D02*
X11039230Y-11066174D01*
X11039230Y-11066174D02*
X11048753Y-11075698D01*
X11048753Y-11075698D02*
X11058277Y-11094746D01*
X11058277Y-11094746D02*
X11058277Y-11151889D01*
X11058277Y-11151889D02*
X11048753Y-11170936D01*
X11048753Y-11170936D02*
X11039230Y-11180460D01*
X11039230Y-11180460D02*
X11020182Y-11189984D01*
X11020182Y-11189984D02*
X10991611Y-11189984D01*
X11172563Y-11189984D02*
X11153515Y-11180460D01*
X11153515Y-11180460D02*
X11143992Y-11161412D01*
X11143992Y-11161412D02*
X11143992Y-10989984D01*
X11324944Y-11180460D02*
X11305896Y-11189984D01*
X11305896Y-11189984D02*
X11267801Y-11189984D01*
X11267801Y-11189984D02*
X11248753Y-11180460D01*
X11248753Y-11180460D02*
X11239230Y-11161412D01*
X11239230Y-11161412D02*
X11239230Y-11085222D01*
X11239230Y-11085222D02*
X11248753Y-11066174D01*
X11248753Y-11066174D02*
X11267801Y-11056650D01*
X11267801Y-11056650D02*
X11305896Y-11056650D01*
X11305896Y-11056650D02*
X11324944Y-11066174D01*
X11324944Y-11066174D02*
X11334468Y-11085222D01*
X11334468Y-11085222D02*
X11334468Y-11104270D01*
X11334468Y-11104270D02*
X11239230Y-11123317D01*
X11410658Y-11180460D02*
X11429706Y-11189984D01*
X11429706Y-11189984D02*
X11467801Y-11189984D01*
X11467801Y-11189984D02*
X11486849Y-11180460D01*
X11486849Y-11180460D02*
X11496372Y-11161412D01*
X11496372Y-11161412D02*
X11496372Y-11151889D01*
X11496372Y-11151889D02*
X11486849Y-11132841D01*
X11486849Y-11132841D02*
X11467801Y-11123317D01*
X11467801Y-11123317D02*
X11439230Y-11123317D01*
X11439230Y-11123317D02*
X11420182Y-11113793D01*
X11420182Y-11113793D02*
X11410658Y-11094746D01*
X11410658Y-11094746D02*
X11410658Y-11085222D01*
X11410658Y-11085222D02*
X11420182Y-11066174D01*
X11420182Y-11066174D02*
X11439230Y-11056650D01*
X11439230Y-11056650D02*
X11467801Y-11056650D01*
X11467801Y-11056650D02*
X11486849Y-11066174D01*
X11563039Y-11266174D02*
X11572563Y-11256650D01*
X11572563Y-11256650D02*
X11591611Y-11228079D01*
X11591611Y-11228079D02*
X11601134Y-11209031D01*
X11601134Y-11209031D02*
X11610658Y-11180460D01*
X11610658Y-11180460D02*
X11620182Y-11132841D01*
X11620182Y-11132841D02*
X11620182Y-11094746D01*
X11620182Y-11094746D02*
X11610658Y-11047127D01*
X11610658Y-11047127D02*
X11601134Y-11018555D01*
X11601134Y-11018555D02*
X11591611Y-10999508D01*
X11591611Y-10999508D02*
X11572563Y-10970936D01*
X11572563Y-10970936D02*
X11563039Y-10961412D01*
D14*
X6467500Y-11297500D02*
X6597500Y-11427500D01*
X6597500Y-11297500D02*
X6467500Y-11427500D01*
X6597500Y-11362500D02*
G75*
G02*
X6467500Y-11362500I-65000J0D01*
G01*
X6467500Y-11362500D02*
G75*
G02*
X6597500Y-11362500I65000J0D01*
G01*
D11*
X6963039Y-11453984D02*
X6848753Y-11453984D01*
X6905896Y-11453984D02*
X6905896Y-11253984D01*
X6905896Y-11253984D02*
X6886848Y-11282555D01*
X6886848Y-11282555D02*
X6867801Y-11301603D01*
X6867801Y-11301603D02*
X6848753Y-11311127D01*
X7048753Y-11434936D02*
X7058277Y-11444460D01*
X7058277Y-11444460D02*
X7048753Y-11453984D01*
X7048753Y-11453984D02*
X7039229Y-11444460D01*
X7039229Y-11444460D02*
X7048753Y-11434936D01*
X7048753Y-11434936D02*
X7048753Y-11453984D01*
X7124943Y-11253984D02*
X7248753Y-11253984D01*
X7248753Y-11253984D02*
X7182086Y-11330174D01*
X7182086Y-11330174D02*
X7210658Y-11330174D01*
X7210658Y-11330174D02*
X7229705Y-11339698D01*
X7229705Y-11339698D02*
X7239229Y-11349222D01*
X7239229Y-11349222D02*
X7248753Y-11368269D01*
X7248753Y-11368269D02*
X7248753Y-11415888D01*
X7248753Y-11415888D02*
X7239229Y-11434936D01*
X7239229Y-11434936D02*
X7229705Y-11444460D01*
X7229705Y-11444460D02*
X7210658Y-11453984D01*
X7210658Y-11453984D02*
X7153515Y-11453984D01*
X7153515Y-11453984D02*
X7134467Y-11444460D01*
X7134467Y-11444460D02*
X7124943Y-11434936D01*
X7372562Y-11253984D02*
X7391610Y-11253984D01*
X7391610Y-11253984D02*
X7410658Y-11263508D01*
X7410658Y-11263508D02*
X7420182Y-11273031D01*
X7420182Y-11273031D02*
X7429705Y-11292079D01*
X7429705Y-11292079D02*
X7439229Y-11330174D01*
X7439229Y-11330174D02*
X7439229Y-11377793D01*
X7439229Y-11377793D02*
X7429705Y-11415888D01*
X7429705Y-11415888D02*
X7420182Y-11434936D01*
X7420182Y-11434936D02*
X7410658Y-11444460D01*
X7410658Y-11444460D02*
X7391610Y-11453984D01*
X7391610Y-11453984D02*
X7372562Y-11453984D01*
X7372562Y-11453984D02*
X7353515Y-11444460D01*
X7353515Y-11444460D02*
X7343991Y-11434936D01*
X7343991Y-11434936D02*
X7334467Y-11415888D01*
X7334467Y-11415888D02*
X7324943Y-11377793D01*
X7324943Y-11377793D02*
X7324943Y-11330174D01*
X7324943Y-11330174D02*
X7334467Y-11292079D01*
X7334467Y-11292079D02*
X7343991Y-11273031D01*
X7343991Y-11273031D02*
X7353515Y-11263508D01*
X7353515Y-11263508D02*
X7372562Y-11253984D01*
X7563039Y-11253984D02*
X7582086Y-11253984D01*
X7582086Y-11253984D02*
X7601134Y-11263508D01*
X7601134Y-11263508D02*
X7610658Y-11273031D01*
X7610658Y-11273031D02*
X7620182Y-11292079D01*
X7620182Y-11292079D02*
X7629705Y-11330174D01*
X7629705Y-11330174D02*
X7629705Y-11377793D01*
X7629705Y-11377793D02*
X7620182Y-11415888D01*
X7620182Y-11415888D02*
X7610658Y-11434936D01*
X7610658Y-11434936D02*
X7601134Y-11444460D01*
X7601134Y-11444460D02*
X7582086Y-11453984D01*
X7582086Y-11453984D02*
X7563039Y-11453984D01*
X7563039Y-11453984D02*
X7543991Y-11444460D01*
X7543991Y-11444460D02*
X7534467Y-11434936D01*
X7534467Y-11434936D02*
X7524943Y-11415888D01*
X7524943Y-11415888D02*
X7515420Y-11377793D01*
X7515420Y-11377793D02*
X7515420Y-11330174D01*
X7515420Y-11330174D02*
X7524943Y-11292079D01*
X7524943Y-11292079D02*
X7534467Y-11273031D01*
X7534467Y-11273031D02*
X7543991Y-11263508D01*
X7543991Y-11263508D02*
X7563039Y-11253984D01*
X7715420Y-11453984D02*
X7715420Y-11320650D01*
X7715420Y-11339698D02*
X7724943Y-11330174D01*
X7724943Y-11330174D02*
X7743991Y-11320650D01*
X7743991Y-11320650D02*
X7772563Y-11320650D01*
X7772563Y-11320650D02*
X7791610Y-11330174D01*
X7791610Y-11330174D02*
X7801134Y-11349222D01*
X7801134Y-11349222D02*
X7801134Y-11453984D01*
X7801134Y-11349222D02*
X7810658Y-11330174D01*
X7810658Y-11330174D02*
X7829705Y-11320650D01*
X7829705Y-11320650D02*
X7858277Y-11320650D01*
X7858277Y-11320650D02*
X7877324Y-11330174D01*
X7877324Y-11330174D02*
X7886848Y-11349222D01*
X7886848Y-11349222D02*
X7886848Y-11453984D01*
X7982086Y-11453984D02*
X7982086Y-11320650D01*
X7982086Y-11339698D02*
X7991610Y-11330174D01*
X7991610Y-11330174D02*
X8010658Y-11320650D01*
X8010658Y-11320650D02*
X8039229Y-11320650D01*
X8039229Y-11320650D02*
X8058277Y-11330174D01*
X8058277Y-11330174D02*
X8067801Y-11349222D01*
X8067801Y-11349222D02*
X8067801Y-11453984D01*
X8067801Y-11349222D02*
X8077324Y-11330174D01*
X8077324Y-11330174D02*
X8096372Y-11320650D01*
X8096372Y-11320650D02*
X8124943Y-11320650D01*
X8124943Y-11320650D02*
X8143991Y-11330174D01*
X8143991Y-11330174D02*
X8153515Y-11349222D01*
X8153515Y-11349222D02*
X8153515Y-11453984D01*
X8543991Y-11244460D02*
X8372563Y-11501603D01*
X8801134Y-11253984D02*
X8820182Y-11253984D01*
X8820182Y-11253984D02*
X8839229Y-11263508D01*
X8839229Y-11263508D02*
X8848753Y-11273031D01*
X8848753Y-11273031D02*
X8858277Y-11292079D01*
X8858277Y-11292079D02*
X8867801Y-11330174D01*
X8867801Y-11330174D02*
X8867801Y-11377793D01*
X8867801Y-11377793D02*
X8858277Y-11415888D01*
X8858277Y-11415888D02*
X8848753Y-11434936D01*
X8848753Y-11434936D02*
X8839229Y-11444460D01*
X8839229Y-11444460D02*
X8820182Y-11453984D01*
X8820182Y-11453984D02*
X8801134Y-11453984D01*
X8801134Y-11453984D02*
X8782087Y-11444460D01*
X8782087Y-11444460D02*
X8772563Y-11434936D01*
X8772563Y-11434936D02*
X8763039Y-11415888D01*
X8763039Y-11415888D02*
X8753515Y-11377793D01*
X8753515Y-11377793D02*
X8753515Y-11330174D01*
X8753515Y-11330174D02*
X8763039Y-11292079D01*
X8763039Y-11292079D02*
X8772563Y-11273031D01*
X8772563Y-11273031D02*
X8782087Y-11263508D01*
X8782087Y-11263508D02*
X8801134Y-11253984D01*
X8953515Y-11434936D02*
X8963039Y-11444460D01*
X8963039Y-11444460D02*
X8953515Y-11453984D01*
X8953515Y-11453984D02*
X8943991Y-11444460D01*
X8943991Y-11444460D02*
X8953515Y-11434936D01*
X8953515Y-11434936D02*
X8953515Y-11453984D01*
X9086848Y-11253984D02*
X9105896Y-11253984D01*
X9105896Y-11253984D02*
X9124944Y-11263508D01*
X9124944Y-11263508D02*
X9134468Y-11273031D01*
X9134468Y-11273031D02*
X9143991Y-11292079D01*
X9143991Y-11292079D02*
X9153515Y-11330174D01*
X9153515Y-11330174D02*
X9153515Y-11377793D01*
X9153515Y-11377793D02*
X9143991Y-11415888D01*
X9143991Y-11415888D02*
X9134468Y-11434936D01*
X9134468Y-11434936D02*
X9124944Y-11444460D01*
X9124944Y-11444460D02*
X9105896Y-11453984D01*
X9105896Y-11453984D02*
X9086848Y-11453984D01*
X9086848Y-11453984D02*
X9067801Y-11444460D01*
X9067801Y-11444460D02*
X9058277Y-11434936D01*
X9058277Y-11434936D02*
X9048753Y-11415888D01*
X9048753Y-11415888D02*
X9039229Y-11377793D01*
X9039229Y-11377793D02*
X9039229Y-11330174D01*
X9039229Y-11330174D02*
X9048753Y-11292079D01*
X9048753Y-11292079D02*
X9058277Y-11273031D01*
X9058277Y-11273031D02*
X9067801Y-11263508D01*
X9067801Y-11263508D02*
X9086848Y-11253984D01*
X9334468Y-11253984D02*
X9239229Y-11253984D01*
X9239229Y-11253984D02*
X9229706Y-11349222D01*
X9229706Y-11349222D02*
X9239229Y-11339698D01*
X9239229Y-11339698D02*
X9258277Y-11330174D01*
X9258277Y-11330174D02*
X9305896Y-11330174D01*
X9305896Y-11330174D02*
X9324944Y-11339698D01*
X9324944Y-11339698D02*
X9334468Y-11349222D01*
X9334468Y-11349222D02*
X9343991Y-11368269D01*
X9343991Y-11368269D02*
X9343991Y-11415888D01*
X9343991Y-11415888D02*
X9334468Y-11434936D01*
X9334468Y-11434936D02*
X9324944Y-11444460D01*
X9324944Y-11444460D02*
X9305896Y-11453984D01*
X9305896Y-11453984D02*
X9258277Y-11453984D01*
X9258277Y-11453984D02*
X9239229Y-11444460D01*
X9239229Y-11444460D02*
X9229706Y-11434936D01*
X9534468Y-11453984D02*
X9420182Y-11453984D01*
X9477325Y-11453984D02*
X9477325Y-11253984D01*
X9477325Y-11253984D02*
X9458277Y-11282555D01*
X9458277Y-11282555D02*
X9439229Y-11301603D01*
X9439229Y-11301603D02*
X9420182Y-11311127D01*
X9610658Y-11273031D02*
X9620182Y-11263508D01*
X9620182Y-11263508D02*
X9639229Y-11253984D01*
X9639229Y-11253984D02*
X9686849Y-11253984D01*
X9686849Y-11253984D02*
X9705896Y-11263508D01*
X9705896Y-11263508D02*
X9715420Y-11273031D01*
X9715420Y-11273031D02*
X9724944Y-11292079D01*
X9724944Y-11292079D02*
X9724944Y-11311127D01*
X9724944Y-11311127D02*
X9715420Y-11339698D01*
X9715420Y-11339698D02*
X9601134Y-11453984D01*
X9601134Y-11453984D02*
X9724944Y-11453984D01*
X9801134Y-11253984D02*
X9801134Y-11292079D01*
X9877325Y-11253984D02*
X9877325Y-11292079D01*
X10172563Y-11530174D02*
X10163039Y-11520650D01*
X10163039Y-11520650D02*
X10143991Y-11492079D01*
X10143991Y-11492079D02*
X10134468Y-11473031D01*
X10134468Y-11473031D02*
X10124944Y-11444460D01*
X10124944Y-11444460D02*
X10115420Y-11396841D01*
X10115420Y-11396841D02*
X10115420Y-11358746D01*
X10115420Y-11358746D02*
X10124944Y-11311127D01*
X10124944Y-11311127D02*
X10134468Y-11282555D01*
X10134468Y-11282555D02*
X10143991Y-11263508D01*
X10143991Y-11263508D02*
X10163039Y-11234936D01*
X10163039Y-11234936D02*
X10172563Y-11225412D01*
X10277325Y-11339698D02*
X10258277Y-11330174D01*
X10258277Y-11330174D02*
X10248753Y-11320650D01*
X10248753Y-11320650D02*
X10239230Y-11301603D01*
X10239230Y-11301603D02*
X10239230Y-11292079D01*
X10239230Y-11292079D02*
X10248753Y-11273031D01*
X10248753Y-11273031D02*
X10258277Y-11263508D01*
X10258277Y-11263508D02*
X10277325Y-11253984D01*
X10277325Y-11253984D02*
X10315420Y-11253984D01*
X10315420Y-11253984D02*
X10334468Y-11263508D01*
X10334468Y-11263508D02*
X10343991Y-11273031D01*
X10343991Y-11273031D02*
X10353515Y-11292079D01*
X10353515Y-11292079D02*
X10353515Y-11301603D01*
X10353515Y-11301603D02*
X10343991Y-11320650D01*
X10343991Y-11320650D02*
X10334468Y-11330174D01*
X10334468Y-11330174D02*
X10315420Y-11339698D01*
X10315420Y-11339698D02*
X10277325Y-11339698D01*
X10277325Y-11339698D02*
X10258277Y-11349222D01*
X10258277Y-11349222D02*
X10248753Y-11358746D01*
X10248753Y-11358746D02*
X10239230Y-11377793D01*
X10239230Y-11377793D02*
X10239230Y-11415888D01*
X10239230Y-11415888D02*
X10248753Y-11434936D01*
X10248753Y-11434936D02*
X10258277Y-11444460D01*
X10258277Y-11444460D02*
X10277325Y-11453984D01*
X10277325Y-11453984D02*
X10315420Y-11453984D01*
X10315420Y-11453984D02*
X10334468Y-11444460D01*
X10334468Y-11444460D02*
X10343991Y-11434936D01*
X10343991Y-11434936D02*
X10353515Y-11415888D01*
X10353515Y-11415888D02*
X10353515Y-11377793D01*
X10353515Y-11377793D02*
X10343991Y-11358746D01*
X10343991Y-11358746D02*
X10334468Y-11349222D01*
X10334468Y-11349222D02*
X10315420Y-11339698D01*
X10591611Y-11453984D02*
X10591611Y-11253984D01*
X10677325Y-11453984D02*
X10677325Y-11349222D01*
X10677325Y-11349222D02*
X10667801Y-11330174D01*
X10667801Y-11330174D02*
X10648753Y-11320650D01*
X10648753Y-11320650D02*
X10620182Y-11320650D01*
X10620182Y-11320650D02*
X10601134Y-11330174D01*
X10601134Y-11330174D02*
X10591611Y-11339698D01*
X10801134Y-11453984D02*
X10782087Y-11444460D01*
X10782087Y-11444460D02*
X10772563Y-11434936D01*
X10772563Y-11434936D02*
X10763039Y-11415888D01*
X10763039Y-11415888D02*
X10763039Y-11358746D01*
X10763039Y-11358746D02*
X10772563Y-11339698D01*
X10772563Y-11339698D02*
X10782087Y-11330174D01*
X10782087Y-11330174D02*
X10801134Y-11320650D01*
X10801134Y-11320650D02*
X10829706Y-11320650D01*
X10829706Y-11320650D02*
X10848753Y-11330174D01*
X10848753Y-11330174D02*
X10858277Y-11339698D01*
X10858277Y-11339698D02*
X10867801Y-11358746D01*
X10867801Y-11358746D02*
X10867801Y-11415888D01*
X10867801Y-11415888D02*
X10858277Y-11434936D01*
X10858277Y-11434936D02*
X10848753Y-11444460D01*
X10848753Y-11444460D02*
X10829706Y-11453984D01*
X10829706Y-11453984D02*
X10801134Y-11453984D01*
X10982087Y-11453984D02*
X10963039Y-11444460D01*
X10963039Y-11444460D02*
X10953515Y-11425412D01*
X10953515Y-11425412D02*
X10953515Y-11253984D01*
X11134468Y-11444460D02*
X11115420Y-11453984D01*
X11115420Y-11453984D02*
X11077325Y-11453984D01*
X11077325Y-11453984D02*
X11058277Y-11444460D01*
X11058277Y-11444460D02*
X11048753Y-11425412D01*
X11048753Y-11425412D02*
X11048753Y-11349222D01*
X11048753Y-11349222D02*
X11058277Y-11330174D01*
X11058277Y-11330174D02*
X11077325Y-11320650D01*
X11077325Y-11320650D02*
X11115420Y-11320650D01*
X11115420Y-11320650D02*
X11134468Y-11330174D01*
X11134468Y-11330174D02*
X11143992Y-11349222D01*
X11143992Y-11349222D02*
X11143992Y-11368269D01*
X11143992Y-11368269D02*
X11048753Y-11387317D01*
X11220182Y-11444460D02*
X11239230Y-11453984D01*
X11239230Y-11453984D02*
X11277325Y-11453984D01*
X11277325Y-11453984D02*
X11296372Y-11444460D01*
X11296372Y-11444460D02*
X11305896Y-11425412D01*
X11305896Y-11425412D02*
X11305896Y-11415888D01*
X11305896Y-11415888D02*
X11296372Y-11396841D01*
X11296372Y-11396841D02*
X11277325Y-11387317D01*
X11277325Y-11387317D02*
X11248753Y-11387317D01*
X11248753Y-11387317D02*
X11229706Y-11377793D01*
X11229706Y-11377793D02*
X11220182Y-11358746D01*
X11220182Y-11358746D02*
X11220182Y-11349222D01*
X11220182Y-11349222D02*
X11229706Y-11330174D01*
X11229706Y-11330174D02*
X11248753Y-11320650D01*
X11248753Y-11320650D02*
X11277325Y-11320650D01*
X11277325Y-11320650D02*
X11296372Y-11330174D01*
X11372563Y-11530174D02*
X11382087Y-11520650D01*
X11382087Y-11520650D02*
X11401134Y-11492079D01*
X11401134Y-11492079D02*
X11410658Y-11473031D01*
X11410658Y-11473031D02*
X11420182Y-11444460D01*
X11420182Y-11444460D02*
X11429706Y-11396841D01*
X11429706Y-11396841D02*
X11429706Y-11358746D01*
X11429706Y-11358746D02*
X11420182Y-11311127D01*
X11420182Y-11311127D02*
X11410658Y-11282555D01*
X11410658Y-11282555D02*
X11401134Y-11263508D01*
X11401134Y-11263508D02*
X11382087Y-11234936D01*
X11382087Y-11234936D02*
X11372563Y-11225412D01*
M02*
