%TF.GenerationSoftware,KiCad,Pcbnew,9.0.5*%
%TF.CreationDate,2026-04-17T23:00:24+01:00*%
%TF.ProjectId,Smart_Fan_Controller,536d6172-745f-4466-916e-5f436f6e7472,rev?*%
%TF.SameCoordinates,Original*%
%TF.FileFunction,Soldermask,Top*%
%TF.FilePolarity,Negative*%
%FSLAX46Y46*%
G04 Gerber Fmt 4.6, Leading zero omitted, Abs format (unit mm)*
G04 Created by KiCad (PCBNEW 9.0.5) date 2026-04-17 23:00:24*
%MOMM*%
%LPD*%
G01*
G04 APERTURE LIST*
G04 Aperture macros list*
%AMRoundRect*
0 Rectangle with rounded corners*
0 $1 Rounding radius*
0 $2 $3 $4 $5 $6 $7 $8 $9 X,Y pos of 4 corners*
0 Add a 4 corners polygon primitive as box body*
4,1,4,$2,$3,$4,$5,$6,$7,$8,$9,$2,$3,0*
0 Add four circle primitives for the rounded corners*
1,1,$1+$1,$2,$3*
1,1,$1+$1,$4,$5*
1,1,$1+$1,$6,$7*
1,1,$1+$1,$8,$9*
0 Add four rect primitives between the rounded corners*
20,1,$1+$1,$2,$3,$4,$5,0*
20,1,$1+$1,$4,$5,$6,$7,0*
20,1,$1+$1,$6,$7,$8,$9,0*
20,1,$1+$1,$8,$9,$2,$3,0*%
G04 Aperture macros list end*
%ADD10R,2.700000X3.600000*%
%ADD11RoundRect,0.250000X0.475000X-0.250000X0.475000X0.250000X-0.475000X0.250000X-0.475000X-0.250000X0*%
%ADD12RoundRect,0.250001X-1.149999X-1.149999X1.149999X-1.149999X1.149999X1.149999X-1.149999X1.149999X0*%
%ADD13C,2.800000*%
%ADD14RoundRect,0.250000X0.250000X0.475000X-0.250000X0.475000X-0.250000X-0.475000X0.250000X-0.475000X0*%
%ADD15C,1.300000*%
%ADD16RoundRect,0.250001X1.149999X1.149999X-1.149999X1.149999X-1.149999X-1.149999X1.149999X-1.149999X0*%
%ADD17RoundRect,0.250000X0.650000X-1.000000X0.650000X1.000000X-0.650000X1.000000X-0.650000X-1.000000X0*%
%ADD18RoundRect,0.237500X-0.250000X-0.237500X0.250000X-0.237500X0.250000X0.237500X-0.250000X0.237500X0*%
%ADD19RoundRect,0.250000X0.350000X-0.450000X0.350000X0.450000X-0.350000X0.450000X-0.350000X-0.450000X0*%
%ADD20RoundRect,0.250000X-2.050000X-0.300000X2.050000X-0.300000X2.050000X0.300000X-2.050000X0.300000X0*%
%ADD21RoundRect,0.250002X-4.449998X-5.149998X4.449998X-5.149998X4.449998X5.149998X-4.449998X5.149998X0*%
%ADD22R,1.800000X1.800000*%
%ADD23C,1.800000*%
%ADD24C,2.000000*%
%ADD25RoundRect,0.237500X0.237500X-0.250000X0.237500X0.250000X-0.237500X0.250000X-0.237500X-0.250000X0*%
%ADD26R,1.905000X2.000000*%
%ADD27O,1.905000X2.000000*%
%ADD28RoundRect,0.249999X-0.850001X0.850001X-0.850001X-0.850001X0.850001X-0.850001X0.850001X0.850001X0*%
%ADD29C,2.200000*%
%ADD30RoundRect,0.250000X-0.475000X0.250000X-0.475000X-0.250000X0.475000X-0.250000X0.475000X0.250000X0*%
%ADD31C,1.440000*%
%ADD32RoundRect,0.137500X-0.600000X-0.137500X0.600000X-0.137500X0.600000X0.137500X-0.600000X0.137500X0*%
%ADD33RoundRect,0.137500X-0.137500X-0.600000X0.137500X-0.600000X0.137500X0.600000X-0.137500X0.600000X0*%
%ADD34R,3.500000X3.500000*%
%ADD35RoundRect,0.750000X0.750000X1.000000X-0.750000X1.000000X-0.750000X-1.000000X0.750000X-1.000000X0*%
%ADD36RoundRect,0.875000X0.875000X0.875000X-0.875000X0.875000X-0.875000X-0.875000X0.875000X-0.875000X0*%
%ADD37RoundRect,0.250000X-0.250000X-0.475000X0.250000X-0.475000X0.250000X0.475000X-0.250000X0.475000X0*%
G04 APERTURE END LIST*
D10*
%TO.C,L1*%
X112600000Y-86250000D03*
X120900000Y-86250000D03*
%TD*%
D11*
%TO.C,C6*%
X109750000Y-70950000D03*
X109750000Y-69050000D03*
%TD*%
D12*
%TO.C,J2*%
X117750000Y-46967500D03*
D13*
X122750000Y-46967500D03*
%TD*%
D14*
%TO.C,C2*%
X90561200Y-74549000D03*
X88661200Y-74549000D03*
%TD*%
D15*
%TO.C,REF\u002A\u002A*%
X128000000Y-44000000D03*
%TD*%
D16*
%TO.C,J3*%
X101000000Y-87000000D03*
D13*
X96000000Y-87000000D03*
X91000000Y-87000000D03*
X86000000Y-87000000D03*
X81000000Y-87000000D03*
X76000000Y-87000000D03*
%TD*%
D17*
%TO.C,D4*%
X108250000Y-78250000D03*
X108250000Y-74250000D03*
%TD*%
D18*
%TO.C,R1*%
X81891500Y-57150000D03*
X83716500Y-57150000D03*
%TD*%
D14*
%TO.C,C7*%
X107950000Y-60000000D03*
X106050000Y-60000000D03*
%TD*%
D18*
%TO.C,R4*%
X80367500Y-63500000D03*
X82192500Y-63500000D03*
%TD*%
D19*
%TO.C,Y1*%
X90240000Y-71250000D03*
X90240000Y-69050000D03*
X88540000Y-69050000D03*
X88540000Y-71250000D03*
%TD*%
D15*
%TO.C,REF\u002A\u002A*%
X68000000Y-44000000D03*
%TD*%
D20*
%TO.C,U1*%
X113850000Y-69600000D03*
X113850000Y-71300000D03*
X113850000Y-73000000D03*
D21*
X123000000Y-73000000D03*
D20*
X113850000Y-74700000D03*
X113850000Y-76400000D03*
%TD*%
D22*
%TO.C,D3*%
X73660000Y-68580000D03*
D23*
X73660000Y-66040000D03*
%TD*%
D18*
%TO.C,R3*%
X85280000Y-63500000D03*
X87105000Y-63500000D03*
%TD*%
D24*
%TO.C,SW2*%
X70410000Y-73950000D03*
X76910000Y-73950000D03*
X70410000Y-78450000D03*
X76910000Y-78450000D03*
%TD*%
D25*
%TO.C,R6*%
X100330000Y-55880000D03*
X100330000Y-54055000D03*
%TD*%
D18*
%TO.C,R2*%
X82399500Y-59690000D03*
X84224500Y-59690000D03*
%TD*%
D15*
%TO.C,REF\u002A\u002A*%
X68000000Y-92000000D03*
%TD*%
D22*
%TO.C,D2*%
X73660000Y-60580000D03*
D23*
X73660000Y-58040000D03*
%TD*%
D14*
%TO.C,C1*%
X86643000Y-66929800D03*
X84743000Y-66929800D03*
%TD*%
D26*
%TO.C,Q1*%
X96520000Y-46040000D03*
D27*
X93980000Y-46040000D03*
X91440000Y-46040000D03*
%TD*%
D28*
%TO.C,D1*%
X109220000Y-44450000D03*
D29*
X109220000Y-54610000D03*
%TD*%
D30*
%TO.C,C5*%
X91540000Y-64100000D03*
X91540000Y-66000000D03*
%TD*%
D25*
%TO.C,R5*%
X81762600Y-69035300D03*
X81762600Y-67210300D03*
%TD*%
D31*
%TO.C,RV1*%
X75460000Y-51540000D03*
X78000000Y-49000000D03*
X75460000Y-46460000D03*
%TD*%
D15*
%TO.C,REF\u002A\u002A*%
X128000000Y-92000000D03*
%TD*%
D32*
%TO.C,U4*%
X94377500Y-64250000D03*
X94377500Y-65050000D03*
X94377500Y-65850000D03*
X94377500Y-66650000D03*
X94377500Y-67450000D03*
X94377500Y-68250000D03*
X94377500Y-69050000D03*
X94377500Y-69850000D03*
D33*
X95740000Y-71212500D03*
X96540000Y-71212500D03*
X97340000Y-71212500D03*
X98140000Y-71212500D03*
X98940000Y-71212500D03*
X99740000Y-71212500D03*
X100540000Y-71212500D03*
X101340000Y-71212500D03*
D32*
X102702500Y-69850000D03*
X102702500Y-69050000D03*
X102702500Y-68250000D03*
X102702500Y-67450000D03*
X102702500Y-66650000D03*
X102702500Y-65850000D03*
X102702500Y-65050000D03*
X102702500Y-64250000D03*
D33*
X101340000Y-62887500D03*
X100540000Y-62887500D03*
X99740000Y-62887500D03*
X98940000Y-62887500D03*
X98140000Y-62887500D03*
X97340000Y-62887500D03*
X96540000Y-62887500D03*
X95740000Y-62887500D03*
%TD*%
D34*
%TO.C,J1*%
X112950000Y-60160000D03*
D35*
X118950000Y-60160000D03*
D36*
X115950000Y-55460000D03*
%TD*%
D37*
%TO.C,C8*%
X106050000Y-64000000D03*
X107950000Y-64000000D03*
%TD*%
D26*
%TO.C,U3*%
X90170000Y-57150000D03*
D27*
X92710000Y-57150000D03*
X95250000Y-57150000D03*
%TD*%
M02*
