M48
; DRILL file {KiCad 9.0.5} date 2026-04-17T23:00:10+0100
; FORMAT={-:-/ absolute / metric / decimal}
; #@! TF.CreationDate,2026-04-17T23:00:10+01:00
; #@! TF.GenerationSoftware,Kicad,Pcbnew,9.0.5
; #@! TF.FileFunction,Plated,1,2,PTH
FMAT,2
METRIC
; #@! TA.AperFunction,Plated,PTH,ViaDrill
T1C0.300
; #@! TA.AperFunction,Plated,PTH,ComponentDrill
T2C0.800
; #@! TA.AperFunction,Plated,PTH,ComponentDrill
T3C0.900
; #@! TA.AperFunction,Plated,PTH,ComponentDrill
T4C1.000
; #@! TA.AperFunction,Plated,PTH,ComponentDrill
T5C1.100
; #@! TA.AperFunction,Plated,PTH,ComponentDrill
T6C1.300
%
G90
G05
T1
X85.547Y-64.516
X85.75Y-58.164
X88.888Y-66.6
X90.023Y-67.163
X93.98Y-50.292
X94.234Y-79.84
X94.234Y-80.772
X95.86Y-72.669
X97.434Y-61.493
X99.0Y-59.0
X100.0Y-57.0
X100.541Y-73.617
X100.584Y-60.96
X101.817Y-61.183
X102.743Y-72.263
X104.0Y-65.0
X108.525Y-70.732
X110.051Y-74.0
T2
X75.46Y-46.46
X75.46Y-51.54
X78.0Y-49.0
T3
X73.66Y-58.04
X73.66Y-60.58
X73.66Y-66.04
X73.66Y-68.58
T5
X70.41Y-73.95
X70.41Y-78.45
X76.91Y-73.95
X76.91Y-78.45
X90.17Y-57.15
X91.44Y-46.04
X92.71Y-57.15
X93.98Y-46.04
X95.25Y-57.15
X96.52Y-46.04
X109.22Y-44.45
X109.22Y-54.61
T6
X76.0Y-87.0
X81.0Y-87.0
X86.0Y-87.0
X91.0Y-87.0
X96.0Y-87.0
X101.0Y-87.0
X117.75Y-46.968
X122.75Y-46.968
T4
G00X112.95Y-61.16
M15
G01X112.95Y-59.16
M16
G05
G00X116.95Y-55.46
M15
G01X114.95Y-55.46
M16
G05
G00X118.95Y-61.16
M15
G01X118.95Y-59.16
M16
G05
M30
